Vollkorn-BlackItalic.ufo
<glyph name="exclam" format="2">
  <advance width="426.935"/>
  <unicode hex="0021"/>
  <outline>
    <contour>
      <point x="383" y="708"/>
      <point x="353" y="717" type="curve"/>
      <point x="307" y="696"/>
      <point x="242" y="682"/>
      <point x="187" y="675" type="curve"/>
      <point x="187" y="539"/>
      <point x="181" y="399"/>
      <point x="168" y="258" type="curve"/>
      <point x="195" y="245"/>
      <point x="233" y="242"/>
      <point x="269" y="245" type="curve"/>
      <point x="303" y="380"/>
      <point x="348" y="543"/>
      <point x="374" y="623" type="curve" smooth="yes"/>
      <point x="394" y="684"/>
    </contour>
    <component base="_part.dot" xOffset="73"/>
  </outline>
</glyph>
<glyph name="numbersign" format="2">
  <advance width="624"/>
  <unicode hex="0023"/>
  <outline>
    <contour>
      <point x="414" y="-9" type="curve"/>
      <point x="542" y="694" type="line"/>
      <point x="533" y="704"/>
      <point x="492" y="717"/>
      <point x="459" y="717" type="curve"/>
      <point x="330" y="14" type="line"/>
      <point x="345" y="0"/>
      <point x="380" y="-9"/>
    </contour>
    <contour>
      <point x="30" y="180" type="curve"/>
      <point x="103" y="184"/>
      <point x="246" y="184"/>
      <point x="471" y="184" type="curve" smooth="yes"/>
      <point x="565" y="184" type="line"/>
      <point x="577" y="215"/>
      <point x="580" y="243"/>
      <point x="580" y="273" type="curve"/>
      <point x="45" y="273" type="line"/>
      <point x="32" y="246"/>
      <point x="30" y="215"/>
    </contour>
    <contour>
      <point x="186" y="-9" type="curve"/>
      <point x="314" y="692" type="line"/>
      <point x="303" y="706"/>
      <point x="265" y="717"/>
      <point x="231" y="717" type="curve"/>
      <point x="103" y="18" type="line"/>
      <point x="120" y="2"/>
      <point x="158" y="-9"/>
    </contour>
    <contour>
      <point x="75" y="429" type="curve"/>
      <point x="162" y="432"/>
      <point x="289" y="432"/>
      <point x="515" y="432" type="curve" smooth="yes"/>
      <point x="600" y="432" type="line"/>
      <point x="610" y="458"/>
      <point x="614" y="487"/>
      <point x="614" y="522" type="curve"/>
      <point x="91" y="522" type="line"/>
      <point x="78" y="489"/>
      <point x="75" y="465"/>
    </contour>
  </outline>
</glyph>
<glyph name="parenleft" format="2">
  <advance width="347"/>
  <unicode hex="0028"/>
  <outline>
    <contour>
      <point x="347" y="743"/>
      <point x="317" y="741" type="curve"/>
      <point x="147" y="596"/>
      <point x="83" y="464"/>
      <point x="49" y="270" type="curve" smooth="yes"/>
      <point x="16" y="78"/>
      <point x="62" y="-127"/>
      <point x="159" y="-271" type="curve"/>
      <point x="186" y="-271"/>
      <point x="212" y="-267"/>
      <point x="232" y="-255" type="curve"/>
      <point x="179" y="-116"/>
      <point x="166" y="78"/>
      <point x="202" y="286" type="curve" smooth="yes"/>
      <point x="236" y="480"/>
      <point x="290" y="601"/>
      <point x="394" y="719" type="curve"/>
      <point x="378" y="733"/>
    </contour>
  </outline>
</glyph>
<glyph name="parenright" format="2">
  <advance width="334.902"/>
  <unicode hex="0029"/>
  <outline>
    <contour>
      <point x="293" y="584"/>
      <point x="187" y="741" type="curve"/>
      <point x="164" y="741"/>
      <point x="136" y="733"/>
      <point x="116" y="719" type="curve"/>
      <point x="170" y="587"/>
      <point x="179" y="429"/>
      <point x="143" y="224" type="curve" smooth="yes"/>
      <point x="110" y="37"/>
      <point x="54" y="-96"/>
      <point x="-60" y="-252" type="curve"/>
      <point x="-39" y="-266"/>
      <point x="-10" y="-271"/>
      <point x="17" y="-271" type="curve"/>
      <point x="182" y="-110"/>
      <point x="260" y="34"/>
      <point x="297" y="245" type="curve" smooth="yes"/>
      <point x="328" y="425"/>
    </contour>
  </outline>
</glyph>
<glyph name="asterisk" format="2">
  <advance width="505.146"/>
  <unicode hex="002A"/>
  <outline>
    <contour>
      <point x="410" y="652" type="curve"/>
      <point x="382" y="612"/>
      <point x="356" y="567"/>
      <point x="335" y="523" type="curve"/>
      <point x="388" y="539"/>
      <point x="434" y="557"/>
      <point x="478" y="578" type="curve"/>
      <point x="504" y="531"/>
      <point x="507" y="487"/>
      <point x="493" y="430" type="curve"/>
      <point x="436" y="447"/>
      <point x="394" y="457"/>
      <point x="339" y="465" type="curve"/>
      <point x="373" y="422"/>
      <point x="403" y="390"/>
      <point x="444" y="350" type="curve"/>
      <point x="412" y="313"/>
      <point x="363" y="289"/>
      <point x="305" y="290" type="curve"/>
      <point x="304" y="346"/>
      <point x="300" y="388"/>
      <point x="289" y="444" type="curve"/>
      <point x="258" y="401"/>
      <point x="235" y="367"/>
      <point x="206" y="315" type="curve"/>
      <point x="156" y="333"/>
      <point x="128" y="367"/>
      <point x="118" y="422" type="curve"/>
      <point x="169" y="442"/>
      <point x="208" y="461"/>
      <point x="253" y="486" type="curve"/>
      <point x="206" y="503"/>
      <point x="168" y="513"/>
      <point x="109" y="523" type="curve"/>
      <point x="114" y="572"/>
      <point x="138" y="616"/>
      <point x="179" y="641" type="curve"/>
      <point x="212" y="597"/>
      <point x="237" y="570"/>
      <point x="281" y="530" type="curve"/>
      <point x="281" y="582"/>
      <point x="279" y="627"/>
      <point x="272" y="682" type="curve"/>
      <point x="325" y="688"/>
      <point x="376" y="678"/>
    </contour>
  </outline>
</glyph>
<glyph name="plus" format="2">
  <advance width="550"/>
  <unicode hex="002B"/>
  <outline>
    <contour>
      <point x="277" y="0" type="curve"/>
      <point x="305" y="168"/>
      <point x="336" y="334"/>
      <point x="371" y="496" type="curve"/>
      <point x="343" y="508"/>
      <point x="314" y="509"/>
      <point x="284" y="504" type="curve"/>
      <point x="190" y="16" type="line"/>
      <point x="213" y="0"/>
      <point x="244" y="-3"/>
    </contour>
    <contour>
      <point x="34" y="218" type="curve"/>
      <point x="217" y="222"/>
      <point x="355" y="222"/>
      <point x="505" y="222" type="curve"/>
      <point x="522" y="245"/>
      <point x="528" y="274"/>
      <point x="529" y="305" type="curve"/>
      <point x="59" y="305" type="line"/>
      <point x="42" y="280"/>
      <point x="35" y="250"/>
    </contour>
  </outline>
</glyph>
<glyph name="period" format="2">
  <advance width="289"/>
  <unicode hex="002E"/>
  <outline>
    <contour>
      <point x="116" y="-9" type="curve" smooth="yes"/>
      <point x="180" y="-9"/>
      <point x="214" y="23"/>
      <point x="224" y="75" type="curve" smooth="yes"/>
      <point x="239" y="154"/>
      <point x="185" y="197"/>
      <point x="128" y="197" type="curve" smooth="yes"/>
      <point x="61" y="197"/>
      <point x="23" y="167"/>
      <point x="13" y="114" type="curve" smooth="yes"/>
      <point x="-3" y="35"/>
      <point x="42" y="-9"/>
    </contour>
  </outline>
</glyph>
<glyph name="zero" format="2">
  <advance width="611"/>
  <unicode hex="0030"/>
  <outline>
    <contour>
      <point x="286" y="-9" type="curve" smooth="yes"/>
      <point x="442" y="-9"/>
      <point x="546" y="71"/>
      <point x="573" y="214" type="curve" smooth="yes"/>
      <point x="607" y="391"/>
      <point x="526" y="509"/>
      <point x="343" y="509" type="curve" smooth="yes"/>
      <point x="181" y="509"/>
      <point x="75" y="432"/>
      <point x="49" y="296" type="curve" smooth="yes"/>
      <point x="15" y="113"/>
      <point x="98" y="-9"/>
    </contour>
    <contour>
      <point x="299" y="69" type="curve" smooth="yes"/>
      <point x="238" y="69"/>
      <point x="215" y="170"/>
      <point x="241" y="322" type="curve" smooth="yes"/>
      <point x="252" y="387"/>
      <point x="283" y="430"/>
      <point x="318" y="430" type="curve" smooth="yes"/>
      <point x="382" y="430"/>
      <point x="406" y="327"/>
      <point x="377" y="172" type="curve" smooth="yes"/>
      <point x="365" y="110"/>
      <point x="334" y="69"/>
    </contour>
  </outline>
</glyph>
<glyph name="two" format="2">
  <advance width="526"/>
  <unicode hex="0032"/>
  <outline>
    <contour>
      <point x="298" y="506" type="curve" smooth="yes"/>
      <point x="434" y="506"/>
      <point x="498" y="457"/>
      <point x="484" y="376" type="curve" smooth="yes"/>
      <point x="475" y="320"/>
      <point x="434" y="293"/>
      <point x="339" y="238" type="curve" smooth="yes"/>
      <point x="281" y="205"/>
      <point x="252" y="188"/>
      <point x="191" y="140" type="curve"/>
      <point x="200" y="156" type="line"/>
      <point x="224" y="159"/>
      <point x="242" y="159"/>
      <point x="262" y="159" type="curve" smooth="yes"/>
      <point x="288" y="159"/>
      <point x="313" y="156"/>
      <point x="325" y="156" type="curve" smooth="yes"/>
      <point x="348" y="156"/>
      <point x="358" y="168"/>
      <point x="368" y="211" type="curve"/>
      <point x="396" y="216"/>
      <point x="439" y="210"/>
      <point x="463" y="198" type="curve"/>
      <point x="450" y="147"/>
      <point x="444" y="82"/>
      <point x="448" y="38" type="curve"/>
      <point x="435" y="6"/>
      <point x="413" y="-3"/>
      <point x="381" y="-3" type="curve" smooth="yes"/>
      <point x="362" y="-3"/>
      <point x="305" y="0"/>
      <point x="240" y="0" type="curve" smooth="yes"/>
      <point x="179" y="0"/>
      <point x="106" y="0"/>
      <point x="38" y="-3" type="curve"/>
      <point x="25" y="19"/>
      <point x="18" y="60"/>
      <point x="21" y="92" type="curve"/>
      <point x="75" y="152"/>
      <point x="116" y="183"/>
      <point x="173" y="226" type="curve" smooth="yes"/>
      <point x="243" y="279"/>
      <point x="279" y="309"/>
      <point x="289" y="358" type="curve" smooth="yes"/>
      <point x="299" y="405"/>
      <point x="277" y="430"/>
      <point x="242" y="430" type="curve" smooth="yes"/>
      <point x="208" y="430"/>
      <point x="194" y="407"/>
      <point x="182" y="304" type="curve"/>
      <point x="137" y="303"/>
      <point x="97" y="310"/>
      <point x="71" y="323" type="curve"/>
      <point x="83" y="364"/>
      <point x="89" y="415"/>
      <point x="90" y="458" type="curve"/>
      <point x="146" y="492"/>
      <point x="225" y="506"/>
    </contour>
  </outline>
</glyph>
<glyph name="four" format="2">
  <advance width="605"/>
  <unicode hex="0034"/>
  <outline>
    <contour>
      <point x="250" y="-171" type="curve"/>
      <point x="297" y="-152"/>
      <point x="347" y="-146"/>
      <point x="409" y="-153" type="curve"/>
      <point x="532" y="489" type="line"/>
      <point x="490" y="503"/>
      <point x="452" y="506"/>
      <point x="408" y="506" type="curve"/>
      <point x="278" y="368"/>
      <point x="148" y="236"/>
      <point x="11" y="102" type="curve"/>
      <point x="9" y="65"/>
      <point x="16" y="26"/>
      <point x="32" y="-5" type="curve"/>
      <point x="122" y="-1"/>
      <point x="296" y="0"/>
      <point x="513" y="0" type="curve"/>
      <point x="522" y="45"/>
      <point x="534" y="86"/>
      <point x="548" y="116" type="curve"/>
      <point x="541" y="138"/>
      <point x="527" y="149"/>
      <point x="504" y="149" type="curve" smooth="yes"/>
      <point x="405" y="149" type="line"/>
      <point x="316" y="139" type="line"/>
      <point x="118" y="139" type="line"/>
      <point x="100" y="104" type="line"/>
      <point x="213" y="201"/>
      <point x="289" y="269"/>
      <point x="362" y="377" type="curve"/>
      <point x="351" y="377" type="line"/>
      <point x="330" y="335"/>
      <point x="313" y="272"/>
      <point x="294" y="177" type="curve" smooth="yes"/>
      <point x="283" y="123" type="line"/>
      <point x="254" y="44" type="line"/>
      <point x="223" y="-116" type="line" smooth="yes"/>
      <point x="218" y="-142"/>
      <point x="226" y="-159"/>
    </contour>
  </outline>
</glyph>
<glyph name="five" format="2">
  <advance width="497"/>
  <unicode hex="0035"/>
  <outline>
    <contour>
      <point x="36" y="206" type="curve"/>
      <point x="125" y="503" type="line"/>
      <point x="201" y="500"/>
      <point x="261" y="500"/>
      <point x="322" y="500" type="curve" smooth="yes"/>
      <point x="353" y="500"/>
      <point x="374" y="520"/>
      <point x="380" y="555" type="curve"/>
      <point x="410" y="560"/>
      <point x="452" y="558"/>
      <point x="480" y="548" type="curve"/>
      <point x="463" y="491"/>
      <point x="455" y="428"/>
      <point x="450" y="373" type="curve"/>
      <point x="442" y="353"/>
      <point x="426" y="343"/>
      <point x="398" y="343" type="curve" smooth="yes"/>
      <point x="276" y="343"/>
      <point x="198" y="343"/>
      <point x="144" y="340" type="curve"/>
      <point x="165" y="379" type="line"/>
      <point x="132" y="265" type="line"/>
      <point x="119" y="290" type="line"/>
      <point x="354" y="267"/>
      <point x="447" y="168"/>
      <point x="413" y="31" type="curve" smooth="yes"/>
      <point x="379" y="-107"/>
      <point x="247" y="-171"/>
      <point x="100" y="-171" type="curve" smooth="yes"/>
      <point x="44" y="-171"/>
      <point x="0" y="-162"/>
      <point x="-22" y="-148" type="curve"/>
      <point x="-17" y="-120"/>
      <point x="-7" y="-97"/>
      <point x="11" y="-78" type="curve"/>
      <point x="37" y="-87"/>
      <point x="65" y="-90"/>
      <point x="88" y="-90" type="curve" smooth="yes"/>
      <point x="159" y="-90"/>
      <point x="206" y="-62"/>
      <point x="221" y="1" type="curve" smooth="yes"/>
      <point x="241" y="84"/>
      <point x="179" y="123"/>
      <point x="54" y="138" type="curve"/>
      <point x="39" y="159"/>
      <point x="34" y="179"/>
    </contour>
  </outline>
</glyph>
<glyph name="six" format="2">
  <advance width="603"/>
  <unicode hex="0036"/>
  <outline>
    <contour>
      <point x="53" y="291" type="curve" smooth="yes"/>
      <point x="15" y="99"/>
      <point x="91" y="-9"/>
      <point x="266" y="-9" type="curve" smooth="yes"/>
      <point x="426" y="-9"/>
      <point x="530" y="63"/>
      <point x="555" y="191" type="curve" smooth="yes"/>
      <point x="579" y="313"/>
      <point x="513" y="395"/>
      <point x="389" y="395" type="curve" smooth="yes"/>
      <point x="341" y="395"/>
      <point x="301" y="387"/>
      <point x="245" y="368" type="curve"/>
      <point x="223" y="300" type="line"/>
      <point x="247" y="310"/>
      <point x="266" y="314"/>
      <point x="290" y="314" type="curve" smooth="yes"/>
      <point x="348" y="314"/>
      <point x="376" y="256"/>
      <point x="359" y="169" type="curve" smooth="yes"/>
      <point x="347" y="109"/>
      <point x="318" y="75"/>
      <point x="276" y="75" type="curve" smooth="yes"/>
      <point x="227" y="75"/>
      <point x="213" y="154"/>
      <point x="239" y="294" type="curve" smooth="yes"/>
      <point x="264" y="434"/>
      <point x="371" y="532"/>
      <point x="537" y="565" type="curve"/>
      <point x="546" y="596"/>
      <point x="545" y="623"/>
      <point x="535" y="638" type="curve"/>
      <point x="267" y="623"/>
      <point x="94" y="498"/>
    </contour>
  </outline>
</glyph>
<glyph name="eight" format="2">
  <advance width="585"/>
  <unicode hex="0038"/>
  <outline>
    <contour>
      <point x="365" y="637" type="curve" smooth="yes"/>
      <point x="229" y="637"/>
      <point x="140" y="592"/>
      <point x="115" y="501" type="curve" smooth="yes"/>
      <point x="93" y="422"/>
      <point x="133" y="355"/>
      <point x="217" y="297" type="curve" smooth="yes"/>
      <point x="316" y="229"/>
      <point x="351" y="203"/>
      <point x="336" y="130" type="curve" smooth="yes"/>
      <point x="328" y="92"/>
      <point x="307" y="69"/>
      <point x="278" y="69" type="curve" smooth="yes"/>
      <point x="232" y="69"/>
      <point x="214" y="128"/>
      <point x="227" y="196" type="curve" smooth="yes"/>
      <point x="234" y="233"/>
      <point x="246" y="256"/>
      <point x="260" y="274" type="curve"/>
      <point x="184" y="331" type="line"/>
      <point x="106" y="296"/>
      <point x="54" y="250"/>
      <point x="35" y="174" type="curve" smooth="yes"/>
      <point x="5" y="50"/>
      <point x="99" y="-9"/>
      <point x="262" y="-9" type="curve" smooth="yes"/>
      <point x="415" y="-9"/>
      <point x="501" y="43"/>
      <point x="528" y="142" type="curve" smooth="yes"/>
      <point x="565" y="277"/>
      <point x="454" y="357"/>
      <point x="377" y="402" type="curve" smooth="yes"/>
      <point x="337" y="425"/>
      <point x="281" y="466"/>
      <point x="299" y="526" type="curve" smooth="yes"/>
      <point x="307" y="553"/>
      <point x="326" y="569"/>
      <point x="352" y="569" type="curve" smooth="yes"/>
      <point x="389" y="569"/>
      <point x="404" y="539"/>
      <point x="396" y="491" type="curve" smooth="yes"/>
      <point x="390" y="456"/>
      <point x="376" y="432"/>
      <point x="349" y="409" type="curve"/>
      <point x="432" y="362" type="line"/>
      <point x="514" y="395"/>
      <point x="555" y="436"/>
      <point x="567" y="492" type="curve" smooth="yes"/>
      <point x="586" y="581"/>
      <point x="517" y="637"/>
    </contour>
  </outline>
</glyph>
<glyph name="nine" format="2">
  <advance width="599"/>
  <unicode hex="0039"/>
  <outline>
    <contour>
      <point x="351" y="506" type="curve" smooth="yes"/>
      <point x="182" y="506"/>
      <point x="80" y="430"/>
      <point x="57" y="313" type="curve" smooth="yes"/>
      <point x="30" y="173"/>
      <point x="95" y="92"/>
      <point x="216" y="92" type="curve" smooth="yes"/>
      <point x="267" y="92"/>
      <point x="317" y="104"/>
      <point x="353" y="122" type="curve"/>
      <point x="371" y="187" type="line"/>
      <point x="352" y="176"/>
      <point x="337" y="173"/>
      <point x="317" y="173" type="curve" smooth="yes"/>
      <point x="249" y="173"/>
      <point x="234" y="244"/>
      <point x="250" y="331" type="curve" smooth="yes"/>
      <point x="260" y="381"/>
      <point x="289" y="422"/>
      <point x="330" y="422" type="curve" smooth="yes"/>
      <point x="372" y="422"/>
      <point x="396" y="373"/>
      <point x="371" y="238" type="curve" smooth="yes"/>
      <point x="343" y="92"/>
      <point x="270" y="-48"/>
      <point x="31" y="-96" type="curve"/>
      <point x="22" y="-127"/>
      <point x="24" y="-154"/>
      <point x="33" y="-169" type="curve"/>
      <point x="316" y="-149"/>
      <point x="512" y="-8"/>
      <point x="556" y="216" type="curve" smooth="yes"/>
      <point x="593" y="407"/>
      <point x="505" y="506"/>
    </contour>
  </outline>
</glyph>
<glyph name="less" format="2">
  <advance width="550"/>
  <unicode hex="003C"/>
  <outline>
    <contour>
      <point x="413" y="-7" type="curve"/>
      <point x="433" y="12"/>
      <point x="445" y="57"/>
      <point x="444" y="89" type="curve"/>
      <point x="166" y="260" type="line"/>
      <point x="527" y="433" type="line"/>
      <point x="507" y="471"/>
      <point x="485" y="494"/>
      <point x="452" y="503" type="curve"/>
      <point x="83" y="307" type="line"/>
      <point x="62" y="277"/>
      <point x="52" y="245"/>
      <point x="51" y="213" type="curve"/>
      <point x="162" y="153"/>
      <point x="281" y="81"/>
    </contour>
  </outline>
</glyph>
<glyph name="greater" format="2">
  <advance width="550"/>
  <unicode hex="003E"/>
  <outline>
    <contour>
      <point x="90" y="1" type="curve"/>
      <point x="239" y="88"/>
      <point x="342" y="145"/>
      <point x="466" y="206" type="curve"/>
      <point x="488" y="233"/>
      <point x="497" y="263"/>
      <point x="494" y="294" type="curve"/>
      <point x="193" y="512" type="line"/>
      <point x="159" y="502"/>
      <point x="127" y="478"/>
      <point x="110" y="453" type="curve"/>
      <point x="415" y="241" type="line"/>
      <point x="422" y="278" type="line"/>
      <point x="67" y="98" type="line"/>
      <point x="60" y="57"/>
      <point x="68" y="25"/>
    </contour>
  </outline>
</glyph>
<glyph name="question" format="2">
  <advance width="544.719"/>
  <unicode hex="003F"/>
  <outline>
    <contour>
      <point x="194" y="672" type="curve"/>
      <point x="191" y="624"/>
      <point x="183" y="584"/>
      <point x="166" y="529" type="curve"/>
      <point x="192" y="513"/>
      <point x="219" y="506"/>
      <point x="263" y="506" type="curve"/>
      <point x="297" y="615"/>
      <point x="320" y="640"/>
      <point x="346" y="640" type="curve" smooth="yes"/>
      <point x="370" y="640"/>
      <point x="388" y="622"/>
      <point x="379" y="574" type="curve" smooth="yes"/>
      <point x="360" y="478"/>
      <point x="251" y="475"/>
      <point x="227" y="351" type="curve" smooth="yes"/>
      <point x="217" y="298"/>
      <point x="233" y="243"/>
      <point x="262" y="223" type="curve"/>
      <point x="292" y="221"/>
      <point x="329" y="228"/>
      <point x="352" y="242" type="curve"/>
      <point x="349" y="264"/>
      <point x="349" y="280"/>
      <point x="352" y="300" type="curve" smooth="yes"/>
      <point x="379" y="435"/>
      <point x="551" y="437"/>
      <point x="576" y="570" type="curve" smooth="yes"/>
      <point x="594" y="664"/>
      <point x="521" y="717"/>
      <point x="374" y="717" type="curve" smooth="yes"/>
      <point x="313" y="717"/>
      <point x="248" y="701"/>
    </contour>
    <component base="_part.dot" xOffset="158" yOffset="-1"/>
  </outline>
</glyph>
<glyph name="D" format="2">
  <advance width="733"/>
  <unicode hex="0044"/>
  <anchor x="322" y="0" name="bottom"/>
  <anchor x="255" y="348" name="center"/>
  <anchor x="419" y="676" name="top"/>
  <outline>
    <contour>
      <point x="421" y="678" type="curve" smooth="yes"/>
      <point x="372" y="678"/>
      <point x="332" y="676"/>
      <point x="300" y="676" type="curve"/>
      <point x="369" y="591" type="line"/>
      <point x="388" y="600"/>
      <point x="405" y="603"/>
      <point x="424" y="603" type="curve" smooth="yes"/>
      <point x="502" y="603"/>
      <point x="566" y="560"/>
      <point x="531" y="357" type="curve" smooth="yes"/>
      <point x="487" y="105"/>
      <point x="388" y="75"/>
      <point x="358" y="75" type="curve" smooth="yes"/>
      <point x="178" y="75" type="line"/>
      <point x="164" y="0" type="line"/>
      <point x="309" y="0" type="line" smooth="yes"/>
      <point x="408" y="0"/>
      <point x="674" y="21"/>
      <point x="729" y="335" type="curve" smooth="yes"/>
      <point x="778" y="617"/>
      <point x="620" y="678"/>
    </contour>
    <contour>
      <point x="109" y="679" type="curve"/>
      <point x="104" y="659"/>
      <point x="104" y="628"/>
      <point x="109" y="601" type="curve"/>
      <point x="161" y="595"/>
      <point x="172" y="581"/>
      <point x="158" y="501" type="curve" smooth="yes"/>
      <point x="106" y="197" type="line" smooth="yes"/>
      <point x="89" y="95"/>
      <point x="81" y="79"/>
      <point x="29" y="75" type="curve"/>
      <point x="17" y="48"/>
      <point x="12" y="24"/>
      <point x="11" y="-3" type="curve"/>
      <point x="65" y="0"/>
      <point x="239" y="0"/>
      <point x="309" y="0" type="curve" smooth="yes"/>
      <point x="359" y="75" type="line"/>
      <point x="298" y="75"/>
      <point x="286" y="90"/>
      <point x="302" y="182" type="curve" smooth="yes"/>
      <point x="384" y="676" type="line"/>
      <point x="310" y="676"/>
      <point x="172" y="676"/>
    </contour>
  </outline>
</glyph>
<glyph name="G" format="2">
  <advance width="660"/>
  <unicode hex="0047"/>
  <anchor x="342" y="0" name="bottom"/>
  <anchor x="494" y="174" name="center"/>
  <anchor x="442" y="676" name="top"/>
  <outline>
    <contour>
      <point x="452" y="685" type="curve" smooth="yes"/>
      <point x="268" y="685"/>
      <point x="89" y="581"/>
      <point x="51" y="363" type="curve" smooth="yes"/>
      <point x="13" y="145"/>
      <point x="124" y="-9"/>
      <point x="343" y="-9" type="curve" smooth="yes"/>
      <point x="440" y="-9"/>
      <point x="536" y="18"/>
      <point x="602" y="54" type="curve"/>
      <point x="595" y="85"/>
      <point x="594" y="102"/>
      <point x="598" y="135" type="curve" smooth="yes"/>
      <point x="618" y="248"/>
      <point x="625" y="251"/>
      <point x="662" y="255" type="curve"/>
      <point x="672" y="282"/>
      <point x="676" y="308"/>
      <point x="676" y="333" type="curve"/>
      <point x="617" y="330"/>
      <point x="571" y="330"/>
      <point x="519" y="330" type="curve" smooth="yes"/>
      <point x="475" y="330"/>
      <point x="418" y="330"/>
      <point x="369" y="333" type="curve"/>
      <point x="365" y="306"/>
      <point x="366" y="277"/>
      <point x="370" y="255" type="curve"/>
      <point x="427" y="247"/>
      <point x="442" y="233"/>
      <point x="429" y="155" type="curve" smooth="yes"/>
      <point x="421" y="106"/>
      <point x="414" y="89"/>
      <point x="398" y="80" type="curve" smooth="yes"/>
      <point x="387" y="74"/>
      <point x="376" y="71"/>
      <point x="354" y="71" type="curve" smooth="yes"/>
      <point x="261" y="71"/>
      <point x="223" y="184"/>
      <point x="251" y="347" type="curve" smooth="yes"/>
      <point x="274" y="479"/>
      <point x="338" y="607"/>
      <point x="448" y="607" type="curve" smooth="yes"/>
      <point x="521" y="607"/>
      <point x="550" y="571"/>
      <point x="542" y="469" type="curve"/>
      <point x="575" y="464"/>
      <point x="611" y="467"/>
      <point x="642" y="480" type="curve"/>
      <point x="648" y="531"/>
      <point x="661" y="593"/>
      <point x="674" y="634" type="curve"/>
      <point x="620" y="668"/>
      <point x="542" y="685"/>
    </contour>
  </outline>
</glyph>
<glyph name="I" format="2">
  <advance width="414"/>
  <unicode hex="0049"/>
  <anchor x="180" y="0" name="bottom"/>
  <anchor x="288" y="0" name="ogonek"/>
  <anchor x="277" y="676" name="top"/>
  <anchor x="94" y="676" name="topleft"/>
  <outline>
    <contour>
      <point x="158" y="501" type="curve" smooth="yes"/>
      <point x="103" y="177" type="line" smooth="yes"/>
      <point x="88" y="93"/>
      <point x="78" y="82"/>
      <point x="29" y="75" type="curve"/>
      <point x="18" y="48"/>
      <point x="13" y="26"/>
      <point x="10" y="-3" type="curve"/>
      <point x="56" y="-1"/>
      <point x="112" y="0"/>
      <point x="185" y="0" type="curve" smooth="yes"/>
      <point x="250" y="0"/>
      <point x="291" y="0"/>
      <point x="348" y="-3" type="curve"/>
      <point x="351" y="25"/>
      <point x="350" y="49"/>
      <point x="346" y="75" type="curve"/>
      <point x="297" y="84"/>
      <point x="288" y="95"/>
      <point x="303" y="180" type="curve" smooth="yes"/>
      <point x="355" y="481" type="line" smooth="yes"/>
      <point x="373" y="582"/>
      <point x="379" y="595"/>
      <point x="434" y="601" type="curve"/>
      <point x="444" y="628"/>
      <point x="448" y="654"/>
      <point x="448" y="679" type="curve"/>
      <point x="389" y="676"/>
      <point x="328" y="676"/>
      <point x="276" y="676" type="curve" smooth="yes"/>
      <point x="212" y="676"/>
      <point x="157" y="676"/>
      <point x="108" y="679" type="curve"/>
      <point x="104" y="652"/>
      <point x="105" y="623"/>
      <point x="109" y="601" type="curve"/>
      <point x="166" y="593"/>
      <point x="171" y="579"/>
    </contour>
  </outline>
</glyph>
<glyph name="J" format="2">
  <advance width="385.933"/>
  <unicode hex="004A"/>
  <anchor x="275" y="676" name="top"/>
  <outline>
    <contour>
      <point x="108" y="679" type="curve"/>
      <point x="105" y="653"/>
      <point x="104" y="626"/>
      <point x="110" y="601" type="curve"/>
      <point x="165" y="595"/>
      <point x="172" y="582"/>
      <point x="157" y="498" type="curve" smooth="yes"/>
      <point x="83" y="72" type="line" smooth="yes"/>
      <point x="59" y="-68"/>
      <point x="16" y="-120"/>
      <point x="-63" y="-159" type="curve"/>
      <point x="-63" y="-194"/>
      <point x="-57" y="-225"/>
      <point x="-32" y="-246" type="curve"/>
      <point x="204" y="-170"/>
      <point x="260" y="-60"/>
      <point x="292" y="125" type="curve" smooth="yes"/>
      <point x="354" y="478" type="line" smooth="yes"/>
      <point x="374" y="588"/>
      <point x="383" y="596"/>
      <point x="436" y="601" type="curve"/>
      <point x="443" y="624"/>
      <point x="447" y="650"/>
      <point x="448" y="679" type="curve"/>
      <point x="404" y="677"/>
      <point x="339" y="676"/>
      <point x="280" y="676" type="curve" smooth="yes"/>
      <point x="219" y="676"/>
      <point x="156" y="676"/>
    </contour>
  </outline>
</glyph>
<glyph name="L" format="2">
  <advance width="640"/>
  <unicode hex="004C"/>
  <anchor x="292" y="0" name="bottom"/>
  <anchor x="235" y="348" name="center"/>
  <anchor x="292" y="676" name="top"/>
  <anchor x="504" y="486" name="topright"/>
  <outline>
    <contour>
      <point x="10" y="-3" type="curve"/>
      <point x="55" y="-1"/>
      <point x="240" y="0"/>
      <point x="314" y="0" type="curve" smooth="yes"/>
      <point x="394" y="0"/>
      <point x="506" y="0"/>
      <point x="574" y="-3" type="curve"/>
      <point x="582" y="63"/>
      <point x="604" y="140"/>
      <point x="620" y="179" type="curve"/>
      <point x="592" y="202"/>
      <point x="560" y="216"/>
      <point x="518" y="225" type="curve"/>
      <point x="486" y="127"/>
      <point x="444" y="75"/>
      <point x="376" y="75" type="curve" smooth="yes"/>
      <point x="359" y="75" type="line" smooth="yes"/>
      <point x="299" y="75"/>
      <point x="287" y="90"/>
      <point x="303" y="182" type="curve" smooth="yes"/>
      <point x="355" y="481" type="line" smooth="yes"/>
      <point x="372" y="581"/>
      <point x="382" y="593"/>
      <point x="454" y="601" type="curve"/>
      <point x="464" y="627"/>
      <point x="468" y="654"/>
      <point x="468" y="679" type="curve"/>
      <point x="409" y="676"/>
      <point x="333" y="676"/>
      <point x="281" y="676" type="curve" smooth="yes"/>
      <point x="211" y="676"/>
      <point x="157" y="676"/>
      <point x="108" y="679" type="curve"/>
      <point x="104" y="652"/>
      <point x="104" y="624"/>
      <point x="109" y="601" type="curve"/>
      <point x="166" y="593"/>
      <point x="173" y="579"/>
      <point x="159" y="501" type="curve" smooth="yes"/>
      <point x="106" y="197" type="line" smooth="yes"/>
      <point x="88" y="95"/>
      <point x="83" y="80"/>
      <point x="29" y="75" type="curve"/>
      <point x="18" y="48"/>
      <point x="13" y="25"/>
    </contour>
  </outline>
</glyph>
<glyph name="M" format="2">
  <advance width="975"/>
  <unicode hex="004D"/>
  <anchor x="383" y="0" name="bottom"/>
  <anchor x="923" y="75" name="bottomright"/>
  <anchor x="548" y="676" name="top"/>
  <outline>
    <contour>
      <point x="352" y="-9" type="curve"/>
      <point x="374" y="-9"/>
      <point x="398" y="-9"/>
      <point x="428" y="-3" type="curve"/>
      <point x="532" y="169"/>
      <point x="629" y="343"/>
      <point x="719" y="519" type="curve"/>
      <point x="699" y="519" type="line"/>
      <point x="692" y="416"/>
      <point x="687" y="313"/>
      <point x="676" y="210" type="curve" smooth="yes"/>
      <point x="665" y="105"/>
      <point x="657" y="83"/>
      <point x="588" y="75" type="curve"/>
      <point x="578" y="49"/>
      <point x="574" y="22"/>
      <point x="574" y="-3" type="curve"/>
      <point x="633" y="0"/>
      <point x="699" y="0"/>
      <point x="751" y="0" type="curve" smooth="yes"/>
      <point x="821" y="0"/>
      <point x="875" y="0"/>
      <point x="924" y="-3" type="curve"/>
      <point x="928" y="24"/>
      <point x="928" y="52"/>
      <point x="923" y="75" type="curve"/>
      <point x="873" y="81"/>
      <point x="868" y="104"/>
      <point x="877" y="201" type="curve" smooth="yes"/>
      <point x="885" y="292"/>
      <point x="889" y="384"/>
      <point x="894" y="475" type="curve" smooth="yes"/>
      <point x="899" y="564"/>
      <point x="911" y="591"/>
      <point x="963" y="601" type="curve"/>
      <point x="971" y="624"/>
      <point x="976" y="651"/>
      <point x="976" y="679" type="curve"/>
      <point x="927" y="676"/>
      <point x="893" y="676"/>
      <point x="857" y="676" type="curve" smooth="yes"/>
      <point x="829" y="676"/>
      <point x="773" y="676"/>
      <point x="718" y="679" type="curve"/>
      <point x="636" y="517"/>
      <point x="548" y="358"/>
      <point x="452" y="200" type="curve"/>
      <point x="501" y="200" type="line"/>
      <point x="468" y="363"/>
      <point x="427" y="522"/>
      <point x="380" y="679" type="curve"/>
      <point x="331" y="676"/>
      <point x="276" y="676"/>
      <point x="240" y="676" type="curve" smooth="yes"/>
      <point x="212" y="676"/>
      <point x="142" y="676"/>
      <point x="106" y="679" type="curve"/>
      <point x="102" y="652"/>
      <point x="102" y="623"/>
      <point x="107" y="601" type="curve"/>
      <point x="161" y="594"/>
      <point x="167" y="583"/>
      <point x="152" y="514" type="curve" smooth="yes"/>
      <point x="129" y="411"/>
      <point x="107" y="329"/>
      <point x="71" y="216" type="curve" smooth="yes"/>
      <point x="39" y="116"/>
      <point x="21" y="88"/>
      <point x="-21" y="75" type="curve"/>
      <point x="-31" y="52"/>
      <point x="-36" y="23"/>
      <point x="-36" y="-3" type="curve"/>
      <point x="-7" y="0"/>
      <point x="42" y="0"/>
      <point x="88" y="0" type="curve" smooth="yes"/>
      <point x="126" y="0"/>
      <point x="164" y="0"/>
      <point x="191" y="-3" type="curve"/>
      <point x="194" y="23"/>
      <point x="194" y="51"/>
      <point x="190" y="75" type="curve"/>
      <point x="129" y="88"/>
      <point x="128" y="118"/>
      <point x="154" y="218" type="curve" smooth="yes"/>
      <point x="175" y="300"/>
      <point x="207" y="423"/>
      <point x="228" y="522" type="curve"/>
      <point x="208" y="522" type="line"/>
      <point x="263" y="348"/>
      <point x="311" y="171"/>
    </contour>
  </outline>
</glyph>
<glyph name="N" format="2">
  <advance width="711.649"/>
  <unicode hex="004E"/>
  <anchor x="357" y="0" name="bottom"/>
  <anchor x="404" y="373" name="center"/>
  <anchor x="454" y="676" name="top"/>
  <outline>
    <contour>
      <point x="21" y="75" type="curve"/>
      <point x="13" y="55"/>
      <point x="7" y="24"/>
      <point x="6" y="-3" type="curve"/>
      <point x="48" y="0"/>
      <point x="95" y="0"/>
      <point x="133" y="0" type="curve" smooth="yes"/>
      <point x="163" y="0"/>
      <point x="207" y="0"/>
      <point x="252" y="-3" type="curve"/>
      <point x="255" y="23"/>
      <point x="255" y="51"/>
      <point x="251" y="75" type="curve"/>
      <point x="180" y="92"/>
      <point x="177" y="114"/>
      <point x="195" y="218" type="curve" smooth="yes"/>
      <point x="262" y="607" type="line"/>
      <point x="189" y="615" type="line"/>
      <point x="119" y="218" type="line" smooth="yes"/>
      <point x="101" y="113"/>
      <point x="79" y="93"/>
    </contour>
    <contour>
      <point x="108" y="679" type="curve"/>
      <point x="104" y="649"/>
      <point x="104" y="625"/>
      <point x="109" y="601" type="curve"/>
      <point x="152" y="598"/>
      <point x="163" y="593"/>
      <point x="175" y="573" type="curve" smooth="yes"/>
      <point x="290" y="383"/>
      <point x="399" y="189"/>
      <point x="500" y="-9" type="curve"/>
      <point x="580" y="270" type="line"/>
      <point x="512" y="408"/>
      <point x="433" y="549"/>
      <point x="351" y="679" type="curve"/>
      <point x="316" y="676"/>
      <point x="272" y="676"/>
      <point x="235" y="676" type="curve" smooth="yes"/>
      <point x="196" y="676"/>
      <point x="149" y="676"/>
    </contour>
    <contour>
      <point x="529" y="679" type="curve"/>
      <point x="526" y="653"/>
      <point x="526" y="625"/>
      <point x="530" y="601" type="curve"/>
      <point x="602" y="584"/>
      <point x="609" y="562"/>
      <point x="593" y="458" type="curve" smooth="yes"/>
      <point x="558" y="225" type="line"/>
      <point x="500" y="-9" type="line"/>
      <point x="537" y="-9"/>
      <point x="564" y="-7"/>
      <point x="592" y="1" type="curve"/>
      <point x="672" y="458" type="line" smooth="yes"/>
      <point x="690" y="562"/>
      <point x="703" y="583"/>
      <point x="760" y="601" type="curve"/>
      <point x="768" y="621"/>
      <point x="774" y="652"/>
      <point x="775" y="679" type="curve"/>
      <point x="733" y="676"/>
      <point x="686" y="676"/>
      <point x="648" y="676" type="curve" smooth="yes"/>
      <point x="618" y="676"/>
      <point x="574" y="676"/>
    </contour>
  </outline>
</glyph>
<glyph name="O" format="2">
  <advance width="742"/>
  <unicode hex="004F"/>
  <anchor x="346" y="0" name="bottom"/>
  <anchor x="392" y="340" name="center"/>
  <anchor x="501" y="23" name="ogonek"/>
  <anchor x="453" y="676" name="top"/>
  <anchor x="117" y="676" name="topleft"/>
  <anchor x="712" y="676" name="topright"/>
  <outline>
    <contour>
      <point x="339" y="-9" type="curve" smooth="yes"/>
      <point x="546" y="-9"/>
      <point x="698" y="129"/>
      <point x="737" y="334" type="curve" smooth="yes"/>
      <point x="777" y="545"/>
      <point x="657" y="685"/>
      <point x="444" y="685" type="curve" smooth="yes"/>
      <point x="246" y="685"/>
      <point x="90" y="564"/>
      <point x="49" y="351" type="curve" smooth="yes"/>
      <point x="9" y="142"/>
      <point x="119" y="-9"/>
    </contour>
    <contour>
      <point x="348" y="69" type="curve" smooth="yes"/>
      <point x="246" y="69"/>
      <point x="223" y="195"/>
      <point x="254" y="355" type="curve" smooth="yes"/>
      <point x="284" y="512"/>
      <point x="349" y="610"/>
      <point x="434" y="610" type="curve" smooth="yes"/>
      <point x="526" y="610"/>
      <point x="561" y="496"/>
      <point x="535" y="353" type="curve" smooth="yes"/>
      <point x="504" y="182"/>
      <point x="435" y="69"/>
    </contour>
  </outline>
</glyph>
<glyph name="R" format="2">
  <advance width="756"/>
  <unicode hex="0052"/>
  <anchor x="371" y="0" name="bottom"/>
  <anchor x="421" y="676" name="top"/>
  <outline>
    <contour>
      <point x="487" y="681" type="curve" smooth="yes"/>
      <point x="405" y="681"/>
      <point x="321" y="676"/>
      <point x="283" y="676" type="curve" smooth="yes"/>
      <point x="219" y="676"/>
      <point x="157" y="676"/>
      <point x="108" y="679" type="curve"/>
      <point x="104" y="652"/>
      <point x="105" y="623"/>
      <point x="109" y="601" type="curve"/>
      <point x="166" y="593"/>
      <point x="171" y="579"/>
      <point x="158" y="501" type="curve" smooth="yes"/>
      <point x="106" y="197" type="line" smooth="yes"/>
      <point x="89" y="95"/>
      <point x="77" y="79"/>
      <point x="29" y="75" type="curve"/>
      <point x="18" y="48"/>
      <point x="13" y="26"/>
      <point x="10" y="-3" type="curve"/>
      <point x="56" y="-1"/>
      <point x="112" y="0"/>
      <point x="185" y="0" type="curve" smooth="yes"/>
      <point x="250" y="0"/>
      <point x="277" y="0"/>
      <point x="334" y="-3" type="curve"/>
      <point x="337" y="25"/>
      <point x="336" y="49"/>
      <point x="332" y="75" type="curve"/>
      <point x="293" y="82"/>
      <point x="288" y="95"/>
      <point x="302" y="177" type="curve" smooth="yes"/>
      <point x="385" y="654" type="line"/>
      <point x="365" y="587" type="line"/>
      <point x="385" y="598"/>
      <point x="403" y="603"/>
      <point x="426" y="603" type="curve" smooth="yes"/>
      <point x="484" y="603"/>
      <point x="515" y="565"/>
      <point x="501" y="489" type="curve" smooth="yes"/>
      <point x="485" y="397"/>
      <point x="415" y="347"/>
      <point x="354" y="347" type="curve" smooth="yes"/>
      <point x="344" y="347"/>
      <point x="335" y="347"/>
      <point x="320" y="350" type="curve"/>
      <point x="303" y="260" type="line"/>
      <point x="316" y="259"/>
      <point x="330" y="259"/>
      <point x="345" y="259" type="curve"/>
      <point x="495" y="277" type="line"/>
      <point x="599" y="293"/>
      <point x="694" y="366"/>
      <point x="712" y="473" type="curve" smooth="yes"/>
      <point x="731" y="585"/>
      <point x="664" y="681"/>
    </contour>
    <contour>
      <point x="487" y="293" type="curve"/>
      <point x="308" y="283" type="line"/>
      <point x="344" y="244"/>
      <point x="359" y="220"/>
      <point x="386" y="141" type="curve" smooth="yes"/>
      <point x="424" y="27"/>
      <point x="460" y="-9"/>
      <point x="539" y="-9" type="curve" smooth="yes"/>
      <point x="608" y="-9"/>
      <point x="678" y="16"/>
      <point x="724" y="65" type="curve"/>
      <point x="721" y="88"/>
      <point x="706" y="116"/>
      <point x="691" y="131" type="curve"/>
      <point x="681" y="124"/>
      <point x="665" y="118"/>
      <point x="648" y="118" type="curve" smooth="yes"/>
      <point x="625" y="118"/>
      <point x="611" y="127"/>
      <point x="596" y="165" type="curve" smooth="yes"/>
      <point x="565" y="239"/>
      <point x="532" y="276"/>
    </contour>
  </outline>
</glyph>
<glyph name="S" format="2">
  <advance width="533"/>
  <unicode hex="0053"/>
  <anchor x="217" y="0" name="bottom"/>
  <anchor x="287" y="338" name="center"/>
  <anchor x="337" y="676" name="top"/>
  <outline>
    <contour>
      <point x="213" y="-9" type="curve" smooth="yes"/>
      <point x="360" y="-9"/>
      <point x="479" y="65"/>
      <point x="499" y="183" type="curve" smooth="yes"/>
      <point x="543" y="435"/>
      <point x="208" y="420"/>
      <point x="235" y="558" type="curve" smooth="yes"/>
      <point x="241" y="591"/>
      <point x="268" y="605"/>
      <point x="305" y="605" type="curve" smooth="yes"/>
      <point x="368" y="605"/>
      <point x="402" y="557"/>
      <point x="404" y="471" type="curve"/>
      <point x="443" y="467"/>
      <point x="481" y="470"/>
      <point x="515" y="481" type="curve"/>
      <point x="514" y="520"/>
      <point x="519" y="584"/>
      <point x="526" y="636" type="curve"/>
      <point x="493" y="663"/>
      <point x="429" y="685"/>
      <point x="343" y="685" type="curve" smooth="yes"/>
      <point x="214" y="685"/>
      <point x="105" y="629"/>
      <point x="85" y="520" type="curve" smooth="yes"/>
      <point x="34" y="243"/>
      <point x="347" y="259"/>
      <point x="325" y="131" type="curve" smooth="yes"/>
      <point x="319" y="97"/>
      <point x="280" y="73"/>
      <point x="240" y="73" type="curve" smooth="yes"/>
      <point x="169" y="73"/>
      <point x="140" y="120"/>
      <point x="149" y="219" type="curve"/>
      <point x="110" y="227"/>
      <point x="69" y="225"/>
      <point x="31" y="218" type="curve"/>
      <point x="24" y="162"/>
      <point x="11" y="110"/>
      <point x="-7" y="62" type="curve"/>
      <point x="58" y="12"/>
      <point x="104" y="-9"/>
    </contour>
  </outline>
</glyph>
<glyph name="W" format="2">
  <advance width="977"/>
  <unicode hex="0057"/>
  <anchor x="529" y="281" name="center"/>
  <anchor x="625" y="676" name="top"/>
  <outline>
    <contour>
      <point x="92" y="679" type="curve"/>
      <point x="88" y="649"/>
      <point x="89" y="620"/>
      <point x="93" y="601" type="curve"/>
      <point x="127" y="592"/>
      <point x="131" y="580"/>
      <point x="149" y="485" type="curve" smooth="yes"/>
      <point x="174" y="350"/>
      <point x="199" y="180"/>
      <point x="221" y="5" type="curve"/>
      <point x="244" y="-5"/>
      <point x="296" y="-10"/>
      <point x="323" y="-4" type="curve"/>
      <point x="405" y="145"/>
      <point x="482" y="296"/>
      <point x="554" y="449" type="curve"/>
      <point x="512" y="458" type="line"/>
      <point x="558" y="290"/>
      <point x="586" y="167"/>
      <point x="618" y="3" type="curve"/>
      <point x="650" y="-6"/>
      <point x="702" y="-9"/>
      <point x="724" y="-3" type="curve"/>
      <point x="798" y="147"/>
      <point x="866" y="298"/>
      <point x="930" y="448" type="curve" smooth="yes"/>
      <point x="980" y="565"/>
      <point x="1006" y="594"/>
      <point x="1041" y="601" type="curve"/>
      <point x="1049" y="624"/>
      <point x="1054" y="652"/>
      <point x="1055" y="679" type="curve"/>
      <point x="1013" y="676"/>
      <point x="989" y="676"/>
      <point x="952" y="676" type="curve" smooth="yes"/>
      <point x="923" y="676"/>
      <point x="868" y="676"/>
      <point x="835" y="679" type="curve"/>
      <point x="831" y="651"/>
      <point x="831" y="625"/>
      <point x="836" y="601" type="curve"/>
      <point x="881" y="594"/>
      <point x="890" y="559"/>
      <point x="854" y="468" type="curve" smooth="yes"/>
      <point x="820" y="381"/>
      <point x="781" y="295"/>
      <point x="737" y="208" type="curve"/>
      <point x="778" y="199" type="line"/>
      <point x="747" y="370"/>
      <point x="714" y="513"/>
      <point x="665" y="682" type="curve"/>
      <point x="640" y="684"/>
      <point x="611" y="682"/>
      <point x="585" y="676" type="curve"/>
      <point x="510" y="518"/>
      <point x="429" y="362"/>
      <point x="344" y="208" type="curve"/>
      <point x="388" y="198" type="line"/>
      <point x="377" y="314"/>
      <point x="361" y="399"/>
      <point x="350" y="466" type="curve" smooth="yes"/>
      <point x="337" y="546"/>
      <point x="346" y="593"/>
      <point x="413" y="601" type="curve"/>
      <point x="420" y="620"/>
      <point x="426" y="647"/>
      <point x="427" y="679" type="curve"/>
      <point x="364" y="676"/>
      <point x="285" y="676"/>
      <point x="249" y="676" type="curve" smooth="yes"/>
      <point x="221" y="676"/>
      <point x="143" y="676"/>
    </contour>
  </outline>
</glyph>
<glyph name="X" format="2">
  <advance width="684"/>
  <unicode hex="0058"/>
  <anchor x="297" y="0" name="bottom"/>
  <anchor x="632" y="75" name="bottomright"/>
  <anchor x="370" y="329" name="center"/>
  <anchor x="429" y="676" name="top"/>
  <outline>
    <contour>
      <point x="289" y="-3" type="curve"/>
      <point x="352" y="0"/>
      <point x="431" y="0"/>
      <point x="467" y="0" type="curve" smooth="yes"/>
      <point x="495" y="0"/>
      <point x="582" y="0"/>
      <point x="633" y="-3" type="curve"/>
      <point x="637" y="27"/>
      <point x="636" y="56"/>
      <point x="632" y="75" type="curve"/>
      <point x="582" y="87"/>
      <point x="566" y="103"/>
      <point x="520" y="215" type="curve" smooth="yes"/>
      <point x="494" y="279"/>
      <point x="445" y="398"/>
      <point x="399" y="498" type="curve" smooth="yes"/>
      <point x="363" y="575"/>
      <point x="367" y="594"/>
      <point x="424" y="601" type="curve"/>
      <point x="431" y="620"/>
      <point x="437" y="647"/>
      <point x="438" y="679" type="curve"/>
      <point x="375" y="676"/>
      <point x="296" y="676"/>
      <point x="260" y="676" type="curve" smooth="yes"/>
      <point x="232" y="676"/>
      <point x="145" y="676"/>
      <point x="94" y="679" type="curve"/>
      <point x="90" y="649"/>
      <point x="91" y="620"/>
      <point x="95" y="601" type="curve"/>
      <point x="132" y="592"/>
      <point x="146" y="580"/>
      <point x="183" y="508" type="curve" smooth="yes"/>
      <point x="235" y="407"/>
      <point x="285" y="299"/>
      <point x="309" y="235" type="curve" smooth="yes"/>
      <point x="359" y="101"/>
      <point x="360" y="82"/>
      <point x="303" y="75" type="curve"/>
      <point x="296" y="56"/>
      <point x="290" y="29"/>
    </contour>
    <contour>
      <point x="-36" y="-3" type="curve"/>
      <point x="6" y="0"/>
      <point x="57" y="0"/>
      <point x="94" y="0" type="curve" smooth="yes"/>
      <point x="123" y="0"/>
      <point x="178" y="0"/>
      <point x="211" y="-3" type="curve"/>
      <point x="215" y="25"/>
      <point x="215" y="51"/>
      <point x="210" y="75" type="curve"/>
      <point x="180" y="81"/>
      <point x="180" y="113"/>
      <point x="226" y="165" type="curve" smooth="yes"/>
      <point x="267" y="211"/>
      <point x="304" y="259"/>
      <point x="330" y="295" type="curve"/>
      <point x="272" y="344" type="line"/>
      <point x="237" y="292"/>
      <point x="179" y="222"/>
      <point x="122" y="158" type="curve" smooth="yes"/>
      <point x="76" y="106"/>
      <point x="43" y="84"/>
      <point x="-22" y="75" type="curve"/>
      <point x="-30" y="52"/>
      <point x="-35" y="24"/>
    </contour>
    <contour>
      <point x="449" y="323" type="line"/>
      <point x="497" y="375"/>
      <point x="544" y="432"/>
      <point x="612" y="520" type="curve" smooth="yes"/>
      <point x="660" y="582"/>
      <point x="684" y="592"/>
      <point x="730" y="601" type="curve"/>
      <point x="738" y="624"/>
      <point x="743" y="652"/>
      <point x="744" y="679" type="curve"/>
      <point x="702" y="676"/>
      <point x="665" y="676"/>
      <point x="628" y="676" type="curve" smooth="yes"/>
      <point x="599" y="676"/>
      <point x="544" y="676"/>
      <point x="511" y="679" type="curve"/>
      <point x="507" y="651"/>
      <point x="507" y="625"/>
      <point x="512" y="601" type="curve"/>
      <point x="542" y="595"/>
      <point x="556" y="577"/>
      <point x="493" y="498" type="curve" smooth="yes"/>
      <point x="460" y="457"/>
      <point x="420" y="405"/>
      <point x="386" y="369" type="curve"/>
    </contour>
  </outline>
</glyph>
<glyph name="bracketleft" format="2">
  <advance width="309.145"/>
  <unicode hex="005B"/>
  <outline>
    <contour>
      <point x="141" y="742" type="curve"/>
      <point x="-37" y="-268" type="line"/>
      <point x="29" y="-265"/>
      <point x="133" y="-265"/>
      <point x="190" y="-268" type="curve"/>
      <point x="199" y="-241"/>
      <point x="202" y="-212"/>
      <point x="197" y="-184" type="curve"/>
      <point x="120" y="-180"/>
      <point x="108" y="-165"/>
      <point x="120" y="-96" type="curve" smooth="yes"/>
      <point x="239" y="575" type="line" smooth="yes"/>
      <point x="250" y="640"/>
      <point x="268" y="652"/>
      <point x="356" y="659" type="curve"/>
      <point x="364" y="688"/>
      <point x="366" y="717"/>
      <point x="358" y="742" type="curve"/>
      <point x="287" y="739"/>
      <point x="213" y="739"/>
    </contour>
  </outline>
</glyph>
<glyph name="backslash" format="2">
  <advance width="305"/>
  <unicode hex="005C"/>
  <guideline x="48.3" y="241.677" angle="79"/>
  <outline>
    <contour>
      <point x="94" y="702" type="curve"/>
      <point x="126" y="474"/>
      <point x="154" y="219"/>
      <point x="172" y="-9" type="curve"/>
      <point x="203" y="-15"/>
      <point x="237" y="-11"/>
      <point x="260" y="0" type="curve"/>
      <point x="180" y="713" type="line"/>
      <point x="151" y="720"/>
      <point x="119" y="716"/>
    </contour>
  </outline>
</glyph>
<glyph name="bracketright" format="2">
  <advance width="307.591"/>
  <unicode hex="005D"/>
  <outline>
    <contour>
      <point x="170" y="-269" type="curve"/>
      <point x="348" y="742" type="line"/>
      <point x="266" y="740"/>
      <point x="200" y="740"/>
      <point x="130" y="742" type="curve"/>
      <point x="116" y="722"/>
      <point x="108" y="689"/>
      <point x="108" y="659" type="curve"/>
      <point x="194" y="652"/>
      <point x="203" y="640"/>
      <point x="192" y="575" type="curve" smooth="yes"/>
      <point x="73" y="-96" type="line" smooth="yes"/>
      <point x="61" y="-165"/>
      <point x="41" y="-180"/>
      <point x="-38" y="-184" type="curve"/>
      <point x="-53" y="-207"/>
      <point x="-59" y="-243"/>
      <point x="-58" y="-269" type="curve"/>
      <point x="9" y="-265"/>
      <point x="101" y="-265"/>
    </contour>
  </outline>
</glyph>
<glyph name="asciicircum" format="2">
  <advance width="460"/>
  <unicode hex="005E"/>
  <outline>
    <contour>
      <point x="283" y="692" type="curve"/>
      <point x="59" y="428" type="line"/>
      <point x="68" y="403"/>
      <point x="89" y="386"/>
      <point x="120" y="383" type="curve"/>
      <point x="173" y="451"/>
      <point x="243" y="535"/>
      <point x="310" y="613" type="curve"/>
      <point x="395" y="394" type="line"/>
      <point x="418" y="389"/>
      <point x="459" y="397"/>
      <point x="474" y="407" type="curve"/>
      <point x="438" y="491"/>
      <point x="389" y="613"/>
      <point x="360" y="696" type="curve"/>
      <point x="338" y="702"/>
      <point x="303" y="701"/>
    </contour>
  </outline>
</glyph>
<glyph name="a" format="2">
  <advance width="624.993"/>
  <unicode hex="0061"/>
  <anchor x="272" y="0" name="bottom"/>
  <anchor x="558" y="16" name="ogonek"/>
  <anchor x="363" y="458" name="top"/>
  <outline>
    <contour>
      <point x="558" y="467" type="curve"/>
      <point x="489" y="451"/>
      <point x="416" y="446"/>
      <point x="327" y="446" type="curve"/>
      <point x="404" y="389" type="line"/>
      <point x="373" y="195" type="line"/>
      <point x="359" y="157"/>
      <point x="354" y="139"/>
      <point x="350" y="110" type="curve" smooth="yes"/>
      <point x="341" y="46"/>
      <point x="364" y="-9"/>
      <point x="450" y="-9" type="curve" smooth="yes"/>
      <point x="512" y="-9"/>
      <point x="562" y="9"/>
      <point x="606" y="52" type="curve"/>
      <point x="603" y="75"/>
      <point x="587" y="105"/>
      <point x="574" y="118" type="curve"/>
      <point x="560" y="107"/>
      <point x="552" y="104"/>
      <point x="543" y="104" type="curve" smooth="yes"/>
      <point x="526" y="104"/>
      <point x="523" y="116"/>
      <point x="539" y="184" type="curve" smooth="yes"/>
      <point x="584" y="379" type="line" smooth="yes"/>
      <point x="593" y="420"/>
      <point x="586" y="445"/>
    </contour>
    <component base="bauch.comp" xOffset="-35"/>
  </outline>
</glyph>
<glyph name="b" format="2">
  <advance width="622.819"/>
  <unicode hex="0062"/>
  <outline>
    <contour>
      <point x="311" y="710" type="curve"/>
      <point x="245" y="684"/>
      <point x="165" y="671"/>
      <point x="83" y="669" type="curve"/>
      <point x="74" y="646"/>
      <point x="70" y="618"/>
      <point x="70" y="594" type="curve"/>
      <point x="134" y="594"/>
      <point x="135" y="577"/>
      <point x="123" y="506" type="curve" smooth="yes"/>
      <point x="72" y="217" type="line"/>
      <point x="59" y="142"/>
      <point x="44" y="108"/>
      <point x="26" y="80" type="curve"/>
      <point x="82" y="23"/>
      <point x="172" y="-9"/>
      <point x="288" y="-9" type="curve"/>
      <point x="215" y="70" type="line"/>
      <point x="253" y="271" type="line"/>
      <point x="283" y="349"/>
      <point x="299" y="409"/>
      <point x="337" y="622" type="curve" smooth="yes"/>
      <point x="346" y="673"/>
      <point x="337" y="686"/>
    </contour>
    <component base="bauch.comp" xScale="-1" yScale="-1" xOffset="657" yOffset="458"/>
  </outline>
</glyph>
<glyph name="c" format="2">
  <advance width="473"/>
  <unicode hex="0063"/>
  <anchor x="250" y="0" name="bottom"/>
  <anchor x="251" y="229" name="center"/>
  <anchor x="325" y="458" name="top"/>
  <outline>
    <contour>
      <point x="227" y="-9" type="curve" smooth="yes"/>
      <point x="320" y="-9"/>
      <point x="376" y="5"/>
      <point x="437" y="47" type="curve"/>
      <point x="439" y="80"/>
      <point x="435" y="104"/>
      <point x="420" y="129" type="curve"/>
      <point x="392" y="114"/>
      <point x="352" y="98"/>
      <point x="308" y="98" type="curve" smooth="yes"/>
      <point x="222" y="98"/>
      <point x="217" y="174"/>
      <point x="237" y="271" type="curve" smooth="yes"/>
      <point x="253" y="359"/>
      <point x="289" y="391"/>
      <point x="322" y="391" type="curve" smooth="yes"/>
      <point x="358" y="391"/>
      <point x="367" y="358"/>
      <point x="364" y="316" type="curve"/>
      <point x="395" y="310"/>
      <point x="423" y="312"/>
      <point x="451" y="322" type="curve"/>
      <point x="451" y="356"/>
      <point x="458" y="393"/>
      <point x="471" y="431" type="curve"/>
      <point x="442" y="451"/>
      <point x="388" y="467"/>
      <point x="332" y="467" type="curve" smooth="yes"/>
      <point x="122" y="467"/>
      <point x="50" y="332"/>
      <point x="31" y="234" type="curve" smooth="yes"/>
      <point x="7" y="106"/>
      <point x="45" y="-9"/>
    </contour>
  </outline>
</glyph>
<glyph name="d" format="2">
  <advance width="619.993"/>
  <unicode hex="0064"/>
  <anchor x="265" y="0" name="bottom"/>
  <anchor x="473" y="533" name="center"/>
  <anchor x="379" y="708" name="top"/>
  <anchor x="602" y="458" name="topright"/>
  <outline>
    <contour>
      <point x="452" y="-9" type="curve" smooth="yes"/>
      <point x="506" y="-9"/>
      <point x="560" y="11"/>
      <point x="601" y="52" type="curve"/>
      <point x="598" y="75"/>
      <point x="582" y="105"/>
      <point x="569" y="118" type="curve"/>
      <point x="552" y="107"/>
      <point x="544" y="104"/>
      <point x="536" y="104" type="curve" smooth="yes"/>
      <point x="522" y="104"/>
      <point x="520" y="112"/>
      <point x="532" y="182" type="curve"/>
      <point x="610" y="622" type="line"/>
      <point x="619" y="673"/>
      <point x="610" y="686"/>
      <point x="584" y="710" type="curve"/>
      <point x="518" y="684"/>
      <point x="438" y="671"/>
      <point x="356" y="669" type="curve"/>
      <point x="347" y="646"/>
      <point x="343" y="618"/>
      <point x="343" y="594" type="curve"/>
      <point x="408" y="594"/>
      <point x="407" y="578"/>
      <point x="396" y="506" type="curve" smooth="yes"/>
      <point x="391" y="473"/>
      <point x="390" y="416"/>
      <point x="404" y="385" type="curve"/>
      <point x="379" y="208" type="line"/>
      <point x="365" y="167"/>
      <point x="354" y="134"/>
      <point x="350" y="107" type="curve" smooth="yes"/>
      <point x="342" y="54"/>
      <point x="357" y="-9"/>
    </contour>
    <component base="bauch.comp" xOffset="-35"/>
  </outline>
</glyph>
<glyph name="g" format="2">
  <advance width="590.986"/>
  <unicode hex="0067"/>
  <guideline x="311" y="-19" angle="79"/>
  <anchor x="197" y="-248" name="bottom"/>
  <anchor x="388" y="-42" name="center"/>
  <anchor x="335" y="458" name="top"/>
  <outline>
    <contour>
      <point x="177" y="-248" type="curve" smooth="yes"/>
      <point x="396" y="-248"/>
      <point x="492" y="-78"/>
      <point x="529" y="119" type="curve" smooth="yes"/>
      <point x="575" y="381" type="line" smooth="yes"/>
      <point x="582" y="422"/>
      <point x="576" y="445"/>
      <point x="548" y="467" type="curve"/>
      <point x="508" y="454"/>
      <point x="450" y="446"/>
      <point x="327" y="446" type="curve"/>
      <point x="404" y="389" type="line"/>
      <point x="372" y="191" type="line"/>
      <point x="363" y="167" type="line"/>
      <point x="333" y="88"/>
      <point x="319" y="36"/>
      <point x="311" y="-19" type="curve" smooth="yes"/>
      <point x="298" y="-106"/>
      <point x="293" y="-127"/>
      <point x="220" y="-127" type="curve" smooth="yes"/>
      <point x="167" y="-127"/>
      <point x="86" y="-116"/>
      <point x="33" y="-95" type="curve"/>
      <point x="19" y="-123"/>
      <point x="10" y="-168"/>
      <point x="10" y="-194" type="curve"/>
      <point x="54" y="-229"/>
      <point x="97" y="-248"/>
    </contour>
    <component base="bauch.comp" xOffset="-35"/>
  </outline>
</glyph>
<glyph name="k" format="2">
  <advance width="611"/>
  <unicode hex="006B"/>
  <anchor x="261" y="0" name="bottom"/>
  <anchor x="382" y="676" name="top"/>
  <outline>
    <contour>
      <point x="34" y="0" type="line"/>
      <point x="227" y="0" type="line"/>
      <point x="253" y="129" type="line" smooth="yes"/>
      <point x="259" y="158"/>
      <point x="261" y="177"/>
      <point x="258" y="206" type="curve"/>
      <point x="280" y="296"/>
      <point x="342" y="349"/>
      <point x="382" y="349" type="curve" smooth="yes"/>
      <point x="413" y="349"/>
      <point x="426" y="329"/>
      <point x="421" y="302" type="curve" smooth="yes"/>
      <point x="412" y="251"/>
      <point x="362" y="228"/>
      <point x="243" y="207" type="curve"/>
      <point x="187" y="189" type="line"/>
      <point x="320" y="175" type="line"/>
      <point x="490" y="224"/>
      <point x="582" y="259"/>
      <point x="597" y="354" type="curve" smooth="yes"/>
      <point x="609" y="430"/>
      <point x="561" y="467"/>
      <point x="492" y="467" type="curve" smooth="yes"/>
      <point x="394" y="467"/>
      <point x="307" y="396"/>
      <point x="261" y="306" type="curve"/>
      <point x="260" y="306" type="line"/>
      <point x="303" y="434"/>
      <point x="309" y="464"/>
      <point x="337" y="622" type="curve" smooth="yes"/>
      <point x="345" y="667"/>
      <point x="344" y="682"/>
      <point x="311" y="710" type="curve"/>
      <point x="245" y="684"/>
      <point x="165" y="671"/>
      <point x="83" y="669" type="curve"/>
      <point x="74" y="646"/>
      <point x="70" y="618"/>
      <point x="70" y="594" type="curve"/>
      <point x="134" y="594"/>
      <point x="135" y="577"/>
      <point x="123" y="506" type="curve" smooth="yes"/>
    </contour>
    <contour>
      <point x="427" y="-9" type="curve" smooth="yes"/>
      <point x="483" y="-9"/>
      <point x="533" y="9"/>
      <point x="577" y="52" type="curve"/>
      <point x="576" y="75"/>
      <point x="560" y="104"/>
      <point x="545" y="118" type="curve"/>
      <point x="538" y="113"/>
      <point x="530" y="110"/>
      <point x="522" y="110" type="curve" smooth="yes"/>
      <point x="503" y="110"/>
      <point x="496" y="123"/>
      <point x="481" y="150" type="curve" smooth="yes"/>
      <point x="459" y="190"/>
      <point x="450" y="200"/>
      <point x="409" y="240" type="curve"/>
      <point x="246" y="181" type="line"/>
      <point x="276" y="140"/>
      <point x="281" y="128"/>
      <point x="305" y="72" type="curve" smooth="yes"/>
      <point x="326" y="22"/>
      <point x="352" y="-9"/>
    </contour>
  </outline>
</glyph>
<glyph name="l" format="2">
  <advance width="348"/>
  <unicode hex="006C"/>
  <anchor x="193" y="0" name="bottom"/>
  <anchor x="190" y="346" name="center"/>
  <anchor x="257" y="678" name="top"/>
  <anchor x="341" y="458" name="topright"/>
  <outline>
    <contour>
      <point x="166" y="-9" type="curve" smooth="yes"/>
      <point x="225" y="-9"/>
      <point x="285" y="9"/>
      <point x="329" y="52" type="curve"/>
      <point x="326" y="75"/>
      <point x="310" y="105"/>
      <point x="297" y="118" type="curve"/>
      <point x="280" y="107"/>
      <point x="272" y="104"/>
      <point x="263" y="104" type="curve" smooth="yes"/>
      <point x="249" y="104"/>
      <point x="243" y="115"/>
      <point x="256" y="184" type="curve" smooth="yes"/>
      <point x="284" y="330"/>
      <point x="311" y="476"/>
      <point x="337" y="622" type="curve" smooth="yes"/>
      <point x="346" y="673"/>
      <point x="337" y="686"/>
      <point x="311" y="710" type="curve"/>
      <point x="245" y="684"/>
      <point x="165" y="671"/>
      <point x="83" y="669" type="curve"/>
      <point x="74" y="646"/>
      <point x="70" y="618"/>
      <point x="70" y="594" type="curve"/>
      <point x="134" y="594"/>
      <point x="136" y="577"/>
      <point x="123" y="506" type="curve" smooth="yes"/>
      <point x="60" y="175"/>
      <point x="53" y="130"/>
      <point x="53" y="93" type="curve" smooth="yes"/>
      <point x="53" y="35"/>
      <point x="78" y="-9"/>
    </contour>
  </outline>
</glyph>
<glyph name="n" format="2">
  <advance width="668"/>
  <unicode hex="006E"/>
  <anchor x="338" y="0" name="bottom"/>
  <anchor x="649" y="52" name="bottomright"/>
  <anchor x="588" y="230" name="right"/>
  <anchor x="348" y="458" name="top"/>
  <outline>
    <contour>
      <point x="33" y="0" type="line"/>
      <point x="226" y="0" type="line"/>
      <point x="235" y="50" type="line"/>
      <point x="264" y="278" type="line"/>
      <point x="287" y="329"/>
      <point x="296" y="359"/>
      <point x="302" y="402" type="curve" smooth="yes"/>
      <point x="306" y="430"/>
      <point x="297" y="453"/>
      <point x="271" y="467" type="curve"/>
      <point x="205" y="441"/>
      <point x="125" y="428"/>
      <point x="43" y="426" type="curve"/>
      <point x="34" y="404"/>
      <point x="30" y="375"/>
      <point x="30" y="351" type="curve"/>
      <point x="94" y="351"/>
      <point x="95" y="334"/>
      <point x="82" y="262" type="curve" smooth="yes"/>
    </contour>
    <component base="schulter.comp" xOffset="5"/>
  </outline>
</glyph>
<glyph name="o" format="2">
  <advance width="610"/>
  <unicode hex="006F"/>
  <guideline x="-62" y="234" angle="0"/>
  <guideline x="289" y="150" angle="79"/>
  <anchor x="260" y="0" name="bottom"/>
  <anchor x="306" y="233" name="center"/>
  <anchor x="361" y="0" name="ogonek"/>
  <anchor x="340" y="458" name="top"/>
  <anchor x="567" y="458" name="topright"/>
  <outline>
    <contour>
      <point x="271" y="-9" type="curve" smooth="yes"/>
      <point x="444" y="-9"/>
      <point x="556" y="77"/>
      <point x="578" y="227" type="curve" smooth="yes"/>
      <point x="600" y="374"/>
      <point x="513" y="467"/>
      <point x="338" y="467" type="curve" smooth="yes"/>
      <point x="165" y="467"/>
      <point x="53" y="381"/>
      <point x="31" y="230" type="curve" smooth="yes"/>
      <point x="9" y="88"/>
      <point x="91" y="-9"/>
    </contour>
    <contour>
      <point x="282" y="63" type="curve" smooth="yes"/>
      <point x="237" y="63"/>
      <point x="215" y="124"/>
      <point x="232" y="238" type="curve" smooth="yes"/>
      <point x="246" y="332"/>
      <point x="278" y="395"/>
      <point x="325" y="395" type="curve" smooth="yes"/>
      <point x="374" y="395"/>
      <point x="394" y="326"/>
      <point x="379" y="224" type="curve" smooth="yes"/>
      <point x="363" y="116"/>
      <point x="324" y="63"/>
    </contour>
  </outline>
</glyph>
<glyph name="p" format="2">
  <advance width="621"/>
  <unicode hex="0070"/>
  <anchor x="265" y="0" name="bottom"/>
  <anchor x="90" y="-104" name="center"/>
  <anchor x="355" y="458" name="top"/>
  <outline>
    <contour>
      <point x="-6" y="-243" type="line"/>
      <point x="187" y="-243" type="line"/>
      <point x="200" y="-170" type="line" smooth="yes"/>
      <point x="217" y="-76"/>
      <point x="224" y="-12"/>
      <point x="214" y="21" type="curve"/>
      <point x="241" y="235" type="line"/>
      <point x="251" y="271" type="line"/>
      <point x="261" y="300"/>
      <point x="278" y="364"/>
      <point x="282" y="392" type="curve" smooth="yes"/>
      <point x="287" y="425"/>
      <point x="280" y="444"/>
      <point x="256" y="467" type="curve"/>
      <point x="190" y="441"/>
      <point x="125" y="428"/>
      <point x="43" y="426" type="curve"/>
      <point x="34" y="403"/>
      <point x="30" y="375"/>
      <point x="30" y="351" type="curve"/>
      <point x="94" y="351"/>
      <point x="95" y="334"/>
      <point x="83" y="263" type="curve" smooth="yes"/>
    </contour>
    <contour>
      <point x="161" y="11" type="line"/>
      <point x="194" y="-1"/>
      <point x="234" y="-9"/>
      <point x="286" y="-9" type="curve" smooth="yes"/>
      <point x="477" y="-9"/>
      <point x="564" y="99"/>
      <point x="589" y="226" type="curve" smooth="yes"/>
      <point x="608" y="323"/>
      <point x="598" y="467"/>
      <point x="456" y="467" type="curve" smooth="yes"/>
      <point x="365" y="467"/>
      <point x="301" y="409"/>
      <point x="253" y="271" type="curve"/>
      <point x="238" y="271" type="line"/>
      <point x="195" y="49" type="line"/>
      <point x="224" y="42" type="line"/>
      <point x="243" y="122" type="line" smooth="yes"/>
      <point x="275" y="287"/>
      <point x="327" y="334"/>
      <point x="361" y="334" type="curve" smooth="yes"/>
      <point x="394" y="334"/>
      <point x="404" y="288"/>
      <point x="384" y="194" type="curve" smooth="yes"/>
      <point x="368" y="120"/>
      <point x="344" y="65"/>
      <point x="292" y="65" type="curve" smooth="yes"/>
      <point x="276" y="65"/>
      <point x="244" y="70"/>
      <point x="229" y="77" type="curve"/>
    </contour>
  </outline>
</glyph>
<glyph name="q" format="2">
  <advance width="607.629"/>
  <unicode hex="0071"/>
  <outline>
    <contour>
      <point x="407" y="388" type="line"/>
      <point x="380" y="234" type="line"/>
      <point x="372" y="192" type="line"/>
      <point x="350" y="132"/>
      <point x="328" y="80"/>
      <point x="317" y="17" type="curve" smooth="yes"/>
      <point x="272" y="-242" type="line"/>
      <point x="465" y="-242" type="line"/>
      <point x="550" y="241" type="line"/>
      <point x="563" y="316"/>
      <point x="578" y="350"/>
      <point x="596" y="378" type="curve"/>
      <point x="540" y="435"/>
      <point x="449" y="467"/>
      <point x="323" y="467" type="curve"/>
    </contour>
    <component base="bauch.comp" xOffset="-35"/>
  </outline>
</glyph>
<glyph name="r" format="2">
  <advance width="504"/>
  <unicode hex="0072"/>
  <anchor x="143" y="0" name="bottom"/>
  <anchor x="333" y="458" name="top"/>
  <outline>
    <contour>
      <point x="251" y="467" type="curve"/>
      <point x="185" y="441"/>
      <point x="125" y="429"/>
      <point x="43" y="426" type="curve"/>
      <point x="34" y="404"/>
      <point x="30" y="375"/>
      <point x="30" y="351" type="curve"/>
      <point x="94" y="351"/>
      <point x="95" y="334"/>
      <point x="82" y="262" type="curve" smooth="yes"/>
      <point x="33" y="0" type="line"/>
      <point x="226" y="0" type="line"/>
      <point x="235" y="50" type="line" smooth="yes"/>
      <point x="250" y="132"/>
      <point x="268" y="199"/>
      <point x="296" y="241" type="curve" smooth="yes"/>
      <point x="312" y="265"/>
      <point x="328" y="275"/>
      <point x="343" y="275" type="curve" smooth="yes"/>
      <point x="364" y="275"/>
      <point x="379" y="254"/>
      <point x="374" y="232" type="curve"/>
      <point x="411" y="229"/>
      <point x="452" y="235"/>
      <point x="482" y="249" type="curve"/>
      <point x="483" y="314"/>
      <point x="498" y="397"/>
      <point x="519" y="455" type="curve"/>
      <point x="504" y="463"/>
      <point x="485" y="467"/>
      <point x="465" y="467" type="curve" smooth="yes"/>
      <point x="383" y="467"/>
      <point x="304" y="399"/>
      <point x="265" y="311" type="curve" smooth="yes"/>
      <point x="236" y="246" type="line"/>
      <point x="235" y="246" type="line"/>
      <point x="257" y="294"/>
      <point x="275" y="357"/>
      <point x="280" y="392" type="curve" smooth="yes"/>
      <point x="285" y="428"/>
      <point x="280" y="451"/>
    </contour>
  </outline>
</glyph>
<glyph name="s" format="2">
  <advance width="478"/>
  <unicode hex="0073"/>
  <anchor x="192" y="0" name="bottom"/>
  <anchor x="292" y="458" name="top"/>
  <outline>
    <contour>
      <point x="294" y="467" type="curve" smooth="yes"/>
      <point x="163" y="467"/>
      <point x="69" y="446"/>
      <point x="51" y="352" type="curve" smooth="yes"/>
      <point x="23" y="203"/>
      <point x="240" y="161"/>
      <point x="225" y="93" type="curve" smooth="yes"/>
      <point x="222" y="79"/>
      <point x="211" y="69"/>
      <point x="188" y="69" type="curve" smooth="yes"/>
      <point x="143" y="69"/>
      <point x="120" y="104"/>
      <point x="119" y="177" type="curve"/>
      <point x="80" y="181"/>
      <point x="44" y="178"/>
      <point x="14" y="168" type="curve"/>
      <point x="13" y="115"/>
      <point x="5" y="70"/>
      <point x="-10" y="31" type="curve"/>
      <point x="30" y="5"/>
      <point x="95" y="-9"/>
      <point x="181" y="-9" type="curve" smooth="yes"/>
      <point x="340" y="-9"/>
      <point x="411" y="13"/>
      <point x="428" y="103" type="curve" smooth="yes"/>
      <point x="456" y="250"/>
      <point x="229" y="282"/>
      <point x="246" y="368" type="curve" smooth="yes"/>
      <point x="250" y="390"/>
      <point x="265" y="395"/>
      <point x="283" y="395" type="curve" smooth="yes"/>
      <point x="328" y="395"/>
      <point x="349" y="346"/>
      <point x="352" y="278" type="curve"/>
      <point x="386" y="274"/>
      <point x="423" y="277"/>
      <point x="454" y="291" type="curve"/>
      <point x="455" y="346"/>
      <point x="461" y="390"/>
      <point x="473" y="430" type="curve"/>
      <point x="430" y="451"/>
      <point x="357" y="467"/>
    </contour>
  </outline>
</glyph>
<glyph name="t" format="2">
  <advance width="398"/>
  <unicode hex="0074"/>
  <anchor x="193" y="0" name="bottom"/>
  <anchor x="188" y="249" name="center"/>
  <anchor x="250" y="597" name="top"/>
  <anchor x="400" y="458" name="topright"/>
  <outline>
    <contour>
      <point x="194" y="-9" type="curve" smooth="yes"/>
      <point x="252" y="-9"/>
      <point x="329" y="17"/>
      <point x="360" y="53" type="curve"/>
      <point x="358" y="78"/>
      <point x="347" y="108"/>
      <point x="334" y="127" type="curve"/>
      <point x="320" y="113"/>
      <point x="302" y="106"/>
      <point x="288" y="106" type="curve" smooth="yes"/>
      <point x="258" y="106"/>
      <point x="244" y="127"/>
      <point x="271" y="243" type="curve" smooth="yes"/>
      <point x="321" y="458" type="line" smooth="yes"/>
      <point x="340" y="538"/>
      <point x="351" y="608"/>
      <point x="300" y="620" type="curve"/>
      <point x="266" y="603"/>
      <point x="204" y="587"/>
      <point x="150" y="582" type="curve"/>
      <point x="148" y="554"/>
      <point x="142" y="518"/>
      <point x="128" y="458" type="curve" smooth="yes"/>
      <point x="73" y="231" type="line" smooth="yes"/>
      <point x="39" y="90"/>
      <point x="68" y="-9"/>
    </contour>
    <contour>
      <point x="136" y="348" type="curve"/>
      <point x="136" y="448" type="line"/>
      <point x="49" y="448" type="line"/>
      <point x="38" y="429"/>
      <point x="35" y="397"/>
      <point x="35" y="369" type="curve"/>
      <point x="59" y="369"/>
      <point x="94" y="364"/>
    </contour>
    <contour>
      <point x="288" y="349" type="line"/>
      <point x="328" y="362"/>
      <point x="358" y="365"/>
      <point x="397" y="365" type="curve"/>
      <point x="405" y="382"/>
      <point x="407" y="416"/>
      <point x="407" y="448" type="curve"/>
      <point x="288" y="448" type="line"/>
    </contour>
  </outline>
</glyph>
<glyph name="w" format="2">
  <advance width="834.015"/>
  <unicode hex="0077"/>
  <anchor x="436" y="458" name="top"/>
  <outline>
    <contour>
      <point x="203" y="467" type="curve"/>
      <point x="162" y="451"/>
      <point x="69" y="430"/>
      <point x="16" y="426" type="curve"/>
      <point x="8" y="404"/>
      <point x="4" y="379"/>
      <point x="4" y="350" type="curve"/>
      <point x="56" y="353"/>
      <point x="73" y="338"/>
      <point x="87" y="292" type="curve" smooth="yes"/>
      <point x="107" y="228"/>
      <point x="131" y="131"/>
      <point x="153" y="11" type="curve"/>
      <point x="174" y="-3"/>
      <point x="215" y="-9"/>
      <point x="246" y="-9" type="curve"/>
      <point x="366" y="69"/>
      <point x="433" y="162"/>
      <point x="433" y="272" type="curve"/>
      <point x="403" y="233" type="line"/>
      <point x="435" y="149"/>
      <point x="448" y="92"/>
      <point x="460" y="11" type="curve"/>
      <point x="481" y="-3"/>
      <point x="519" y="-9"/>
      <point x="550" y="-9" type="curve"/>
      <point x="748" y="141"/>
      <point x="825" y="256"/>
      <point x="825" y="351" type="curve" smooth="yes"/>
      <point x="825" y="425"/>
      <point x="801" y="455"/>
      <point x="763" y="467" type="curve"/>
      <point x="722" y="451"/>
      <point x="632" y="430"/>
      <point x="579" y="426" type="curve"/>
      <point x="571" y="404"/>
      <point x="570" y="379"/>
      <point x="570" y="350" type="curve"/>
      <point x="622" y="353"/>
      <point x="654" y="326"/>
      <point x="654" y="266" type="curve" smooth="yes"/>
      <point x="654" y="222"/>
      <point x="633" y="172"/>
      <point x="567" y="107" type="curve"/>
      <point x="601" y="70" type="line"/>
      <point x="580" y="181"/>
      <point x="552" y="293"/>
      <point x="512" y="411" type="curve" smooth="yes"/>
      <point x="498" y="448"/>
      <point x="489" y="459"/>
      <point x="463" y="467" type="curve"/>
      <point x="427" y="447"/>
      <point x="388" y="434"/>
      <point x="338" y="426" type="curve"/>
      <point x="381" y="278"/>
      <point x="377" y="210"/>
      <point x="289" y="107" type="curve"/>
      <point x="320" y="70" type="line"/>
      <point x="305" y="181"/>
      <point x="283" y="293"/>
      <point x="249" y="411" type="curve" smooth="yes"/>
      <point x="238" y="448"/>
      <point x="229" y="459"/>
    </contour>
  </outline>
</glyph>
<glyph name="y" format="2">
  <advance width="565"/>
  <unicode hex="0079"/>
  <anchor x="397" y="0" name="bottom"/>
  <anchor x="312" y="458" name="top"/>
  <outline>
    <contour>
      <point x="205" y="467" type="curve"/>
      <point x="164" y="451"/>
      <point x="71" y="430"/>
      <point x="18" y="426" type="curve"/>
      <point x="10" y="404"/>
      <point x="6" y="379"/>
      <point x="6" y="350" type="curve"/>
      <point x="58" y="353"/>
      <point x="75" y="338"/>
      <point x="89" y="292" type="curve" smooth="yes"/>
      <point x="126" y="172"/>
      <point x="148" y="68"/>
      <point x="167" y="-81" type="curve"/>
      <point x="312" y="62" type="line"/>
      <point x="303" y="175"/>
      <point x="285" y="293"/>
      <point x="251" y="411" type="curve" smooth="yes"/>
      <point x="240" y="448"/>
      <point x="231" y="459"/>
    </contour>
    <contour>
      <point x="505" y="467" type="curve"/>
      <point x="464" y="451"/>
      <point x="371" y="430"/>
      <point x="318" y="426" type="curve"/>
      <point x="310" y="404"/>
      <point x="306" y="379"/>
      <point x="306" y="350" type="curve"/>
      <point x="358" y="353"/>
      <point x="387" y="326"/>
      <point x="387" y="281" type="curve" smooth="yes"/>
      <point x="387" y="232"/>
      <point x="369" y="187"/>
      <point x="260" y="51" type="curve" smooth="yes"/>
      <point x="145" y="-92"/>
      <point x="102" y="-117"/>
      <point x="3" y="-117" type="curve" smooth="yes"/>
      <point x="-35" y="-117"/>
      <point x="-72" y="-111"/>
      <point x="-104" y="-95" type="curve"/>
      <point x="-118" y="-123"/>
      <point x="-127" y="-168"/>
      <point x="-127" y="-199" type="curve"/>
      <point x="-97" y="-234"/>
      <point x="-59" y="-248"/>
      <point x="-11" y="-248" type="curve" smooth="yes"/>
      <point x="82" y="-248"/>
      <point x="135" y="-208"/>
      <point x="352" y="43" type="curve" smooth="yes"/>
      <point x="543" y="263"/>
      <point x="561" y="316"/>
      <point x="561" y="375" type="curve" smooth="yes"/>
      <point x="561" y="425"/>
      <point x="543" y="455"/>
    </contour>
  </outline>
</glyph>
<glyph name="z" format="2">
  <advance width="460"/>
  <unicode hex="007A"/>
  <anchor x="185" y="0" name="bottom"/>
  <anchor x="269" y="458" name="top"/>
  <outline>
    <contour>
      <point x="2" y="-9" type="curve"/>
      <point x="56" y="-2"/>
      <point x="96" y="0"/>
      <point x="134" y="0" type="curve" smooth="yes"/>
      <point x="214" y="0"/>
      <point x="261" y="-9"/>
      <point x="320" y="-9" type="curve" smooth="yes"/>
      <point x="385" y="-9"/>
      <point x="406" y="2"/>
      <point x="416" y="28" type="curve"/>
      <point x="417" y="76"/>
      <point x="426" y="141"/>
      <point x="444" y="181" type="curve"/>
      <point x="419" y="193"/>
      <point x="382" y="201"/>
      <point x="348" y="201" type="curve"/>
      <point x="332" y="162"/>
      <point x="323" y="145"/>
      <point x="291" y="145" type="curve" smooth="yes"/>
      <point x="265" y="145"/>
      <point x="246" y="157"/>
      <point x="192" y="133" type="curve"/>
      <point x="185" y="123" type="line"/>
      <point x="305" y="215"/>
      <point x="396" y="304"/>
      <point x="463" y="386" type="curve"/>
      <point x="463" y="411"/>
      <point x="455" y="438"/>
      <point x="441" y="458" type="curve"/>
      <point x="400" y="462"/>
      <point x="343" y="464"/>
      <point x="273" y="464" type="curve" smooth="yes"/>
      <point x="202" y="464"/>
      <point x="131" y="462"/>
      <point x="91" y="458" type="curve"/>
      <point x="82" y="390"/>
      <point x="62" y="332"/>
      <point x="30" y="270" type="curve"/>
      <point x="52" y="251"/>
      <point x="95" y="241"/>
      <point x="130" y="241" type="curve"/>
      <point x="157" y="303"/>
      <point x="176" y="313"/>
      <point x="218" y="313" type="curve" smooth="yes"/>
      <point x="232" y="313"/>
      <point x="251" y="312"/>
      <point x="280" y="307" type="curve"/>
      <point x="279" y="314" type="line"/>
      <point x="207" y="237"/>
      <point x="112" y="160"/>
      <point x="-15" y="73" type="curve"/>
      <point x="-20" y="47"/>
      <point x="-13" y="13"/>
    </contour>
  </outline>
</glyph>
<glyph name="braceleft" format="2">
  <advance width="410.371"/>
  <unicode hex="007B"/>
  <outline>
    <contour>
      <point x="447" y="754" type="curve"/>
      <point x="8" y="687"/>
      <point x="323" y="350"/>
      <point x="60" y="289" type="curve"/>
      <point x="48" y="273"/>
      <point x="43" y="247"/>
      <point x="44" y="227" type="curve"/>
      <point x="283" y="129"/>
      <point x="-127" y="-210"/>
      <point x="276" y="-283" type="curve"/>
      <point x="294" y="-264"/>
      <point x="302" y="-238"/>
      <point x="300" y="-213" type="curve"/>
      <point x="97" y="-149"/>
      <point x="470" y="197"/>
      <point x="181" y="259" type="curve"/>
      <point x="494" y="280"/>
      <point x="216" y="625"/>
      <point x="461" y="682" type="curve"/>
      <point x="466" y="706"/>
      <point x="461" y="740"/>
    </contour>
  </outline>
</glyph>
<glyph name="braceright" format="2">
  <advance width="404.058"/>
  <unicode hex="007D"/>
  <outline>
    <contour>
      <point x="145" y="754" type="curve"/>
      <point x="125" y="740"/>
      <point x="113" y="714"/>
      <point x="111" y="690" type="curve"/>
      <point x="300" y="589"/>
      <point x="-76" y="328"/>
      <point x="234" y="256" type="curve"/>
      <point x="-83" y="193"/>
      <point x="200" y="-183"/>
      <point x="-51" y="-208" type="curve"/>
      <point x="-64" y="-233"/>
      <point x="-66" y="-258"/>
      <point x="-52" y="-283" type="curve"/>
      <point x="385" y="-262"/>
      <point x="107" y="143"/>
      <point x="362" y="229" type="curve"/>
      <point x="369" y="247"/>
      <point x="370" y="271"/>
      <point x="362" y="291" type="curve"/>
      <point x="137" y="410"/>
      <point x="501" y="638"/>
    </contour>
  </outline>
</glyph>
<glyph name="exclamdown" format="2">
  <advance width="427"/>
  <unicode hex="00A1"/>
  <outline>
    <contour>
      <point x="33" y="-226"/>
      <point x="44" y="-250"/>
      <point x="74" y="-259" type="curve"/>
      <point x="120" y="-238"/>
      <point x="185" y="-224"/>
      <point x="240" y="-217" type="curve"/>
      <point x="240" y="-81"/>
      <point x="246" y="59"/>
      <point x="259" y="200" type="curve"/>
      <point x="232" y="213"/>
      <point x="194" y="216"/>
      <point x="158" y="213" type="curve"/>
      <point x="124" y="78"/>
      <point x="79" y="-85"/>
      <point x="53" y="-165" type="curve" smooth="yes"/>
    </contour>
    <contour>
      <point x="238" y="467" type="curve" smooth="yes"/>
      <point x="174" y="467"/>
      <point x="140" y="435"/>
      <point x="130" y="383" type="curve" smooth="yes"/>
      <point x="115" y="304"/>
      <point x="169" y="261"/>
      <point x="226" y="261" type="curve" smooth="yes"/>
      <point x="293" y="261"/>
      <point x="331" y="291"/>
      <point x="341" y="344" type="curve" smooth="yes"/>
      <point x="357" y="423"/>
      <point x="312" y="467"/>
    </contour>
  </outline>
</glyph>
<glyph name="brokenbar" format="2">
  <advance width="180"/>
  <unicode hex="00A6"/>
  <outline>
    <contour>
      <point x="-46" y="-245" type="line"/>
      <point x="-15" y="-249"/>
      <point x="20" y="-247"/>
      <point x="45" y="-236" type="curve"/>
      <point x="69" y="-102"/>
      <point x="94" y="34"/>
      <point x="123" y="172" type="curve"/>
      <point x="93" y="179"/>
      <point x="64" y="179"/>
      <point x="34" y="170" type="curve"/>
    </contour>
    <contour>
      <point x="60" y="304" type="line"/>
      <point x="91" y="298"/>
      <point x="120" y="299"/>
      <point x="149" y="309" type="curve"/>
      <point x="172" y="443"/>
      <point x="199" y="579"/>
      <point x="228" y="717" type="curve"/>
      <point x="198" y="721"/>
      <point x="170" y="719"/>
      <point x="138" y="710" type="curve"/>
    </contour>
  </outline>
</glyph>
<glyph name="section" format="2">
  <advance width="533"/>
  <unicode hex="00A7"/>
  <outline>
    <contour>
      <point x="344" y="714" type="curve" smooth="yes"/>
      <point x="247" y="714"/>
      <point x="140" y="662"/>
      <point x="121" y="562" type="curve" smooth="yes"/>
      <point x="76" y="326"/>
      <point x="375" y="300"/>
      <point x="357" y="194" type="curve" smooth="yes"/>
      <point x="351" y="158"/>
      <point x="330" y="143"/>
      <point x="292" y="129" type="curve"/>
      <point x="358" y="75" type="line"/>
      <point x="428" y="100"/>
      <point x="508" y="147"/>
      <point x="526" y="247" type="curve" smooth="yes"/>
      <point x="565" y="462"/>
      <point x="241" y="484"/>
      <point x="264" y="593" type="curve" smooth="yes"/>
      <point x="270" y="622"/>
      <point x="295" y="637"/>
      <point x="324" y="637" type="curve" smooth="yes"/>
      <point x="375" y="637"/>
      <point x="408" y="607"/>
      <point x="407" y="538" type="curve"/>
      <point x="436" y="538"/>
      <point x="468" y="543"/>
      <point x="490" y="550" type="curve"/>
      <point x="489" y="588"/>
      <point x="497" y="647"/>
      <point x="509" y="684" type="curve"/>
      <point x="460" y="707"/>
      <point x="414" y="714"/>
    </contour>
    <contour>
      <point x="9" y="219" type="curve" smooth="yes"/>
      <point x="-30" y="4"/>
      <point x="294" y="-18"/>
      <point x="271" y="-127" type="curve" smooth="yes"/>
      <point x="265" y="-156"/>
      <point x="240" y="-171"/>
      <point x="211" y="-171" type="curve" smooth="yes"/>
      <point x="160" y="-171"/>
      <point x="127" y="-141"/>
      <point x="128" y="-72" type="curve"/>
      <point x="99" y="-72"/>
      <point x="67" y="-77"/>
      <point x="45" y="-84" type="curve"/>
      <point x="46" y="-122"/>
      <point x="38" y="-181"/>
      <point x="26" y="-218" type="curve"/>
      <point x="75" y="-241"/>
      <point x="121" y="-248"/>
      <point x="191" y="-248" type="curve" smooth="yes"/>
      <point x="288" y="-248"/>
      <point x="395" y="-196"/>
      <point x="414" y="-96" type="curve" smooth="yes"/>
      <point x="459" y="140"/>
      <point x="160" y="166"/>
      <point x="178" y="272" type="curve" smooth="yes"/>
      <point x="184" y="308"/>
      <point x="205" y="323"/>
      <point x="243" y="337" type="curve"/>
      <point x="177" y="391" type="line"/>
      <point x="107" y="366"/>
      <point x="27" y="319"/>
    </contour>
  </outline>
</glyph>
<glyph name="copyright" format="2">
  <advance width="747"/>
  <unicode hex="00A9"/>
  <outline>
    <contour>
      <point x="351" y="-117" type="curve" smooth="yes"/>
      <point x="538" y="-117"/>
      <point x="673" y="-11"/>
      <point x="712" y="179" type="curve" smooth="yes"/>
      <point x="759" y="406"/>
      <point x="632" y="577"/>
      <point x="399" y="577" type="curve" smooth="yes"/>
      <point x="220" y="577"/>
      <point x="78" y="477"/>
      <point x="35" y="280" type="curve" smooth="yes"/>
      <point x="-15" y="49"/>
      <point x="116" y="-117"/>
    </contour>
    <contour>
      <point x="357" y="-46" type="curve" smooth="yes"/>
      <point x="158" y="-46"/>
      <point x="64" y="98"/>
      <point x="104" y="278" type="curve" smooth="yes"/>
      <point x="134" y="414"/>
      <point x="232" y="507"/>
      <point x="391" y="507" type="curve" smooth="yes"/>
      <point x="586" y="507"/>
      <point x="683" y="366"/>
      <point x="642" y="182" type="curve" smooth="yes"/>
      <point x="610" y="39"/>
      <point x="510" y="-46"/>
    </contour>
    <contour>
      <point x="334.3" y="18.9" type="curve" smooth="yes"/>
      <point x="418.0" y="18.9"/>
      <point x="468.40000000000003" y="31.5"/>
      <point x="523.3" y="69.30000000000001" type="curve"/>
      <point x="525.1" y="99.0"/>
      <point x="521.5" y="120.60000000000001"/>
      <point x="508.0" y="143.10000000000002" type="curve"/>
      <point x="482.8" y="129.60000000000002"/>
      <point x="446.8" y="115.2"/>
      <point x="407.2" y="115.2" type="curve" smooth="yes"/>
      <point x="329.8" y="115.2"/>
      <point x="325.3" y="183.6"/>
      <point x="343.3" y="270.9" type="curve" smooth="yes"/>
      <point x="357.70000000000005" y="350.1"/>
      <point x="390.1" y="378.90000000000003"/>
      <point x="419.8" y="378.90000000000003" type="curve" smooth="yes"/>
      <point x="452.2" y="378.90000000000003"/>
      <point x="460.3" y="349.2"/>
      <point x="457.6" y="311.40000000000003" type="curve"/>
      <point x="485.5" y="306.0"/>
      <point x="510.7" y="307.8"/>
      <point x="535.9000000000001" y="316.8" type="curve"/>
      <point x="535.9000000000001" y="347.40000000000003"/>
      <point x="542.2" y="380.7"/>
      <point x="553.9000000000001" y="414.90000000000003" type="curve"/>
      <point x="527.8" y="432.90000000000003"/>
      <point x="479.2" y="447.3"/>
      <point x="428.8" y="447.3" type="curve" smooth="yes"/>
      <point x="239.8" y="447.3"/>
      <point x="175.0" y="325.8"/>
      <point x="157.9" y="237.6" type="curve" smooth="yes"/>
      <point x="136.3" y="122.4"/>
      <point x="170.5" y="18.9"/>
    </contour>
  </outline>
</glyph>
<glyph name="registered" format="2">
  <advance width="562"/>
  <unicode hex="00AE"/>
  <outline>
    <contour>
      <point x="351" y="359" type="curve" smooth="yes"/>
      <point x="477" y="359"/>
      <point x="575" y="456"/>
      <point x="575" y="584" type="curve" smooth="yes"/>
      <point x="575" y="712"/>
      <point x="477" y="810"/>
      <point x="350" y="810" type="curve" smooth="yes"/>
      <point x="223" y="810"/>
      <point x="124" y="711"/>
      <point x="124" y="584" type="curve" smooth="yes"/>
      <point x="124" y="456"/>
      <point x="224" y="359"/>
    </contour>
    <contour>
      <point x="368" y="483" type="curve"/>
      <point x="392" y="481"/>
      <point x="413" y="483"/>
      <point x="434" y="489" type="curve"/>
      <point x="423" y="524"/>
      <point x="407" y="556"/>
      <point x="381" y="567" type="curve"/>
      <point x="345" y="551" type="line"/>
      <point x="358" y="532"/>
      <point x="366" y="509"/>
    </contour>
    <contour>
      <point x="350" y="417" type="curve" smooth="yes"/>
      <point x="254" y="417"/>
      <point x="182" y="490"/>
      <point x="182" y="584" type="curve" smooth="yes"/>
      <point x="182" y="679"/>
      <point x="255" y="752"/>
      <point x="350" y="752" type="curve" smooth="yes"/>
      <point x="445" y="752"/>
      <point x="517" y="679"/>
      <point x="517" y="584" type="curve" smooth="yes"/>
      <point x="517" y="490"/>
      <point x="446" y="417"/>
    </contour>
    <contour>
      <point x="258" y="484" type="line"/>
      <point x="276" y="480"/>
      <point x="294" y="480"/>
      <point x="314" y="484" type="curve"/>
      <point x="341" y="651" type="line"/>
      <point x="349" y="654"/>
      <point x="356" y="655"/>
      <point x="362" y="655" type="curve" smooth="yes"/>
      <point x="380" y="655"/>
      <point x="388" y="643"/>
      <point x="383" y="616" type="curve" smooth="yes"/>
      <point x="378" y="590"/>
      <point x="369" y="578"/>
      <point x="352" y="578" type="curve" smooth="yes"/>
      <point x="342" y="578"/>
      <point x="333" y="582"/>
      <point x="318" y="587" type="curve"/>
      <point x="314" y="543" type="line"/>
      <point x="360" y="543" type="line"/>
      <point x="358" y="550" type="line"/>
      <point x="408" y="556"/>
      <point x="438" y="580"/>
      <point x="445" y="624" type="curve" smooth="yes"/>
      <point x="452" y="670"/>
      <point x="427" y="692"/>
      <point x="367" y="692" type="curve" smooth="yes"/>
      <point x="349" y="692"/>
      <point x="319" y="690"/>
      <point x="290" y="682" type="curve"/>
    </contour>
  </outline>
</glyph>
<glyph name="degree" format="2">
  <advance width="418"/>
  <unicode hex="00B0"/>
  <outline>
    <contour>
      <point x="284" y="699" type="curve" smooth="yes"/>
      <point x="196" y="699"/>
      <point x="132" y="661"/>
      <point x="119" y="580" type="curve" smooth="yes"/>
      <point x="102" y="483"/>
      <point x="156" y="415"/>
      <point x="256" y="415" type="curve" smooth="yes"/>
      <point x="350" y="415"/>
      <point x="413" y="458"/>
      <point x="427" y="539" type="curve" smooth="yes"/>
      <point x="444" y="635"/>
      <point x="387" y="699"/>
    </contour>
    <contour>
      <point x="277" y="641" type="curve" smooth="yes"/>
      <point x="312" y="641"/>
      <point x="328" y="600"/>
      <point x="317" y="538" type="curve" smooth="yes"/>
      <point x="311" y="500"/>
      <point x="289" y="475"/>
      <point x="263" y="475" type="curve" smooth="yes"/>
      <point x="231" y="475"/>
      <point x="218" y="520"/>
      <point x="230" y="587" type="curve" smooth="yes"/>
      <point x="235" y="619"/>
      <point x="254" y="641"/>
    </contour>
  </outline>
</glyph>
<glyph name="ordmasculine" format="2">
  <advance width="515"/>
  <unicode hex="00BA"/>
  <outline>
    <contour>
      <point x="344" y="717" type="curve" smooth="yes"/>
      <point x="205" y="717"/>
      <point x="136" y="663"/>
      <point x="116" y="564" type="curve" smooth="yes"/>
      <point x="91" y="438"/>
      <point x="157" y="357"/>
      <point x="284" y="357" type="curve" smooth="yes"/>
      <point x="423" y="357"/>
      <point x="502" y="413"/>
      <point x="521" y="525" type="curve" smooth="yes"/>
      <point x="542" y="645"/>
      <point x="472" y="717"/>
    </contour>
    <contour>
      <point x="329" y="647" type="curve" smooth="yes"/>
      <point x="355" y="647"/>
      <point x="377" y="607"/>
      <point x="364" y="528" type="curve" smooth="yes"/>
      <point x="353" y="472"/>
      <point x="333" y="433"/>
      <point x="302" y="433" type="curve" smooth="yes"/>
      <point x="267" y="433"/>
      <point x="258" y="491"/>
      <point x="268" y="553" type="curve" smooth="yes"/>
      <point x="278" y="607"/>
      <point x="297" y="647"/>
    </contour>
  </outline>
</glyph>
<glyph name="guillemetright" format="2">
  <advance width="504"/>
  <unicode hex="00BB"/>
  <outline>
    <contour>
      <point x="338" y="412" type="curve"/>
      <point x="313" y="412"/>
      <point x="291" y="406"/>
      <point x="264" y="388" type="curve"/>
      <point x="293" y="333"/>
      <point x="315" y="283"/>
      <point x="333" y="232" type="curve"/>
      <point x="302" y="195"/>
      <point x="257" y="150"/>
      <point x="216" y="113" type="curve"/>
      <point x="226" y="86"/>
      <point x="242" y="68"/>
      <point x="267" y="53" type="curve"/>
      <point x="324" y="104"/>
      <point x="386" y="155"/>
      <point x="454" y="206" type="curve"/>
      <point x="462" y="234"/>
      <point x="463" y="269"/>
      <point x="454" y="297" type="curve"/>
      <point x="411" y="334"/>
      <point x="364" y="381"/>
    </contour>
    <contour>
      <point x="140" y="402" type="curve"/>
      <point x="115" y="402"/>
      <point x="93" y="396"/>
      <point x="66" y="378" type="curve"/>
      <point x="92" y="325"/>
      <point x="110" y="277"/>
      <point x="122" y="232" type="curve"/>
      <point x="95" y="195"/>
      <point x="60" y="159"/>
      <point x="20" y="123" type="curve"/>
      <point x="30" y="96"/>
      <point x="46" y="78"/>
      <point x="71" y="63" type="curve"/>
      <point x="126" y="116"/>
      <point x="171" y="155"/>
      <point x="238" y="206" type="curve"/>
      <point x="246" y="234"/>
      <point x="247" y="269"/>
      <point x="238" y="297" type="curve"/>
      <point x="199" y="334"/>
      <point x="165" y="370"/>
    </contour>
  </outline>
</glyph>
<glyph name="questiondown" format="2">
  <advance width="545"/>
  <unicode hex="00BF"/>
  <outline>
    <contour>
      <point x="351" y="-215" type="curve"/>
      <point x="354" y="-167"/>
      <point x="362" y="-127"/>
      <point x="379" y="-72" type="curve"/>
      <point x="353" y="-56"/>
      <point x="326" y="-49"/>
      <point x="282" y="-49" type="curve"/>
      <point x="248" y="-158"/>
      <point x="225" y="-183"/>
      <point x="199" y="-183" type="curve" smooth="yes"/>
      <point x="175" y="-183"/>
      <point x="157" y="-165"/>
      <point x="166" y="-117" type="curve" smooth="yes"/>
      <point x="185" y="-21"/>
      <point x="294" y="-18"/>
      <point x="318" y="106" type="curve" smooth="yes"/>
      <point x="328" y="159"/>
      <point x="312" y="214"/>
      <point x="283" y="234" type="curve"/>
      <point x="253" y="236"/>
      <point x="216" y="229"/>
      <point x="193" y="215" type="curve"/>
      <point x="196" y="193"/>
      <point x="196" y="177"/>
      <point x="193" y="157" type="curve" smooth="yes"/>
      <point x="166" y="22"/>
      <point x="-6" y="20"/>
      <point x="-31" y="-113" type="curve" smooth="yes"/>
      <point x="-49" y="-207"/>
      <point x="24" y="-260"/>
      <point x="171" y="-260" type="curve" smooth="yes"/>
      <point x="232" y="-260"/>
      <point x="297" y="-244"/>
    </contour>
    <contour>
      <point x="271" y="467" type="curve" smooth="yes"/>
      <point x="207" y="467"/>
      <point x="173" y="435"/>
      <point x="163" y="383" type="curve" smooth="yes"/>
      <point x="148" y="304"/>
      <point x="202" y="261"/>
      <point x="259" y="261" type="curve" smooth="yes"/>
      <point x="326" y="261"/>
      <point x="364" y="291"/>
      <point x="374" y="344" type="curve" smooth="yes"/>
      <point x="390" y="423"/>
      <point x="345" y="467"/>
    </contour>
  </outline>
</glyph>
<glyph name="Eth" format="2">
  <advance width="733"/>
  <unicode hex="00D0"/>
  <outline>
    <contour>
      <point x="51.25" y="294" type="curve"/>
      <point x="103.5" y="294"/>
      <point x="153.85" y="297"/>
      <point x="247.89999999999998" y="297" type="curve" smooth="yes"/>
      <point x="308.7" y="297"/>
      <point x="386.59999999999997" y="297"/>
      <point x="445.5" y="296" type="curve"/>
      <point x="454.04999999999995" y="321"/>
      <point x="457.84999999999997" y="350"/>
      <point x="457.84999999999997" y="385" type="curve"/>
      <point x="63.599999999999994" y="385" type="line"/>
      <point x="56.0" y="363"/>
      <point x="51.25" y="332"/>
    </contour>
    <component base="D"/>
  </outline>
</glyph>
<glyph name="multiply" format="2">
  <advance width="550"/>
  <unicode hex="00D7"/>
  <outline>
    <contour>
      <point x="86" y="18" type="curve"/>
      <point x="202" y="135"/>
      <point x="415" y="337"/>
      <point x="556" y="463" type="curve"/>
      <point x="547" y="480"/>
      <point x="501" y="494"/>
      <point x="468" y="494" type="curve"/>
      <point x="2" y="52" type="line"/>
      <point x="13" y="30"/>
      <point x="53" y="17"/>
    </contour>
    <contour>
      <point x="404" y="18" type="curve"/>
      <point x="432" y="18"/>
      <point x="468" y="35"/>
      <point x="488" y="56" type="curve"/>
      <point x="153" y="493" type="line"/>
      <point x="128" y="493"/>
      <point x="93" y="477"/>
      <point x="69" y="456" type="curve"/>
      <point x="162" y="339"/>
      <point x="324" y="129"/>
    </contour>
  </outline>
</glyph>
<glyph name="Thorn" format="2">
  <advance width="673"/>
  <unicode hex="00DE"/>
  <anchor x="267" y="0" name="bottom"/>
  <anchor x="399" y="676" name="top"/>
  <outline>
    <contour>
      <point x="10" y="-3" type="curve"/>
      <point x="59" y="-1"/>
      <point x="118" y="0"/>
      <point x="195" y="0" type="curve" smooth="yes"/>
      <point x="272" y="0"/>
      <point x="321" y="0"/>
      <point x="388" y="-3" type="curve"/>
      <point x="391" y="25"/>
      <point x="390" y="49"/>
      <point x="386" y="75" type="curve"/>
      <point x="307" y="83"/>
      <point x="291" y="104"/>
      <point x="303" y="180" type="curve" smooth="yes"/>
      <point x="355" y="481" type="line" smooth="yes"/>
      <point x="372" y="582"/>
      <point x="379" y="595"/>
      <point x="434" y="601" type="curve"/>
      <point x="444" y="628"/>
      <point x="448" y="654"/>
      <point x="448" y="679" type="curve"/>
      <point x="389" y="676"/>
      <point x="328" y="676"/>
      <point x="276" y="676" type="curve" smooth="yes"/>
      <point x="212" y="676"/>
      <point x="157" y="676"/>
      <point x="108" y="679" type="curve"/>
      <point x="104" y="652"/>
      <point x="105" y="623"/>
      <point x="109" y="601" type="curve"/>
      <point x="166" y="593"/>
      <point x="171" y="579"/>
      <point x="158" y="501" type="curve" smooth="yes"/>
      <point x="103" y="177" type="line" smooth="yes"/>
      <point x="88" y="93"/>
      <point x="78" y="82"/>
      <point x="29" y="75" type="curve"/>
      <point x="18" y="48"/>
      <point x="13" y="26"/>
    </contour>
    <contour>
      <point x="404" y="149" type="curve" smooth="yes"/>
      <point x="545" y="149"/>
      <point x="647" y="219"/>
      <point x="671" y="349" type="curve" smooth="yes"/>
      <point x="689" y="449"/>
      <point x="654" y="545"/>
      <point x="453" y="545" type="curve" smooth="yes"/>
      <point x="433" y="545"/>
      <point x="362" y="544"/>
      <point x="327" y="544" type="curve"/>
      <point x="346" y="453" type="line"/>
      <point x="366" y="462"/>
      <point x="386" y="466"/>
      <point x="403" y="466" type="curve"/>
      <point x="467" y="466"/>
      <point x="496" y="422"/>
      <point x="480" y="346" type="curve" smooth="yes"/>
      <point x="466" y="279"/>
      <point x="424" y="230"/>
      <point x="370" y="230" type="curve" smooth="yes"/>
      <point x="362" y="230"/>
      <point x="356" y="231"/>
      <point x="351" y="232" type="curve"/>
      <point x="343" y="214"/>
      <point x="337" y="186"/>
      <point x="338" y="162" type="curve"/>
      <point x="354" y="152"/>
      <point x="375" y="149"/>
    </contour>
  </outline>
</glyph>
<glyph name="ae" format="2">
  <advance width="809.115"/>
  <unicode hex="00E6"/>
  <anchor x="484" y="458" name="top"/>
  <outline>
    <contour>
      <point x="182" y="-9" type="curve" smooth="yes"/>
      <point x="256" y="-9"/>
      <point x="319" y="24"/>
      <point x="371" y="66" type="curve"/>
      <point x="345" y="141" type="line"/>
      <point x="322" y="129"/>
      <point x="300" y="124"/>
      <point x="282" y="124" type="curve" smooth="yes"/>
      <point x="227" y="124"/>
      <point x="213" y="174"/>
      <point x="232" y="264" type="curve" smooth="yes"/>
      <point x="249" y="345"/>
      <point x="279" y="393"/>
      <point x="341" y="393" type="curve" smooth="yes"/>
      <point x="361" y="393"/>
      <point x="386" y="388"/>
      <point x="414" y="373" type="curve"/>
      <point x="489" y="437" type="line"/>
      <point x="436" y="459"/>
      <point x="386" y="467"/>
      <point x="334" y="467" type="curve" smooth="yes"/>
      <point x="141" y="467"/>
      <point x="54" y="355"/>
      <point x="31" y="232" type="curve" smooth="yes"/>
      <point x="13" y="134"/>
      <point x="28" y="-9"/>
    </contour>
    <contour>
      <point x="532" y="-9" type="curve" smooth="yes"/>
      <point x="600" y="-9"/>
      <point x="668" y="5"/>
      <point x="727" y="47" type="curve"/>
      <point x="729" y="80"/>
      <point x="725" y="104"/>
      <point x="710" y="129" type="curve"/>
      <point x="682" y="114"/>
      <point x="641" y="98"/>
      <point x="601" y="98" type="curve" smooth="yes"/>
      <point x="510" y="98"/>
      <point x="507" y="178"/>
      <point x="527" y="271" type="curve" smooth="yes"/>
      <point x="535" y="308"/>
      <point x="554" y="395"/>
      <point x="623" y="395" type="curve" smooth="yes"/>
      <point x="662" y="395"/>
      <point x="668" y="367"/>
      <point x="662" y="333" type="curve" smooth="yes"/>
      <point x="650" y="266"/>
      <point x="612" y="230"/>
      <point x="496" y="194" type="curve"/>
      <point x="501" y="124" type="line"/>
      <point x="667" y="167"/>
      <point x="776" y="249"/>
      <point x="792" y="336" type="curve" smooth="yes"/>
      <point x="806" y="412"/>
      <point x="746" y="467"/>
      <point x="620" y="467" type="curve" smooth="yes"/>
      <point x="458" y="467"/>
      <point x="373" y="376"/>
      <point x="340" y="234" type="curve" smooth="yes"/>
      <point x="311" y="110"/>
      <point x="332" y="-9"/>
    </contour>
  </outline>
</glyph>
<glyph name="eth" format="2">
  <advance width="560"/>
  <unicode hex="00F0"/>
  <outline>
    <contour>
      <point x="228" y="-8" type="curve" smooth="yes"/>
      <point x="402" y="-8"/>
      <point x="498" y="83"/>
      <point x="537" y="271" type="curve" smooth="yes"/>
      <point x="577" y="465"/>
      <point x="526" y="616"/>
      <point x="379" y="716" type="curve"/>
      <point x="338" y="703"/>
      <point x="272" y="684"/>
      <point x="224" y="691" type="curve"/>
      <point x="211" y="670"/>
      <point x="203" y="641"/>
      <point x="200" y="619" type="curve"/>
      <point x="350" y="562"/>
      <point x="383" y="472"/>
      <point x="345" y="269" type="curve" smooth="yes"/>
      <point x="320" y="135"/>
      <point x="286" y="71"/>
      <point x="244" y="71" type="curve" smooth="yes"/>
      <point x="210" y="71"/>
      <point x="200" y="111"/>
      <point x="220" y="221" type="curve" smooth="yes"/>
      <point x="242" y="344"/>
      <point x="271" y="384"/>
      <point x="321" y="384" type="curve" smooth="yes"/>
      <point x="329" y="384"/>
      <point x="337" y="383"/>
      <point x="362" y="359" type="curve"/>
      <point x="363" y="432" type="line"/>
      <point x="346" y="446"/>
      <point x="331" y="458"/>
      <point x="281" y="458" type="curve" smooth="yes"/>
      <point x="156" y="458"/>
      <point x="62" y="381"/>
      <point x="30" y="230" type="curve" smooth="yes"/>
      <point x="-3" y="74"/>
      <point x="63" y="-8"/>
    </contour>
    <contour>
      <point x="225" y="465" type="curve"/>
      <point x="313" y="513"/>
      <point x="457" y="568"/>
      <point x="550" y="595" type="curve"/>
      <point x="552" y="623"/>
      <point x="554" y="657"/>
      <point x="547" y="680" type="curve"/>
      <point x="220" y="550" type="line"/>
      <point x="213" y="526"/>
      <point x="215" y="489"/>
    </contour>
  </outline>
</glyph>
<glyph name="eogonek" format="2">
  <advance width="519.491"/>
  <unicode hex="0119"/>
  <outline>
    <contour>
      <point x="330" y="28" type="line"/>
      <point x="142" y="-18"/>
      <point x="107" y="-75"/>
      <point x="99" y="-126" type="curve" smooth="yes"/>
      <point x="84" y="-215"/>
      <point x="157" y="-249"/>
      <point x="212" y="-249" type="curve" smooth="yes"/>
      <point x="221" y="-249"/>
      <point x="225" y="-249"/>
      <point x="235" y="-248" type="curve"/>
      <point x="272" y="-231"/>
      <point x="326" y="-217"/>
      <point x="375" y="-210" type="curve"/>
      <point x="383" y="-185"/>
      <point x="381" y="-138"/>
      <point x="372" y="-124" type="curve"/>
      <point x="362" y="-126"/>
      <point x="351" y="-127"/>
      <point x="336" y="-127" type="curve" smooth="yes"/>
      <point x="287" y="-127"/>
      <point x="264" y="-111"/>
      <point x="269" y="-76" type="curve" smooth="yes"/>
      <point x="274" y="-44"/>
      <point x="305" y="-8"/>
      <point x="360" y="15" type="curve"/>
    </contour>
    <component base="e"/>
  </outline>
</glyph>
<glyph name="idotless" format="2">
  <advance width="346"/>
  <unicode hex="0131"/>
  <anchor x="165" y="0" name="bottom"/>
  <anchor x="276" y="16" name="ogonek"/>
  <anchor x="184" y="458" name="top"/>
  <outline>
    <contour>
      <point x="164" y="-9" type="curve" smooth="yes"/>
      <point x="223" y="-9"/>
      <point x="283" y="9"/>
      <point x="327" y="52" type="curve"/>
      <point x="324" y="75"/>
      <point x="308" y="105"/>
      <point x="295" y="118" type="curve"/>
      <point x="281" y="107"/>
      <point x="271" y="104"/>
      <point x="263" y="104" type="curve" smooth="yes"/>
      <point x="248" y="104"/>
      <point x="247" y="116"/>
      <point x="260" y="184" type="curve" smooth="yes"/>
      <point x="296" y="371" type="line" smooth="yes"/>
      <point x="306" y="427"/>
      <point x="290" y="451"/>
      <point x="261" y="467" type="curve"/>
      <point x="195" y="441"/>
      <point x="125" y="428"/>
      <point x="43" y="426" type="curve"/>
      <point x="34" y="404"/>
      <point x="30" y="375"/>
      <point x="30" y="351" type="curve"/>
      <point x="94" y="351"/>
      <point x="97" y="334"/>
      <point x="82" y="262" type="curve" smooth="yes"/>
      <point x="63" y="172" type="line" smooth="yes"/>
      <point x="40" y="64"/>
      <point x="50" y="-9"/>
    </contour>
  </outline>
</glyph>
<glyph name="IJ" format="2">
  <advance width="770"/>
  <unicode hex="0132"/>
  <anchor x="338" y="0" name="caret_1"/>
  <anchor x="323" y="676" name="top_1"/>
  <anchor x="647" y="676" name="top_2"/>
  <outline>
    <contour>
      <point x="272" y="-247" type="curve" smooth="yes"/>
      <point x="492" y="-247"/>
      <point x="635" y="-68"/>
      <point x="678" y="160" type="curve" smooth="yes"/>
      <point x="738" y="478" type="line" smooth="yes"/>
      <point x="759" y="588"/>
      <point x="767" y="596"/>
      <point x="820" y="601" type="curve"/>
      <point x="827" y="624"/>
      <point x="831" y="650"/>
      <point x="832" y="679" type="curve"/>
      <point x="788" y="677"/>
      <point x="723" y="676"/>
      <point x="664" y="676" type="curve" smooth="yes"/>
      <point x="603" y="676"/>
      <point x="540" y="676"/>
      <point x="492" y="679" type="curve"/>
      <point x="489" y="653"/>
      <point x="488" y="626"/>
      <point x="494" y="601" type="curve"/>
      <point x="549" y="595"/>
      <point x="556" y="581"/>
      <point x="543" y="497" type="curve" smooth="yes"/>
      <point x="504" y="247"/>
      <point x="402" y="137"/>
      <point x="345" y="137" type="curve" smooth="yes"/>
      <point x="303" y="137"/>
      <point x="292" y="199"/>
      <point x="327" y="355" type="curve" smooth="yes"/>
      <point x="355" y="481" type="line" smooth="yes"/>
      <point x="377" y="581"/>
      <point x="379" y="595"/>
      <point x="434" y="601" type="curve"/>
      <point x="444" y="628"/>
      <point x="448" y="654"/>
      <point x="448" y="679" type="curve"/>
      <point x="389" y="676"/>
      <point x="328" y="676"/>
      <point x="276" y="676" type="curve" smooth="yes"/>
      <point x="212" y="676"/>
      <point x="157" y="676"/>
      <point x="108" y="679" type="curve"/>
      <point x="104" y="652"/>
      <point x="105" y="623"/>
      <point x="109" y="601" type="curve"/>
      <point x="166" y="593"/>
      <point x="173" y="577"/>
      <point x="159" y="496" type="curve" smooth="yes"/>
      <point x="128" y="322" type="line" smooth="yes"/>
      <point x="92" y="122"/>
      <point x="107" y="-3"/>
      <point x="223" y="-3" type="curve" smooth="yes"/>
      <point x="336" y="-3"/>
      <point x="456" y="117"/>
      <point x="510" y="226" type="curve"/>
      <point x="512" y="226" type="line"/>
      <point x="491" y="174"/>
      <point x="486" y="148"/>
      <point x="471" y="54" type="curve" smooth="yes"/>
      <point x="447" y="-99"/>
      <point x="418" y="-110"/>
      <point x="344" y="-110" type="curve" smooth="yes"/>
      <point x="250" y="-110"/>
      <point x="166" y="-92"/>
      <point x="96" y="-64" type="curve"/>
      <point x="81" y="-94"/>
      <point x="72" y="-137"/>
      <point x="74" y="-174" type="curve"/>
      <point x="129" y="-220"/>
      <point x="187" y="-247"/>
    </contour>
  </outline>
</glyph>
<glyph name="ij" format="2">
  <advance width="612"/>
  <unicode hex="0133"/>
  <outline>
    <contour>
      <point x="213.0" y="505" type="curve" smooth="yes"/>
      <point x="280.5" y="505"/>
      <point x="317.40000000000003" y="533"/>
      <point x="325.5" y="587" type="curve" smooth="yes"/>
      <point x="334.5" y="646"/>
      <point x="299.40000000000003" y="685"/>
      <point x="248.1" y="685" type="curve" smooth="yes"/>
      <point x="183.3" y="685"/>
      <point x="142.8" y="655"/>
      <point x="135.60000000000002" y="601" type="curve" smooth="yes"/>
      <point x="128.4" y="543"/>
      <point x="159.0" y="505"/>
    </contour>
    <contour>
      <point x="490.0" y="505" type="curve" smooth="yes"/>
      <point x="557.5" y="505"/>
      <point x="594.4000000000001" y="533"/>
      <point x="602.5" y="587" type="curve" smooth="yes"/>
      <point x="611.5" y="646"/>
      <point x="576.4000000000001" y="685"/>
      <point x="525.1" y="685" type="curve" smooth="yes"/>
      <point x="460.3" y="685"/>
      <point x="419.8" y="655"/>
      <point x="412.6" y="601" type="curve" smooth="yes"/>
      <point x="405.4" y="543"/>
      <point x="436.0" y="505"/>
    </contour>
    <component base="_part.ij.dotless"/>
  </outline>
</glyph>
<glyph name="kgreenlandic" format="2">
  <advance width="608"/>
  <unicode hex="0138"/>
  <anchor x="258" y="0" name="bottom"/>
  <anchor x="348" y="458" name="top"/>
  <outline>
    <contour>
      <point x="423" y="-9" type="curve" smooth="yes"/>
      <point x="480" y="-9"/>
      <point x="530" y="9"/>
      <point x="574" y="52" type="curve"/>
      <point x="573" y="75"/>
      <point x="557" y="104"/>
      <point x="542" y="118" type="curve"/>
      <point x="535" y="113"/>
      <point x="527" y="110"/>
      <point x="519" y="110" type="curve" smooth="yes"/>
      <point x="500" y="110"/>
      <point x="493" y="123"/>
      <point x="475" y="148" type="curve" smooth="yes"/>
      <point x="439" y="199"/>
      <point x="428" y="209"/>
      <point x="326" y="260" type="curve"/>
      <point x="319" y="229" type="line"/>
      <point x="344" y="279"/>
      <point x="413" y="349"/>
      <point x="464" y="349" type="curve" smooth="yes"/>
      <point x="490" y="349"/>
      <point x="506" y="330"/>
      <point x="508" y="293" type="curve"/>
      <point x="536" y="290"/>
      <point x="560" y="294"/>
      <point x="584" y="305" type="curve"/>
      <point x="583" y="367"/>
      <point x="584" y="404"/>
      <point x="597" y="458" type="curve"/>
      <point x="572" y="463"/>
      <point x="540" y="467"/>
      <point x="517" y="467" type="curve" smooth="yes"/>
      <point x="402" y="467"/>
      <point x="314" y="371"/>
      <point x="261" y="266" type="curve"/>
      <point x="260" y="266" type="line"/>
      <point x="273" y="303"/>
      <point x="286" y="366"/>
      <point x="291" y="399" type="curve" smooth="yes"/>
      <point x="296" y="430"/>
      <point x="292" y="443"/>
      <point x="264" y="467" type="curve"/>
      <point x="198" y="441"/>
      <point x="118" y="428"/>
      <point x="36" y="426" type="curve"/>
      <point x="27" y="403"/>
      <point x="23" y="375"/>
      <point x="23" y="351" type="curve"/>
      <point x="87" y="351"/>
      <point x="89" y="336"/>
      <point x="76" y="263" type="curve" smooth="yes"/>
      <point x="31" y="0" type="line"/>
      <point x="224" y="0" type="line"/>
      <point x="244" y="102" type="line" smooth="yes"/>
      <point x="250" y="131"/>
      <point x="252" y="150"/>
      <point x="249" y="179" type="curve"/>
      <point x="243" y="181" type="line"/>
      <point x="274" y="139"/>
      <point x="281" y="121"/>
      <point x="302" y="72" type="curve" smooth="yes"/>
      <point x="324" y="20"/>
      <point x="351" y="-9"/>
    </contour>
  </outline>
</glyph>
<glyph name="napostrophe" format="2">
  <advance width="928"/>
  <unicode hex="0149"/>
  <outline>
    <contour>
      <point x="266" y="542" type="move"/>
    </contour>
    <component base="apostrophemod" xOffset="19"/>
    <component base="n" xOffset="260"/>
  </outline>
</glyph>
<glyph name="Eng" format="2">
  <advance width="731"/>
  <unicode hex="014A"/>
  <outline>
    <contour>
      <point x="356" y="-249" type="curve" smooth="yes"/>
      <point x="480" y="-249"/>
      <point x="643" y="-98"/>
      <point x="688" y="126" type="curve" smooth="yes"/>
      <point x="743" y="397" type="line" smooth="yes"/>
      <point x="787" y="616"/>
      <point x="723" y="682"/>
      <point x="636" y="682" type="curve" smooth="yes"/>
      <point x="521" y="682"/>
      <point x="411" y="566"/>
      <point x="359" y="454" type="curve" smooth="yes"/>
      <point x="301" y="329" type="line"/>
      <point x="300" y="138" type="line"/>
      <point x="348" y="387"/>
      <point x="450" y="528"/>
      <point x="510" y="528" type="curve" smooth="yes"/>
      <point x="542" y="528"/>
      <point x="552" y="486"/>
      <point x="530" y="374" type="curve" smooth="yes"/>
      <point x="464" y="43" type="line" smooth="yes"/>
      <point x="442" y="-65"/>
      <point x="432" y="-106"/>
      <point x="371" y="-106" type="curve" smooth="yes"/>
      <point x="347" y="-106"/>
      <point x="294" y="-100"/>
      <point x="273" y="-83" type="curve"/>
      <point x="257" y="-114"/>
      <point x="242" y="-156"/>
      <point x="241" y="-184" type="curve"/>
      <point x="262" y="-220"/>
      <point x="302" y="-249"/>
    </contour>
    <contour>
      <point x="76" y="0" type="line"/>
      <point x="277" y="0" type="line"/>
      <point x="300" y="138" type="line"/>
      <point x="336" y="406" type="line"/>
      <point x="364" y="465"/>
      <point x="383" y="541"/>
      <point x="389" y="587" type="curve" smooth="yes"/>
      <point x="395" y="633"/>
      <point x="391" y="663"/>
      <point x="355" y="682" type="curve"/>
      <point x="286" y="653"/>
      <point x="184" y="626"/>
      <point x="101" y="622" type="curve"/>
      <point x="91" y="600"/>
      <point x="87" y="570"/>
      <point x="86" y="543" type="curve"/>
      <point x="169" y="543"/>
      <point x="172" y="528"/>
      <point x="150" y="406" type="curve" smooth="yes"/>
    </contour>
  </outline>
</glyph>
<glyph name="OE" format="2">
  <advance width="1029"/>
  <unicode hex="0152"/>
  <anchor x="602" y="676" name="top"/>
  <outline>
    <contour>
      <point x="446" y="685" type="curve" smooth="yes"/>
      <point x="248" y="685"/>
      <point x="88" y="564"/>
      <point x="49" y="351" type="curve" smooth="yes"/>
      <point x="11" y="143"/>
      <point x="117" y="-9"/>
      <point x="336" y="-9" type="curve" smooth="yes"/>
      <point x="550" y="-9"/>
      <point x="684" y="136"/>
      <point x="719" y="334" type="curve" smooth="yes"/>
      <point x="757" y="549"/>
      <point x="656" y="685"/>
    </contour>
    <contour>
      <point x="435" y="610" type="curve" smooth="yes"/>
      <point x="525" y="610"/>
      <point x="552" y="507"/>
      <point x="528" y="353" type="curve" smooth="yes"/>
      <point x="501" y="182"/>
      <point x="432" y="69"/>
      <point x="343" y="69" type="curve" smooth="yes"/>
      <point x="250" y="69"/>
      <point x="223" y="190"/>
      <point x="254" y="355" type="curve" smooth="yes"/>
      <point x="284" y="512"/>
      <point x="348" y="610"/>
    </contour>
    <contour>
      <point x="912" y="218" type="curve"/>
      <point x="879" y="111"/>
      <point x="836" y="75"/>
      <point x="768" y="75" type="curve" smooth="yes"/>
      <point x="469" y="75" type="line"/>
      <point x="339" y="-9" type="line"/>
      <point x="505" y="-9"/>
      <point x="575" y="0"/>
      <point x="701" y="0" type="curve" smooth="yes"/>
      <point x="786" y="0"/>
      <point x="906" y="0"/>
      <point x="966" y="-3" type="curve"/>
      <point x="974" y="63"/>
      <point x="993" y="133"/>
      <point x="1009" y="180" type="curve"/>
      <point x="980" y="202"/>
      <point x="953" y="212"/>
    </contour>
    <contour>
      <point x="910" y="454" type="curve"/>
      <point x="878" y="457"/>
      <point x="847" y="455"/>
      <point x="819" y="449" type="curve"/>
      <point x="812" y="393"/>
      <point x="794" y="382"/>
      <point x="734" y="382" type="curve" smooth="yes"/>
      <point x="676" y="382" type="line"/>
      <point x="663" y="307" type="line"/>
      <point x="724" y="307" type="line" smooth="yes"/>
      <point x="783" y="307"/>
      <point x="790" y="269"/>
      <point x="790" y="230" type="curve"/>
      <point x="816" y="220"/>
      <point x="844" y="216"/>
      <point x="876" y="215" type="curve"/>
      <point x="877" y="249"/>
      <point x="881" y="288"/>
      <point x="886" y="325" type="curve" smooth="yes"/>
      <point x="892" y="369"/>
      <point x="901" y="417"/>
    </contour>
    <contour>
      <point x="444" y="685" type="curve"/>
      <point x="638" y="601" type="line"/>
      <point x="821" y="601" type="line" smooth="yes"/>
      <point x="920" y="601"/>
      <point x="937" y="555"/>
      <point x="942" y="485" type="curve"/>
      <point x="976" y="485"/>
      <point x="1009" y="489"/>
      <point x="1040" y="497" type="curve"/>
      <point x="1035" y="557"/>
      <point x="1040" y="624"/>
      <point x="1049" y="679" type="curve"/>
      <point x="992" y="677"/>
      <point x="903" y="676"/>
      <point x="832" y="676" type="curve" smooth="yes"/>
      <point x="596" y="676"/>
      <point x="561" y="685"/>
    </contour>
  </outline>
</glyph>
<glyph name="oe" format="2">
  <advance width="854.491"/>
  <unicode hex="0153"/>
  <anchor x="509" y="458" name="top"/>
  <outline>
    <contour>
      <point x="338" y="467" type="curve" smooth="yes"/>
      <point x="165" y="467"/>
      <point x="53" y="381"/>
      <point x="31" y="230" type="curve" smooth="yes"/>
      <point x="9" y="88"/>
      <point x="91" y="-9"/>
      <point x="271" y="-9" type="curve" smooth="yes"/>
      <point x="428" y="-9"/>
      <point x="517" y="85"/>
      <point x="538" y="227" type="curve" smooth="yes"/>
      <point x="559" y="365"/>
      <point x="509" y="467"/>
    </contour>
    <contour>
      <point x="325" y="395" type="curve" smooth="yes"/>
      <point x="374" y="395"/>
      <point x="394" y="326"/>
      <point x="379" y="224" type="curve" smooth="yes"/>
      <point x="363" y="116"/>
      <point x="324" y="63"/>
      <point x="282" y="63" type="curve" smooth="yes"/>
      <point x="237" y="63"/>
      <point x="215" y="124"/>
      <point x="232" y="238" type="curve" smooth="yes"/>
      <point x="246" y="332"/>
      <point x="278" y="395"/>
    </contour>
    <contour>
      <point x="667" y="467" type="curve" smooth="yes"/>
      <point x="509" y="467"/>
      <point x="443" y="372"/>
      <point x="416" y="234" type="curve" smooth="yes"/>
      <point x="394" y="116"/>
      <point x="395" y="-9"/>
      <point x="562" y="-9" type="curve" smooth="yes"/>
      <point x="655" y="-9"/>
      <point x="711" y="5"/>
      <point x="772" y="47" type="curve"/>
      <point x="774" y="80"/>
      <point x="770" y="104"/>
      <point x="755" y="129" type="curve"/>
      <point x="727" y="114"/>
      <point x="687" y="98"/>
      <point x="643" y="98" type="curve" smooth="yes"/>
      <point x="557" y="98"/>
      <point x="552" y="174"/>
      <point x="572" y="271" type="curve" smooth="yes"/>
      <point x="588" y="359"/>
      <point x="627" y="395"/>
      <point x="665" y="395" type="curve" smooth="yes"/>
      <point x="702" y="395"/>
      <point x="715" y="374"/>
      <point x="707" y="333" type="curve" smooth="yes"/>
      <point x="698" y="284"/>
      <point x="633" y="250"/>
      <point x="541" y="249" type="curve"/>
      <point x="538" y="172" type="line"/>
      <point x="720" y="173"/>
      <point x="823" y="265"/>
      <point x="837" y="336" type="curve" smooth="yes"/>
      <point x="851" y="412"/>
      <point x="790" y="467"/>
    </contour>
  </outline>
</glyph>
<glyph name="Nhookleft" format="2">
  <advance width="702"/>
  <unicode hex="019D"/>
  <anchor x="311" y="0" name="bottom"/>
  <anchor x="443" y="676" name="top"/>
  <outline>
    <contour>
      <point x="474" y="-9" type="line"/>
      <point x="562" y="277" type="line"/>
      <point x="348" y="679" type="line"/>
      <point x="321" y="676"/>
      <point x="268" y="676"/>
      <point x="235" y="676" type="curve" smooth="yes"/>
      <point x="202" y="676"/>
      <point x="128" y="677"/>
      <point x="102" y="679" type="curve"/>
      <point x="97" y="649"/>
      <point x="94" y="623"/>
      <point x="95" y="601" type="curve"/>
      <point x="138" y="597"/>
      <point x="149" y="591"/>
      <point x="157" y="573" type="curve" smooth="yes"/>
    </contour>
    <contour>
      <point x="-134" y="-249" type="curve" smooth="yes"/>
      <point x="-15" y="-249"/>
      <point x="107" y="-143"/>
      <point x="153" y="93" type="curve" smooth="yes"/>
      <point x="252" y="607" type="line"/>
      <point x="179" y="615" type="line"/>
      <point x="74" y="77" type="line" smooth="yes"/>
      <point x="50" y="-51"/>
      <point x="-4" y="-106"/>
      <point x="-102" y="-106" type="curve" smooth="yes"/>
      <point x="-144" y="-106"/>
      <point x="-188" y="-96"/>
      <point x="-209" y="-87" type="curve"/>
      <point x="-229" y="-121"/>
      <point x="-242" y="-169"/>
      <point x="-243" y="-195" type="curve"/>
      <point x="-229" y="-223"/>
      <point x="-193" y="-249"/>
    </contour>
    <contour>
      <point x="474" y="-9" type="line"/>
      <point x="511" y="-9"/>
      <point x="538" y="-8"/>
      <point x="566" y="0" type="curve"/>
      <point x="656" y="458" type="line" smooth="yes"/>
      <point x="678" y="575"/>
      <point x="693" y="594"/>
      <point x="746" y="601" type="curve"/>
      <point x="758" y="627"/>
      <point x="763" y="652"/>
      <point x="768" y="679" type="curve"/>
      <point x="744" y="677"/>
      <point x="696" y="676"/>
      <point x="662" y="676" type="curve" smooth="yes"/>
      <point x="628" y="676"/>
      <point x="559" y="677"/>
      <point x="531" y="679" type="curve"/>
      <point x="527" y="656"/>
      <point x="522" y="624"/>
      <point x="523" y="601" type="curve"/>
      <point x="594" y="593"/>
      <point x="603" y="572"/>
      <point x="581" y="458" type="curve" smooth="yes"/>
      <point x="526" y="180" type="line"/>
    </contour>
  </outline>
</glyph>
<glyph name="Ezh" format="2">
  <advance width="597"/>
  <unicode hex="01B7"/>
  <anchor x="248" y="0" name="bottom"/>
  <anchor x="387" y="676" name="top"/>
  <outline>
    <contour>
      <point x="225" y="-9" type="curve" smooth="yes"/>
      <point x="428" y="-9"/>
      <point x="544" y="61"/>
      <point x="567" y="178" type="curve" smooth="yes"/>
      <point x="591" y="302"/>
      <point x="510" y="368"/>
      <point x="370" y="370" type="curve"/>
      <point x="401" y="336" type="line"/>
      <point x="485" y="420"/>
      <point x="565" y="516"/>
      <point x="627" y="601" type="curve"/>
      <point x="631" y="637"/>
      <point x="627" y="659"/>
      <point x="616" y="678" type="curve"/>
      <point x="554" y="676"/>
      <point x="455" y="676"/>
      <point x="383" y="676" type="curve" smooth="yes"/>
      <point x="320" y="676"/>
      <point x="202" y="676"/>
      <point x="154" y="678" type="curve"/>
      <point x="145" y="621"/>
      <point x="121" y="539"/>
      <point x="94" y="481" type="curve"/>
      <point x="116" y="463"/>
      <point x="154" y="456"/>
      <point x="195" y="449" type="curve"/>
      <point x="242" y="567"/>
      <point x="277" y="601"/>
      <point x="339" y="601" type="curve" smooth="yes"/>
      <point x="465" y="601" type="line"/>
      <point x="425" y="633" type="line"/>
      <point x="358" y="541"/>
      <point x="280" y="449"/>
      <point x="213" y="396" type="curve"/>
      <point x="209" y="368"/>
      <point x="213" y="323"/>
      <point x="224" y="305" type="curve"/>
      <point x="329" y="298"/>
      <point x="384" y="270"/>
      <point x="369" y="190" type="curve" smooth="yes"/>
      <point x="356" y="121"/>
      <point x="301" y="75"/>
      <point x="234" y="75" type="curve" smooth="yes"/>
      <point x="182" y="75"/>
      <point x="156" y="104"/>
      <point x="159" y="220" type="curve"/>
      <point x="125" y="226"/>
      <point x="77" y="225"/>
      <point x="41" y="217" type="curve"/>
      <point x="41" y="167"/>
      <point x="31" y="96"/>
      <point x="17" y="44" type="curve"/>
      <point x="56" y="11"/>
      <point x="130" y="-9"/>
    </contour>
  </outline>
</glyph>
<glyph name="Gstroke" format="2">
  <advance width="660"/>
  <unicode hex="01E4"/>
  <outline>
    <contour>
      <point x="323.0" y="120" type="curve"/>
      <point x="367.0" y="120"/>
      <point x="409.4" y="123"/>
      <point x="488.6" y="123" type="curve" smooth="yes"/>
      <point x="539.8" y="123"/>
      <point x="605.4000000000001" y="123"/>
      <point x="655.0" y="122" type="curve"/>
      <point x="662.2" y="147"/>
      <point x="665.4000000000001" y="176"/>
      <point x="665.4000000000001" y="211" type="curve"/>
      <point x="333.4" y="211" type="line"/>
      <point x="327.0" y="189"/>
      <point x="323.0" y="158"/>
    </contour>
    <component base="G"/>
  </outline>
</glyph>
<glyph name="Yogh" format="2">
  <advance width="558"/>
  <unicode hex="021C"/>
  <outline>
    <contour>
      <point x="122" y="-171" type="curve" smooth="yes"/>
      <point x="313" y="-171"/>
      <point x="483" y="-55"/>
      <point x="514" y="105" type="curve" smooth="yes"/>
      <point x="540" y="241"/>
      <point x="451" y="323"/>
      <point x="265" y="302" type="curve"/>
      <point x="251" y="285" type="line"/>
      <point x="415" y="333"/>
      <point x="543" y="404"/>
      <point x="566" y="524" type="curve" smooth="yes"/>
      <point x="586" y="627"/>
      <point x="513" y="685"/>
      <point x="326" y="685" type="curve" smooth="yes"/>
      <point x="237" y="685"/>
      <point x="166" y="672"/>
      <point x="115" y="648" type="curve"/>
      <point x="108" y="591"/>
      <point x="94" y="529"/>
      <point x="82" y="496" type="curve"/>
      <point x="107" y="480"/>
      <point x="153" y="475"/>
      <point x="185" y="475" type="curve"/>
      <point x="217" y="569"/>
      <point x="237" y="610"/>
      <point x="296" y="610" type="curve" smooth="yes"/>
      <point x="352" y="610"/>
      <point x="371" y="574"/>
      <point x="358" y="507" type="curve" smooth="yes"/>
      <point x="335" y="388"/>
      <point x="243" y="338"/>
      <point x="130" y="304" type="curve"/>
      <point x="120" y="277"/>
      <point x="119" y="245"/>
      <point x="130" y="223" type="curve"/>
      <point x="152" y="231"/>
      <point x="184" y="236"/>
      <point x="211" y="236" type="curve" smooth="yes"/>
      <point x="290" y="236"/>
      <point x="326" y="193"/>
      <point x="309" y="105" type="curve" smooth="yes"/>
      <point x="288" y="-1"/>
      <point x="206" y="-89"/>
      <point x="102" y="-89" type="curve" smooth="yes"/>
      <point x="60" y="-89"/>
      <point x="25" y="-75"/>
      <point x="3" y="-53" type="curve"/>
      <point x="-21" y="-72"/>
      <point x="-37" y="-98"/>
      <point x="-43" y="-123" type="curve"/>
      <point x="-13" y="-155"/>
      <point x="51" y="-171"/>
    </contour>
  </outline>
</glyph>
<glyph name="yogh" format="2">
  <advance width="496"/>
  <unicode hex="021D"/>
  <outline>
    <contour>
      <point x="106" y="-249" type="curve" smooth="yes"/>
      <point x="277" y="-249"/>
      <point x="388" y="-168"/>
      <point x="413" y="-40" type="curve" smooth="yes"/>
      <point x="436" y="81"/>
      <point x="384" y="155"/>
      <point x="226" y="136" type="curve"/>
      <point x="231" y="127" type="line"/>
      <point x="365" y="152"/>
      <point x="448" y="210"/>
      <point x="466" y="302" type="curve" smooth="yes"/>
      <point x="486" y="404"/>
      <point x="429" y="467"/>
      <point x="277" y="467" type="curve" smooth="yes"/>
      <point x="202" y="467"/>
      <point x="142" y="456"/>
      <point x="81" y="430" type="curve"/>
      <point x="80" y="377"/>
      <point x="71" y="329"/>
      <point x="59" y="288" type="curve"/>
      <point x="76" y="268"/>
      <point x="116" y="256"/>
      <point x="146" y="252" type="curve"/>
      <point x="172" y="352"/>
      <point x="190" y="394"/>
      <point x="243" y="394" type="curve" smooth="yes"/>
      <point x="281" y="394"/>
      <point x="300" y="375"/>
      <point x="290" y="320" type="curve" smooth="yes"/>
      <point x="272" y="224"/>
      <point x="212" y="173"/>
      <point x="96" y="148" type="curve"/>
      <point x="90" y="122"/>
      <point x="88" y="92"/>
      <point x="96" y="71" type="curve"/>
      <point x="109" y="68"/>
      <point x="125" y="69"/>
      <point x="142" y="69" type="curve" smooth="yes"/>
      <point x="198" y="69"/>
      <point x="242" y="41"/>
      <point x="228" y="-31" type="curve" smooth="yes"/>
      <point x="212" y="-115"/>
      <point x="156" y="-168"/>
      <point x="75" y="-168" type="curve" smooth="yes"/>
      <point x="36" y="-168"/>
      <point x="10" y="-159"/>
      <point x="-14" y="-131" type="curve"/>
      <point x="-35" y="-145"/>
      <point x="-49" y="-168"/>
      <point x="-55" y="-186" type="curve"/>
      <point x="-26" y="-226"/>
      <point x="25" y="-249"/>
    </contour>
  </outline>
</glyph>
<glyph name="jdotless" format="2">
  <advance width="309"/>
  <unicode hex="0237"/>
  <anchor x="14" y="-242" name="bottom"/>
  <anchor x="192" y="458" name="top"/>
  <outline>
    <contour>
      <point x="-67" y="-246" type="curve"/>
      <point x="125" y="-183"/>
      <point x="210" y="-102"/>
      <point x="250" y="125" type="curve" smooth="yes"/>
      <point x="295" y="379" type="line"/>
      <point x="304" y="430"/>
      <point x="295" y="443"/>
      <point x="269" y="467" type="curve"/>
      <point x="203" y="441"/>
      <point x="123" y="428"/>
      <point x="41" y="426" type="curve"/>
      <point x="32" y="403"/>
      <point x="28" y="375"/>
      <point x="28" y="351" type="curve"/>
      <point x="92" y="351"/>
      <point x="93" y="334"/>
      <point x="81" y="263" type="curve" smooth="yes"/>
      <point x="45" y="52" type="line" smooth="yes"/>
      <point x="24" y="-70"/>
      <point x="-29" y="-132"/>
      <point x="-98" y="-167" type="curve"/>
      <point x="-98" y="-203"/>
      <point x="-88" y="-228"/>
    </contour>
  </outline>
</glyph>
<glyph name="ereversed" format="2">
  <advance width="529"/>
  <unicode hex="0258"/>
  <anchor x="216" y="0" name="bottom"/>
  <anchor x="488" y="223" name="right"/>
  <anchor x="310" y="458" name="top"/>
  <outline>
    <contour>
      <point x="189" y="-9" type="curve" smooth="yes"/>
      <point x="381" y="-9"/>
      <point x="476" y="118"/>
      <point x="502" y="248" type="curve" smooth="yes"/>
      <point x="526" y="366"/>
      <point x="489" y="467"/>
      <point x="299" y="467" type="curve" smooth="yes"/>
      <point x="180" y="467"/>
      <point x="82" y="427"/>
      <point x="57" y="337" type="curve" smooth="yes"/>
      <point x="32" y="247"/>
      <point x="98" y="172"/>
      <point x="287" y="172" type="curve"/>
      <point x="304" y="250" type="line"/>
      <point x="212" y="250"/>
      <point x="180" y="306"/>
      <point x="188" y="349" type="curve" smooth="yes"/>
      <point x="194" y="380"/>
      <point x="217" y="395"/>
      <point x="244" y="395" type="curve" smooth="yes"/>
      <point x="309" y="395"/>
      <point x="310" y="308"/>
      <point x="289" y="191" type="curve" smooth="yes"/>
      <point x="273" y="104"/>
      <point x="260" y="78"/>
      <point x="220" y="78" type="curve" smooth="yes"/>
      <point x="184" y="78"/>
      <point x="161" y="98"/>
      <point x="149" y="124" type="curve"/>
      <point x="99" y="126"/>
      <point x="52" y="115"/>
      <point x="8" y="94" type="curve"/>
      <point x="25" y="37"/>
      <point x="76" y="-9"/>
    </contour>
  </outline>
</glyph>
<glyph name="nhookleft" format="2">
  <advance width="668"/>
  <unicode hex="0272"/>
  <outline>
    <contour>
      <point x="-68" y="-246" type="curve"/>
      <point x="113" y="-187"/>
      <point x="199" y="-111"/>
      <point x="242" y="89" type="curve" smooth="yes"/>
      <point x="276" y="248"/>
      <point x="337" y="320"/>
      <point x="377" y="320" type="curve" smooth="yes"/>
      <point x="407" y="320"/>
      <point x="408" y="279"/>
      <point x="398" y="237" type="curve" smooth="yes"/>
      <point x="383" y="172" type="line" smooth="yes"/>
      <point x="359" y="67"/>
      <point x="369" y="-9"/>
      <point x="487" y="-9" type="curve" smooth="yes"/>
      <point x="545" y="-9"/>
      <point x="605" y="9"/>
      <point x="649" y="52" type="curve"/>
      <point x="646" y="75"/>
      <point x="630" y="105"/>
      <point x="617" y="118" type="curve"/>
      <point x="600" y="107"/>
      <point x="592" y="104"/>
      <point x="584" y="104" type="curve" smooth="yes"/>
      <point x="570" y="104"/>
      <point x="565" y="111"/>
      <point x="582" y="184" type="curve" smooth="yes"/>
      <point x="601" y="267" type="line" smooth="yes"/>
      <point x="633" y="406"/>
      <point x="588" y="467"/>
      <point x="501" y="467" type="curve" smooth="yes"/>
      <point x="406" y="467"/>
      <point x="321" y="396"/>
      <point x="281" y="311" type="curve" smooth="yes"/>
      <point x="263" y="273" type="line"/>
      <point x="264" y="278" type="line"/>
      <point x="277" y="306"/>
      <point x="298" y="359"/>
      <point x="302" y="402" type="curve" smooth="yes"/>
      <point x="305" y="435"/>
      <point x="297" y="452"/>
      <point x="271" y="467" type="curve"/>
      <point x="205" y="441"/>
      <point x="125" y="428"/>
      <point x="43" y="426" type="curve"/>
      <point x="34" y="404"/>
      <point x="30" y="375"/>
      <point x="30" y="351" type="curve"/>
      <point x="94" y="351"/>
      <point x="96" y="334"/>
      <point x="82" y="262" type="curve" smooth="yes"/>
      <point x="37" y="22" type="line" smooth="yes"/>
      <point x="17" y="-85"/>
      <point x="-38" y="-136"/>
      <point x="-99" y="-167" type="curve"/>
      <point x="-99" y="-203"/>
      <point x="-89" y="-228"/>
    </contour>
  </outline>
</glyph>
<glyph name="ezh" format="2">
  <advance width="491"/>
  <unicode hex="0292"/>
  <anchor x="130" y="-221" name="bottom"/>
  <anchor x="290" y="458" name="top"/>
  <outline>
    <contour>
      <point x="110" y="-245" type="curve" smooth="yes"/>
      <point x="280" y="-245"/>
      <point x="393" y="-166"/>
      <point x="420" y="-35" type="curve" smooth="yes"/>
      <point x="443" y="78"/>
      <point x="381" y="150"/>
      <point x="251" y="150" type="curve"/>
      <point x="237" y="104" type="line"/>
      <point x="320" y="178"/>
      <point x="426" y="290"/>
      <point x="499" y="381" type="curve"/>
      <point x="501" y="406"/>
      <point x="493" y="437"/>
      <point x="479" y="458" type="curve"/>
      <point x="433" y="462"/>
      <point x="360" y="464"/>
      <point x="286" y="464" type="curve" smooth="yes"/>
      <point x="221" y="464"/>
      <point x="142" y="462"/>
      <point x="91" y="458" type="curve"/>
      <point x="81" y="404"/>
      <point x="59" y="318"/>
      <point x="32" y="253" type="curve"/>
      <point x="52" y="236"/>
      <point x="86" y="225"/>
      <point x="115" y="222" type="curve"/>
      <point x="146" y="290"/>
      <point x="167" y="311"/>
      <point x="225" y="311" type="curve" smooth="yes"/>
      <point x="382" y="311" type="line"/>
      <point x="336" y="336" type="line"/>
      <point x="280" y="274"/>
      <point x="204" y="200"/>
      <point x="123" y="128" type="curve"/>
      <point x="119" y="98"/>
      <point x="127" y="67"/>
      <point x="142" y="50" type="curve"/>
      <point x="214" y="50"/>
      <point x="239" y="21"/>
      <point x="227" y="-38" type="curve" smooth="yes"/>
      <point x="213" y="-110"/>
      <point x="158" y="-162"/>
      <point x="75" y="-162" type="curve" smooth="yes"/>
      <point x="37" y="-162"/>
      <point x="5" y="-151"/>
      <point x="-21" y="-131" type="curve"/>
      <point x="-41" y="-144"/>
      <point x="-58" y="-169"/>
      <point x="-62" y="-188" type="curve"/>
      <point x="-32" y="-223"/>
      <point x="25" y="-245"/>
    </contour>
  </outline>
</glyph>
<glyph name="ringhalfright" format="2">
  <advance width="290"/>
  <unicode hex="02BE"/>
  <outline>
    <contour>
      <point x="141" y="736" type="curve"/>
      <point x="131" y="709"/>
      <point x="127" y="684"/>
      <point x="133" y="658" type="curve"/>
      <point x="175" y="651"/>
      <point x="192" y="624"/>
      <point x="183" y="581" type="curve" smooth="yes"/>
      <point x="172" y="524"/>
      <point x="138" y="485"/>
      <point x="94" y="492" type="curve"/>
      <point x="84" y="468"/>
      <point x="81" y="443"/>
      <point x="87" y="420" type="curve"/>
      <point x="214" y="413"/>
      <point x="296" y="468"/>
      <point x="314" y="560" type="curve" smooth="yes"/>
      <point x="335" y="667"/>
      <point x="269" y="729"/>
    </contour>
  </outline>
</glyph>
<glyph name="ringhalfleft" format="2">
  <advance width="290"/>
  <unicode hex="02BF"/>
  <outline>
    <contour>
      <point x="282" y="406" type="curve"/>
      <point x="292" y="433"/>
      <point x="296" y="458"/>
      <point x="290" y="484" type="curve"/>
      <point x="248" y="491"/>
      <point x="231" y="518"/>
      <point x="240" y="561" type="curve" smooth="yes"/>
      <point x="251" y="618"/>
      <point x="285" y="657"/>
      <point x="329" y="650" type="curve"/>
      <point x="339" y="674"/>
      <point x="342" y="699"/>
      <point x="336" y="722" type="curve"/>
      <point x="209" y="729"/>
      <point x="127" y="674"/>
      <point x="109" y="582" type="curve" smooth="yes"/>
      <point x="88" y="475"/>
      <point x="154" y="413"/>
    </contour>
  </outline>
</glyph>
<glyph name="acutecomb" format="2">
  <unicode hex="0301"/>
  <anchor x="159" y="458" name="_top"/>
  <anchor x="211" y="723" name="top"/>
  <outline>
    <contour>
      <point x="182" y="716" type="curve"/>
      <point x="169" y="678"/>
      <point x="135" y="608"/>
      <point x="103" y="558" type="curve"/>
      <point x="128" y="543"/>
      <point x="160" y="533"/>
      <point x="191" y="530" type="curve"/>
      <point x="223" y="581"/>
      <point x="276" y="642"/>
      <point x="340" y="699" type="curve"/>
      <point x="308" y="718"/>
      <point x="243" y="725"/>
    </contour>
  </outline>
</glyph>
<glyph name="circumflexcomb" format="2">
  <unicode hex="0302"/>
  <anchor x="280" y="458" name="_top"/>
  <anchor x="326" y="721" name="top"/>
  <outline>
    <contour>
      <point x="158" y="511" type="curve"/>
      <point x="191" y="535"/>
      <point x="258" y="576"/>
      <point x="303" y="598" type="curve"/>
      <point x="342" y="580"/>
      <point x="386" y="551"/>
      <point x="423" y="521" type="curve"/>
      <point x="460" y="523"/>
      <point x="492" y="534"/>
      <point x="511" y="552" type="curve"/>
      <point x="453" y="614"/>
      <point x="412" y="663"/>
      <point x="377" y="712" type="curve"/>
      <point x="351" y="721"/>
      <point x="318" y="723"/>
      <point x="292" y="719" type="curve"/>
      <point x="244" y="674"/>
      <point x="165" y="617"/>
      <point x="101" y="581" type="curve"/>
      <point x="105" y="558"/>
      <point x="125" y="524"/>
    </contour>
  </outline>
</glyph>
<glyph name="macroncomb" format="2">
  <unicode hex="0304"/>
  <anchor x="262" y="458" name="_top"/>
  <anchor x="296" y="631" name="top"/>
  <outline>
    <contour>
      <point x="104" y="566" type="curve"/>
      <point x="243" y="572"/>
      <point x="361" y="573"/>
      <point x="466" y="573" type="curve"/>
      <point x="473" y="593"/>
      <point x="475" y="616"/>
      <point x="475" y="631" type="curve"/>
      <point x="113" y="631" type="line"/>
      <point x="106" y="612"/>
      <point x="104" y="586"/>
    </contour>
  </outline>
</glyph>
<glyph name="dieresiscomb" format="2">
  <unicode hex="0308"/>
  <anchor x="281" y="458" name="_top"/>
  <anchor x="324" y="679" name="top"/>
  <outline>
    <contour>
      <point x="413" y="497" type="curve" smooth="yes"/>
      <point x="466" y="497"/>
      <point x="496" y="524"/>
      <point x="507" y="576" type="curve" smooth="yes"/>
      <point x="520" y="638"/>
      <point x="493" y="679"/>
      <point x="427" y="679" type="curve" smooth="yes"/>
      <point x="375" y="679"/>
      <point x="341" y="654"/>
      <point x="331" y="598" type="curve" smooth="yes"/>
      <point x="320" y="537"/>
      <point x="348" y="497"/>
    </contour>
    <contour>
      <point x="185" y="497" type="curve" smooth="yes"/>
      <point x="235" y="497"/>
      <point x="265" y="525"/>
      <point x="277" y="574" type="curve" smooth="yes"/>
      <point x="293" y="642"/>
      <point x="258" y="679"/>
      <point x="197" y="679" type="curve" smooth="yes"/>
      <point x="147" y="679"/>
      <point x="117" y="655"/>
      <point x="106" y="604" type="curve" smooth="yes"/>
      <point x="93" y="543"/>
      <point x="121" y="497"/>
    </contour>
  </outline>
</glyph>
<glyph name="ringcomb" format="2">
  <unicode hex="030A"/>
  <anchor x="215" y="458" name="_top"/>
  <anchor x="268" y="729" name="top"/>
  <outline>
    <contour>
      <point x="234" y="516" type="curve" smooth="yes"/>
      <point x="312" y="516"/>
      <point x="367" y="550"/>
      <point x="382" y="612" type="curve" smooth="yes"/>
      <point x="398" y="679"/>
      <point x="355" y="729"/>
      <point x="261" y="729" type="curve" smooth="yes"/>
      <point x="186" y="729"/>
      <point x="128" y="697"/>
      <point x="112" y="634" type="curve" smooth="yes"/>
      <point x="96" y="570"/>
      <point x="135" y="516"/>
    </contour>
    <contour>
      <point x="241" y="576" type="curve" smooth="yes"/>
      <point x="218" y="576"/>
      <point x="211" y="598"/>
      <point x="215" y="625" type="curve" smooth="yes"/>
      <point x="219" y="655"/>
      <point x="234" y="674"/>
      <point x="254" y="674" type="curve" smooth="yes"/>
      <point x="280" y="674"/>
      <point x="285" y="642"/>
      <point x="281" y="619" type="curve" smooth="yes"/>
      <point x="276" y="592"/>
      <point x="260" y="576"/>
    </contour>
  </outline>
</glyph>
<glyph name="hungarumlautcomb" format="2">
  <unicode hex="030B"/>
  <anchor x="259" y="458" name="_top"/>
  <anchor x="309" y="719" name="top"/>
  <outline>
    <contour>
      <point x="407" y="523" type="curve"/>
      <point x="449" y="584"/>
      <point x="507" y="647"/>
      <point x="568" y="706" type="curve"/>
      <point x="545" y="715"/>
      <point x="515" y="719"/>
      <point x="482" y="719" type="curve" smooth="yes"/>
      <point x="454" y="719"/>
      <point x="423" y="717"/>
      <point x="401" y="713" type="curve"/>
      <point x="380" y="658"/>
      <point x="354" y="615"/>
      <point x="317" y="559" type="curve"/>
      <point x="335" y="544"/>
      <point x="372" y="530"/>
    </contour>
    <contour>
      <point x="207" y="523" type="curve"/>
      <point x="249" y="584"/>
      <point x="307" y="647"/>
      <point x="368" y="706" type="curve"/>
      <point x="345" y="715"/>
      <point x="315" y="719"/>
      <point x="282" y="719" type="curve" smooth="yes"/>
      <point x="254" y="719"/>
      <point x="223" y="717"/>
      <point x="201" y="713" type="curve"/>
      <point x="180" y="658"/>
      <point x="154" y="615"/>
      <point x="117" y="559" type="curve"/>
      <point x="135" y="544"/>
      <point x="172" y="530"/>
    </contour>
  </outline>
</glyph>
<glyph name="caroncomb" format="2">
  <unicode hex="030C"/>
  <anchor x="276" y="458" name="_top"/>
  <anchor x="336" y="723" name="top"/>
  <outline>
    <contour>
      <point x="245" y="516" type="curve"/>
      <point x="278" y="512"/>
      <point x="311" y="515"/>
      <point x="336" y="527" type="curve"/>
      <point x="384" y="572"/>
      <point x="452" y="624"/>
      <point x="514" y="666" type="curve"/>
      <point x="506" y="690"/>
      <point x="488" y="715"/>
      <point x="462" y="723" type="curve"/>
      <point x="423" y="695"/>
      <point x="365" y="662"/>
      <point x="319" y="644" type="curve"/>
      <point x="275" y="665"/>
      <point x="232" y="694"/>
      <point x="199" y="723" type="curve"/>
      <point x="158" y="719"/>
      <point x="132" y="699"/>
      <point x="117" y="666" type="curve"/>
      <point x="160" y="621"/>
      <point x="206" y="569"/>
    </contour>
  </outline>
</glyph>
<glyph name="dblgravecomb" format="2">
  <unicode hex="030F"/>
  <anchor x="332" y="458" name="_top"/>
  <anchor x="382" y="717" name="top"/>
  <outline>
    <contour>
      <point x="445" y="540" type="curve"/>
      <point x="488" y="534"/>
      <point x="519" y="536"/>
      <point x="544" y="541" type="curve"/>
      <point x="525" y="595"/>
      <point x="511" y="661"/>
      <point x="503" y="709" type="curve"/>
      <point x="451" y="716"/>
      <point x="395" y="711"/>
      <point x="350" y="703" type="curve"/>
      <point x="396" y="642"/>
      <point x="418" y="594"/>
    </contour>
    <contour>
      <point x="247" y="540" type="curve"/>
      <point x="289" y="534"/>
      <point x="319" y="536"/>
      <point x="344" y="541" type="curve"/>
      <point x="324" y="596"/>
      <point x="309" y="661"/>
      <point x="301" y="709" type="curve"/>
      <point x="246" y="716"/>
      <point x="189" y="711"/>
      <point x="142" y="702" type="curve"/>
      <point x="193" y="642"/>
      <point x="218" y="594"/>
    </contour>
  </outline>
</glyph>
<glyph name="breveinvertedcomb" format="2">
  <unicode hex="0311"/>
  <anchor x="287" y="458" name="_top"/>
  <anchor x="337" y="716" name="top"/>
  <outline>
    <contour>
      <point x="354" y="716" type="curve" smooth="yes"/>
      <point x="217" y="716"/>
      <point x="132" y="651"/>
      <point x="108" y="527" type="curve"/>
      <point x="131" y="518"/>
      <point x="163" y="514"/>
      <point x="197" y="520" type="curve"/>
      <point x="210" y="568"/>
      <point x="253" y="595"/>
      <point x="316" y="595" type="curve" smooth="yes"/>
      <point x="380" y="595"/>
      <point x="416" y="568"/>
      <point x="414" y="520" type="curve"/>
      <point x="450" y="515"/>
      <point x="491" y="520"/>
      <point x="523" y="532" type="curve"/>
      <point x="546" y="653"/>
      <point x="489" y="716"/>
    </contour>
  </outline>
</glyph>
<glyph name="commaturnedabovecomb" format="2">
  <unicode hex="0312"/>
  <anchor x="170" y="458" name="_top"/>
  <anchor x="224" y="736" name="top"/>
  <outline>
    <contour>
      <point x="141" y="502" type="curve"/>
      <point x="174" y="522"/>
      <point x="219" y="532"/>
      <point x="272" y="533" type="curve"/>
      <point x="291" y="560"/>
      <point x="301" y="591"/>
      <point x="303" y="623" type="curve"/>
      <point x="259" y="627"/>
      <point x="243" y="634"/>
      <point x="246" y="650" type="curve" smooth="yes"/>
      <point x="249" y="665"/>
      <point x="271" y="682"/>
      <point x="304" y="700" type="curve"/>
      <point x="293" y="720"/>
      <point x="273" y="733"/>
      <point x="247" y="736" type="curve"/>
      <point x="169" y="696"/>
      <point x="116" y="646"/>
      <point x="102" y="581" type="curve" smooth="yes"/>
      <point x="94" y="542"/>
      <point x="102" y="513"/>
    </contour>
  </outline>
</glyph>
<glyph name="commaabovecomb" format="2">
  <unicode hex="0313"/>
  <anchor x="170" y="458" name="_top"/>
  <anchor x="224" y="736" name="top"/>
  <outline>
    <contour>
      <point x="262" y="736" type="curve"/>
      <point x="229" y="716"/>
      <point x="184" y="706"/>
      <point x="131" y="705" type="curve"/>
      <point x="112" y="678"/>
      <point x="102" y="647"/>
      <point x="100" y="615" type="curve"/>
      <point x="144" y="611"/>
      <point x="160" y="604"/>
      <point x="157" y="588" type="curve" smooth="yes"/>
      <point x="154" y="573"/>
      <point x="132" y="556"/>
      <point x="99" y="538" type="curve"/>
      <point x="110" y="518"/>
      <point x="130" y="505"/>
      <point x="156" y="502" type="curve"/>
      <point x="234" y="542"/>
      <point x="287" y="592"/>
      <point x="301" y="657" type="curve" smooth="yes"/>
      <point x="309" y="696"/>
      <point x="301" y="725"/>
    </contour>
  </outline>
</glyph>
<glyph name="dotbelowcomb" format="2">
  <unicode hex="0323"/>
  <anchor x="100" y="0" name="_bottom"/>
  <anchor x="52" y="-247" name="bottom"/>
  <outline>
    <contour>
      <point x="59" y="-247" type="curve" smooth="yes"/>
      <point x="117" y="-247"/>
      <point x="165" y="-222"/>
      <point x="175" y="-165" type="curve" smooth="yes"/>
      <point x="184" y="-111"/>
      <point x="156" y="-67"/>
      <point x="81" y="-67" type="curve" smooth="yes"/>
      <point x="23" y="-67"/>
      <point x="-25" y="-93"/>
      <point x="-36" y="-151" type="curve" smooth="yes"/>
      <point x="-46" y="-207"/>
      <point x="-14" y="-247"/>
    </contour>
  </outline>
</glyph>
<glyph name="commaaccentcomb" format="2">
  <unicode hex="0326"/>
  <anchor x="98" y="0" name="_bottom"/>
  <anchor x="36" y="-318" name="bottom"/>
  <outline>
    <contour>
      <point x="29" y="-318" type="curve"/>
      <point x="108" y="-269"/>
      <point x="163" y="-206"/>
      <point x="176" y="-121" type="curve" smooth="yes"/>
      <point x="184" y="-70"/>
      <point x="172" y="-48"/>
      <point x="135" y="-37" type="curve"/>
      <point x="102" y="-57"/>
      <point x="57" y="-67"/>
      <point x="4" y="-68" type="curve"/>
      <point x="-15" y="-95"/>
      <point x="-25" y="-126"/>
      <point x="-27" y="-164" type="curve"/>
      <point x="17" y="-169"/>
      <point x="36" y="-181"/>
      <point x="32" y="-207" type="curve" smooth="yes"/>
      <point x="28" y="-231"/>
      <point x="5" y="-260"/>
      <point x="-28" y="-282" type="curve"/>
      <point x="-17" y="-302"/>
      <point x="3" y="-315"/>
    </contour>
  </outline>
</glyph>
<glyph name="cedillacomb" format="2">
  <unicode hex="0327"/>
  <anchor x="81" y="0" name="_bottom"/>
  <anchor x="27" y="-242" name="bottom"/>
  <outline>
    <contour>
      <point x="-49" y="-242" type="curve"/>
      <point x="66" y="-245"/>
      <point x="133" y="-210"/>
      <point x="145" y="-148" type="curve" smooth="yes"/>
      <point x="154" y="-100"/>
      <point x="139" y="-62"/>
      <point x="90" y="-46" type="curve"/>
      <point x="149" y="16" type="line"/>
      <point x="59" y="16" type="line"/>
      <point x="-21" y="-63" type="line"/>
      <point x="-23" y="-80"/>
      <point x="-20" y="-96"/>
      <point x="-12" y="-110" type="curve"/>
      <point x="21" y="-110"/>
      <point x="46" y="-124"/>
      <point x="40" y="-155" type="curve" smooth="yes"/>
      <point x="36" y="-178"/>
      <point x="-4" y="-192"/>
      <point x="-48" y="-191" type="curve"/>
      <point x="-52" y="-206"/>
      <point x="-54" y="-227"/>
    </contour>
  </outline>
</glyph>
<glyph name="macronbelowcomb" format="2">
  <unicode hex="0331"/>
  <anchor x="173" y="0" name="_bottom"/>
  <anchor x="137" y="-182" name="bottom"/>
  <outline>
    <contour>
      <point x="-42" y="-182" type="curve"/>
      <point x="97" y="-176"/>
      <point x="215" y="-175"/>
      <point x="320" y="-175" type="curve"/>
      <point x="327" y="-155"/>
      <point x="329" y="-132"/>
      <point x="329" y="-117" type="curve"/>
      <point x="-33" y="-117" type="line"/>
      <point x="-40" y="-136"/>
      <point x="-42" y="-162"/>
    </contour>
  </outline>
</glyph>
<glyph name="strokeshortcomb" format="2">
  <unicode hex="0335"/>
  <anchor x="273" y="335" name="_center"/>
  <outline>
    <contour>
      <point x="86" y="296" type="curve"/>
      <point x="184" y="301"/>
      <point x="246" y="303"/>
      <point x="451" y="303" type="curve"/>
      <point x="458" y="323"/>
      <point x="460" y="347"/>
      <point x="460" y="361" type="curve"/>
      <point x="95" y="361" type="line"/>
      <point x="88" y="342"/>
      <point x="86" y="316"/>
    </contour>
  </outline>
</glyph>
<glyph name="slashlongcomb" format="2">
  <unicode hex="0338"/>
  <anchor x="318" y="338" name="_center"/>
  <outline>
    <contour>
      <point x="123" y="187" type="curve"/>
      <point x="265" y="268"/>
      <point x="408" y="338"/>
      <point x="550" y="399" type="curve"/>
      <point x="547" y="436"/>
      <point x="534" y="463"/>
      <point x="511" y="480" type="curve"/>
      <point x="84" y="268" type="line"/>
      <point x="85" y="233"/>
      <point x="98" y="206"/>
    </contour>
  </outline>
</glyph>
<glyph name="tonos" format="2">
  <advance width="300"/>
  <unicode hex="0384"/>
  <outline>
    <contour>
      <point x="220" y="526" type="curve"/>
      <point x="245" y="579"/>
      <point x="284" y="646"/>
      <point x="330" y="709" type="curve"/>
      <point x="312" y="716"/>
      <point x="287" y="720"/>
      <point x="258" y="720" type="curve" smooth="yes"/>
      <point x="228" y="720"/>
      <point x="194" y="716"/>
      <point x="161" y="708" type="curve"/>
      <point x="155" y="657"/>
      <point x="141" y="606"/>
      <point x="124" y="549" type="curve"/>
      <point x="152" y="534"/>
      <point x="187" y="526"/>
    </contour>
  </outline>
</glyph>
<glyph name="Xi" format="2">
  <advance width="607"/>
  <unicode hex="039E"/>
  <anchor x="391" y="676" name="top"/>
  <outline>
    <contour>
      <point x="-11" y="-2" type="curve"/>
      <point x="50" y="-1"/>
      <point x="173" y="0"/>
      <point x="260" y="0" type="curve" smooth="yes"/>
      <point x="347" y="0"/>
      <point x="469" y="-1"/>
      <point x="530" y="-2" type="curve"/>
      <point x="546" y="63"/>
      <point x="569" y="137"/>
      <point x="588" y="183" type="curve"/>
      <point x="572" y="197"/>
      <point x="532" y="206"/>
      <point x="489" y="205" type="curve"/>
      <point x="457" y="144"/>
      <point x="427" y="125"/>
      <point x="384" y="125" type="curve" smooth="yes"/>
      <point x="185" y="125" type="line" smooth="yes"/>
      <point x="142" y="125"/>
      <point x="121" y="143"/>
      <point x="113" y="204" type="curve"/>
      <point x="68" y="206"/>
      <point x="23" y="197"/>
      <point x="1" y="184" type="curve"/>
      <point x="2" y="138"/>
      <point x="-1" y="63"/>
    </contour>
    <contour>
      <point x="119" y="231" type="curve"/>
      <point x="156" y="227"/>
      <point x="182" y="226"/>
      <point x="208" y="231" type="curve"/>
      <point x="220" y="270"/>
      <point x="241" y="284"/>
      <point x="300" y="284" type="curve" smooth="yes"/>
      <point x="331" y="284" type="line" smooth="yes"/>
      <point x="390" y="284"/>
      <point x="407" y="275"/>
      <point x="404" y="236" type="curve"/>
      <point x="426" y="228"/>
      <point x="451" y="226"/>
      <point x="488" y="226" type="curve"/>
      <point x="492" y="255"/>
      <point x="497" y="289"/>
      <point x="508" y="345" type="curve" smooth="yes"/>
      <point x="517" y="395"/>
      <point x="526" y="424"/>
      <point x="535" y="456" type="curve"/>
      <point x="505" y="460"/>
      <point x="469" y="461"/>
      <point x="444" y="456" type="curve"/>
      <point x="435" y="419"/>
      <point x="418" y="399"/>
      <point x="353" y="399" type="curve" smooth="yes"/>
      <point x="322" y="399" type="line" smooth="yes"/>
      <point x="257" y="399"/>
      <point x="245" y="413"/>
      <point x="251" y="450" type="curve"/>
      <point x="230" y="459"/>
      <point x="195" y="462"/>
      <point x="165" y="462" type="curve"/>
      <point x="161" y="430"/>
      <point x="156" y="395"/>
      <point x="147" y="345" type="curve" smooth="yes"/>
      <point x="136" y="289"/>
      <point x="127" y="260"/>
    </contour>
    <contour>
      <point x="172" y="483" type="curve"/>
      <point x="190" y="524"/>
      <point x="217" y="551"/>
      <point x="264" y="551" type="curve" smooth="yes"/>
      <point x="471" y="551" type="line" smooth="yes"/>
      <point x="518" y="551"/>
      <point x="533" y="524"/>
      <point x="535" y="483" type="curve"/>
      <point x="581" y="483"/>
      <point x="612" y="491"/>
      <point x="640" y="501" type="curve"/>
      <point x="636" y="548"/>
      <point x="645" y="628"/>
      <point x="653" y="679" type="curve"/>
      <point x="596" y="677"/>
      <point x="527" y="676"/>
      <point x="383" y="676" type="curve" smooth="yes"/>
      <point x="250" y="676"/>
      <point x="184" y="677"/>
      <point x="130" y="679" type="curve"/>
      <point x="120" y="628"/>
      <point x="97" y="548"/>
      <point x="75" y="501" type="curve"/>
      <point x="99" y="491"/>
      <point x="126" y="483"/>
    </contour>
  </outline>
</glyph>
<glyph name="Pi" format="2">
  <advance width="810"/>
  <unicode hex="03A0"/>
  <anchor x="475" y="676" name="top"/>
  <outline>
    <contour>
      <point x="10" y="-3" type="curve"/>
      <point x="56" y="-1"/>
      <point x="112" y="0"/>
      <point x="185" y="0" type="curve" smooth="yes"/>
      <point x="250" y="0"/>
      <point x="291" y="0"/>
      <point x="348" y="-3" type="curve"/>
      <point x="351" y="25"/>
      <point x="350" y="49"/>
      <point x="346" y="75" type="curve"/>
      <point x="297" y="84"/>
      <point x="288" y="94"/>
      <point x="303" y="180" type="curve" smooth="yes"/>
      <point x="355" y="481" type="line" smooth="yes"/>
      <point x="371" y="575"/>
      <point x="377" y="598"/>
      <point x="444" y="598" type="curve" smooth="yes"/>
      <point x="499" y="598" type="line" smooth="yes"/>
      <point x="557" y="598"/>
      <point x="567" y="577"/>
      <point x="554" y="501" type="curve" smooth="yes"/>
      <point x="499" y="177" type="line" smooth="yes"/>
      <point x="484" y="93"/>
      <point x="474" y="82"/>
      <point x="425" y="75" type="curve"/>
      <point x="414" y="48"/>
      <point x="409" y="26"/>
      <point x="406" y="-3" type="curve"/>
      <point x="452" y="-1"/>
      <point x="508" y="0"/>
      <point x="581" y="0" type="curve" smooth="yes"/>
      <point x="646" y="0"/>
      <point x="687" y="0"/>
      <point x="744" y="-3" type="curve"/>
      <point x="747" y="25"/>
      <point x="746" y="49"/>
      <point x="742" y="75" type="curve"/>
      <point x="693" y="84"/>
      <point x="684" y="94"/>
      <point x="699" y="180" type="curve" smooth="yes"/>
      <point x="751" y="481" type="line" smooth="yes"/>
      <point x="769" y="582"/>
      <point x="775" y="595"/>
      <point x="830" y="601" type="curve"/>
      <point x="840" y="628"/>
      <point x="844" y="654"/>
      <point x="844" y="679" type="curve"/>
      <point x="775" y="676"/>
      <point x="703" y="676"/>
      <point x="642" y="676" type="curve" smooth="yes"/>
      <point x="350" y="676" type="line" smooth="yes"/>
      <point x="208" y="676"/>
      <point x="162" y="676"/>
      <point x="108" y="679" type="curve"/>
      <point x="104" y="652"/>
      <point x="105" y="623"/>
      <point x="109" y="601" type="curve"/>
      <point x="166" y="593"/>
      <point x="171" y="579"/>
      <point x="158" y="501" type="curve" smooth="yes"/>
      <point x="103" y="177" type="line" smooth="yes"/>
      <point x="88" y="93"/>
      <point x="78" y="82"/>
      <point x="29" y="75" type="curve"/>
      <point x="18" y="48"/>
      <point x="13" y="26"/>
    </contour>
  </outline>
</glyph>
<glyph name="Sigma" format="2">
  <advance width="602"/>
  <unicode hex="03A3"/>
  <anchor x="382" y="676" name="top"/>
  <outline>
    <contour>
      <point x="-4" y="-3" type="curve"/>
      <point x="57" y="-1"/>
      <point x="137" y="0"/>
      <point x="236" y="0" type="curve" smooth="yes"/>
      <point x="359" y="0"/>
      <point x="479" y="0"/>
      <point x="539" y="-3" type="curve"/>
      <point x="547" y="63"/>
      <point x="566" y="133"/>
      <point x="582" y="180" type="curve"/>
      <point x="553" y="202"/>
      <point x="526" y="212"/>
      <point x="485" y="218" type="curve"/>
      <point x="452" y="111"/>
      <point x="409" y="75"/>
      <point x="341" y="75" type="curve" smooth="yes"/>
      <point x="164" y="75" type="line"/>
      <point x="190" y="42" type="line"/>
      <point x="280" y="153"/>
      <point x="411" y="281"/>
      <point x="445" y="300" type="curve"/>
      <point x="458" y="325"/>
      <point x="461" y="351"/>
      <point x="459" y="377" type="curve"/>
      <point x="429" y="410"/>
      <point x="350" y="548"/>
      <point x="322" y="614" type="curve"/>
      <point x="258" y="601" type="line"/>
      <point x="394" y="601" type="line" smooth="yes"/>
      <point x="493" y="601"/>
      <point x="510" y="555"/>
      <point x="515" y="485" type="curve"/>
      <point x="549" y="485"/>
      <point x="582" y="489"/>
      <point x="613" y="497" type="curve"/>
      <point x="608" y="557"/>
      <point x="613" y="624"/>
      <point x="622" y="679" type="curve"/>
      <point x="568" y="677"/>
      <point x="487" y="676"/>
      <point x="364" y="676" type="curve" smooth="yes"/>
      <point x="298" y="676"/>
      <point x="203" y="676"/>
      <point x="142" y="678" type="curve"/>
      <point x="126" y="658"/>
      <point x="114" y="637"/>
      <point x="108" y="608" type="curve"/>
      <point x="133" y="553"/>
      <point x="209" y="380"/>
      <point x="251" y="309" type="curve"/>
      <point x="259" y="354" type="line"/>
      <point x="163" y="265"/>
      <point x="73" y="173"/>
      <point x="-10" y="68" type="curve"/>
      <point x="-16" y="40"/>
      <point x="-13" y="14"/>
    </contour>
  </outline>
</glyph>
<glyph name="Phi" format="2">
  <advance width="771"/>
  <unicode hex="03A6"/>
  <anchor x="471" y="676" name="top"/>
  <outline>
    <contour>
      <point x="360" y="105" type="curve" smooth="yes"/>
      <point x="609" y="105"/>
      <point x="735" y="174"/>
      <point x="766" y="333" type="curve" smooth="yes"/>
      <point x="796" y="488"/>
      <point x="696" y="563"/>
      <point x="449" y="563" type="curve" smooth="yes"/>
      <point x="202" y="563"/>
      <point x="78" y="499"/>
      <point x="49" y="351" type="curve" smooth="yes"/>
      <point x="17" y="185"/>
      <point x="115" y="105"/>
    </contour>
    <contour>
      <point x="189" y="-3" type="curve"/>
      <point x="235" y="-1"/>
      <point x="291" y="0"/>
      <point x="364" y="0" type="curve" smooth="yes"/>
      <point x="429" y="0"/>
      <point x="470" y="0"/>
      <point x="527" y="-3" type="curve"/>
      <point x="530" y="25"/>
      <point x="529" y="49"/>
      <point x="525" y="75" type="curve"/>
      <point x="460" y="84"/>
      <point x="453" y="94"/>
      <point x="468" y="180" type="curve" smooth="yes"/>
      <point x="520" y="481" type="line" smooth="yes"/>
      <point x="538" y="583"/>
      <point x="548" y="595"/>
      <point x="613" y="601" type="curve"/>
      <point x="623" y="628"/>
      <point x="627" y="654"/>
      <point x="627" y="679" type="curve"/>
      <point x="568" y="676"/>
      <point x="507" y="676"/>
      <point x="455" y="676" type="curve" smooth="yes"/>
      <point x="391" y="676"/>
      <point x="336" y="676"/>
      <point x="287" y="679" type="curve"/>
      <point x="283" y="652"/>
      <point x="284" y="623"/>
      <point x="288" y="601" type="curve"/>
      <point x="361" y="593"/>
      <point x="364" y="580"/>
      <point x="351" y="501" type="curve" smooth="yes"/>
      <point x="296" y="177" type="line" smooth="yes"/>
      <point x="282" y="92"/>
      <point x="266" y="82"/>
      <point x="208" y="75" type="curve"/>
      <point x="197" y="48"/>
      <point x="192" y="26"/>
    </contour>
    <contour>
      <point x="372" y="177" type="curve" smooth="yes"/>
      <point x="255" y="177"/>
      <point x="212" y="219"/>
      <point x="234" y="332" type="curve" smooth="yes"/>
      <point x="256" y="446"/>
      <point x="319" y="495"/>
      <point x="434" y="495" type="curve" smooth="yes"/>
      <point x="557" y="495"/>
      <point x="603" y="457"/>
      <point x="583" y="352" type="curve" smooth="yes"/>
      <point x="560" y="230"/>
      <point x="494" y="177"/>
    </contour>
  </outline>
</glyph>
<glyph name="Psi" format="2">
  <advance width="890"/>
  <unicode hex="03A8"/>
  <anchor x="533" y="676" name="top"/>
  <outline>
    <contour>
      <point x="211" y="-3" type="curve"/>
      <point x="265" y="0"/>
      <point x="344" y="0"/>
      <point x="433" y="0" type="curve" smooth="yes"/>
      <point x="514" y="0"/>
      <point x="585" y="0"/>
      <point x="629" y="-3" type="curve"/>
      <point x="631" y="21"/>
      <point x="631" y="50"/>
      <point x="626" y="75" type="curve"/>
      <point x="537" y="88"/>
      <point x="531" y="105"/>
      <point x="545" y="187" type="curve" smooth="yes"/>
      <point x="596" y="481" type="line" smooth="yes"/>
      <point x="614" y="582"/>
      <point x="620" y="595"/>
      <point x="675" y="601" type="curve"/>
      <point x="685" y="628"/>
      <point x="689" y="654"/>
      <point x="689" y="679" type="curve"/>
      <point x="630" y="676"/>
      <point x="569" y="676"/>
      <point x="517" y="676" type="curve" smooth="yes"/>
      <point x="453" y="676"/>
      <point x="398" y="676"/>
      <point x="349" y="679" type="curve"/>
      <point x="345" y="652"/>
      <point x="346" y="623"/>
      <point x="350" y="601" type="curve"/>
      <point x="407" y="593"/>
      <point x="412" y="579"/>
      <point x="399" y="501" type="curve" smooth="yes"/>
      <point x="347" y="197" type="line" smooth="yes"/>
      <point x="330" y="98"/>
      <point x="317" y="86"/>
      <point x="229" y="75" type="curve"/>
      <point x="221" y="55"/>
      <point x="213" y="26"/>
    </contour>
    <contour>
      <point x="371" y="232" type="curve"/>
      <point x="381" y="309" type="line"/>
      <point x="300" y="309"/>
      <point x="265" y="332"/>
      <point x="289" y="458" type="curve" smooth="yes"/>
      <point x="320" y="614" type="line" smooth="yes"/>
      <point x="327" y="649"/>
      <point x="317" y="672"/>
      <point x="294" y="684" type="curve"/>
      <point x="264" y="675"/>
      <point x="191" y="659"/>
      <point x="98" y="666" type="curve"/>
      <point x="86" y="645"/>
      <point x="79" y="616"/>
      <point x="78" y="594" type="curve"/>
      <point x="123" y="579"/>
      <point x="119" y="566"/>
      <point x="108" y="503" type="curve" smooth="yes"/>
      <point x="73" y="297"/>
      <point x="100" y="232"/>
    </contour>
    <contour>
      <point x="534" y="232" type="line"/>
      <point x="808" y="232"/>
      <point x="829" y="290"/>
      <point x="897" y="543" type="curve" smooth="yes"/>
      <point x="906" y="578"/>
      <point x="915" y="602"/>
      <point x="940" y="602" type="curve" smooth="yes"/>
      <point x="942" y="602"/>
      <point x="946" y="602"/>
      <point x="950" y="594" type="curve"/>
      <point x="960" y="616"/>
      <point x="968" y="646"/>
      <point x="965" y="666" type="curve"/>
      <point x="935" y="681"/>
      <point x="893" y="685"/>
      <point x="873" y="685" type="curve" smooth="yes"/>
      <point x="756" y="685"/>
      <point x="725" y="640"/>
      <point x="704" y="530" type="curve" smooth="yes"/>
      <point x="673" y="375"/>
      <point x="646" y="309"/>
      <point x="544" y="309" type="curve"/>
    </contour>
  </outline>
</glyph>
<glyph name="Omega" format="2">
  <advance width="801"/>
  <unicode hex="03A9"/>
  <anchor x="355" y="0" name="bottom"/>
  <anchor x="480" y="676" name="top"/>
  <anchor x="165" y="676" name="topleft"/>
  <outline>
    <contour>
      <point x="36" y="-2" type="curve" smooth="yes"/>
      <point x="73" y="-1"/>
      <point x="125" y="0"/>
      <point x="280" y="0" type="curve"/>
      <point x="297" y="24"/>
      <point x="311" y="64"/>
      <point x="315" y="97" type="curve"/>
      <point x="259" y="196"/>
      <point x="249" y="252"/>
      <point x="268" y="348" type="curve" smooth="yes"/>
      <point x="306" y="547"/>
      <point x="408" y="610"/>
      <point x="473" y="610" type="curve"/>
      <point x="532" y="610"/>
      <point x="605" y="561"/>
      <point x="569" y="376" type="curve" smooth="yes"/>
      <point x="548" y="266"/>
      <point x="506" y="182"/>
      <point x="413" y="97" type="curve"/>
      <point x="406" y="62"/>
      <point x="411" y="24"/>
      <point x="425" y="0" type="curve"/>
      <point x="577" y="0"/>
      <point x="649" y="-1"/>
      <point x="692" y="-2" type="curve" smooth="yes"/>
      <point x="719" y="-2"/>
      <point x="734" y="5"/>
      <point x="745" y="24" type="curve"/>
      <point x="749" y="69"/>
      <point x="761" y="124"/>
      <point x="777" y="179" type="curve"/>
      <point x="762" y="196"/>
      <point x="724" y="208"/>
      <point x="697" y="217" type="curve"/>
      <point x="680" y="177"/>
      <point x="665" y="160"/>
      <point x="634" y="160" type="curve" smooth="yes"/>
      <point x="525" y="160" type="line"/>
      <point x="549" y="153" type="line"/>
      <point x="640" y="191"/>
      <point x="751" y="256"/>
      <point x="777" y="390" type="curve" smooth="yes"/>
      <point x="809" y="555"/>
      <point x="687" y="685"/>
      <point x="475" y="685" type="curve"/>
      <point x="269" y="685"/>
      <point x="106" y="569"/>
      <point x="74" y="408" type="curve" smooth="yes"/>
      <point x="47" y="270"/>
      <point x="137" y="197"/>
      <point x="214" y="159" type="curve"/>
      <point x="233" y="160" type="line"/>
      <point x="138" y="160" type="line" smooth="yes"/>
      <point x="107" y="160"/>
      <point x="100" y="163"/>
      <point x="92" y="203" type="curve"/>
      <point x="66" y="208"/>
      <point x="28" y="205"/>
      <point x="9" y="202" type="curve"/>
      <point x="6" y="138"/>
      <point x="-4" y="83"/>
      <point x="-12" y="52" type="curve"/>
      <point x="-11" y="19"/>
      <point x="3" y="-2"/>
    </contour>
  </outline>
</glyph>
<glyph name="alpha" format="2">
  <advance width="638"/>
  <unicode hex="03B1"/>
  <anchor x="306" y="458" name="top"/>
  <outline>
    <contour>
      <point x="222" y="-9" type="curve" smooth="yes"/>
      <point x="405" y="-9"/>
      <point x="474" y="120"/>
      <point x="551" y="279" type="curve" smooth="yes"/>
      <point x="585" y="349"/>
      <point x="598" y="376"/>
      <point x="635" y="381" type="curve"/>
      <point x="638" y="408"/>
      <point x="639" y="437"/>
      <point x="631" y="458" type="curve"/>
      <point x="585" y="458"/>
      <point x="522" y="459"/>
      <point x="488" y="467" type="curve"/>
      <point x="454" y="452"/>
      <point x="448" y="418"/>
      <point x="401" y="297" type="curve" smooth="yes"/>
      <point x="342" y="145"/>
      <point x="301" y="69"/>
      <point x="254" y="69" type="curve" smooth="yes"/>
      <point x="211" y="69"/>
      <point x="203" y="133"/>
      <point x="222" y="234" type="curve" smooth="yes"/>
      <point x="247" y="367"/>
      <point x="287" y="396"/>
      <point x="316" y="396" type="curve" smooth="yes"/>
      <point x="341" y="396"/>
      <point x="373" y="375"/>
      <point x="375" y="227" type="curve"/>
      <point x="428" y="251" type="line"/>
      <point x="439" y="398"/>
      <point x="394" y="467"/>
      <point x="296" y="467" type="curve" smooth="yes"/>
      <point x="193" y="467"/>
      <point x="62" y="392"/>
      <point x="30" y="227" type="curve" smooth="yes"/>
      <point x="5" y="99"/>
      <point x="54" y="-9"/>
    </contour>
    <contour>
      <point x="508" y="-9" type="curve" smooth="yes"/>
      <point x="532" y="-9"/>
      <point x="567" y="-2"/>
      <point x="596" y="13" type="curve"/>
      <point x="601" y="45"/>
      <point x="599" y="70"/>
      <point x="591" y="83" type="curve"/>
      <point x="580" y="83"/>
      <point x="564" y="78"/>
      <point x="544" y="78" type="curve" smooth="yes"/>
      <point x="520" y="78"/>
      <point x="494" y="85"/>
      <point x="496" y="186" type="curve"/>
      <point x="436" y="118" type="line"/>
      <point x="436" y="47"/>
      <point x="442" y="-9"/>
    </contour>
  </outline>
</glyph>
<glyph name="gamma" format="2">
  <advance width="590"/>
  <unicode hex="03B3"/>
  <anchor x="351" y="458" name="top"/>
  <outline>
    <contour>
      <point x="227" y="-249" type="curve" smooth="yes"/>
      <point x="314" y="-249"/>
      <point x="383" y="-213"/>
      <point x="402" y="-130" type="curve" smooth="yes"/>
      <point x="415" y="-72"/>
      <point x="411" y="38"/>
      <point x="371" y="156" type="curve"/>
      <point x="373" y="230"/>
      <point x="363" y="307"/>
      <point x="355" y="342" type="curve" smooth="yes"/>
      <point x="335" y="429"/>
      <point x="286" y="466"/>
      <point x="155" y="466" type="curve" smooth="yes"/>
      <point x="124" y="466"/>
      <point x="90" y="464"/>
      <point x="61" y="458" type="curve"/>
      <point x="46" y="431"/>
      <point x="44" y="396"/>
      <point x="58" y="367" type="curve"/>
      <point x="113" y="377"/>
      <point x="123" y="383"/>
      <point x="144" y="334" type="curve" smooth="yes"/>
      <point x="174" y="262"/>
      <point x="217" y="93"/>
      <point x="233" y="27" type="curve" smooth="yes"/>
      <point x="257" y="-71"/>
      <point x="256" y="-90"/>
      <point x="248" y="-119" type="curve" smooth="yes"/>
      <point x="235" y="-167"/>
      <point x="216" y="-191"/>
      <point x="188" y="-191" type="curve" smooth="yes"/>
      <point x="163" y="-191"/>
      <point x="162" y="-172"/>
      <point x="165" y="-152" type="curve" smooth="yes"/>
      <point x="174" y="-98"/>
      <point x="213" y="-47"/>
      <point x="252" y="-2" type="curve"/>
      <point x="225" y="76" type="line"/>
      <point x="157" y="-8"/>
      <point x="120" y="-72"/>
      <point x="108" y="-125" type="curve" smooth="yes"/>
      <point x="90" y="-205"/>
      <point x="131" y="-249"/>
    </contour>
    <contour>
      <point x="361" y="76" type="line"/>
      <point x="515" y="312" type="line" smooth="yes"/>
      <point x="541" y="352"/>
      <point x="558" y="375"/>
      <point x="601" y="383" type="curve"/>
      <point x="612" y="404"/>
      <point x="619" y="434"/>
      <point x="621" y="461" type="curve"/>
      <point x="593" y="459"/>
      <point x="557" y="458"/>
      <point x="516" y="458" type="curve" smooth="yes"/>
      <point x="475" y="458"/>
      <point x="442" y="459"/>
      <point x="418" y="461" type="curve"/>
      <point x="415" y="434"/>
      <point x="415" y="402"/>
      <point x="419" y="386" type="curve"/>
      <point x="457" y="380"/>
      <point x="463" y="374"/>
      <point x="434" y="330" type="curve" smooth="yes"/>
      <point x="391" y="265"/>
      <point x="370" y="231"/>
      <point x="335" y="168" type="curve"/>
    </contour>
  </outline>
</glyph>
<glyph name="delta" format="2">
  <advance width="573"/>
  <unicode hex="03B4"/>
  <anchor x="376" y="708" name="top"/>
  <outline>
    <contour>
      <point x="224" y="-8" type="curve" smooth="yes"/>
      <point x="384" y="-8"/>
      <point x="511" y="69"/>
      <point x="536" y="199" type="curve" smooth="yes"/>
      <point x="556" y="301"/>
      <point x="523" y="386"/>
      <point x="415" y="435" type="curve" smooth="yes"/>
      <point x="282" y="495"/>
      <point x="274" y="515"/>
      <point x="278" y="531" type="curve" smooth="yes"/>
      <point x="285" y="561"/>
      <point x="310" y="574"/>
      <point x="379" y="574" type="curve" smooth="yes"/>
      <point x="452" y="574"/>
      <point x="486" y="568"/>
      <point x="511" y="550" type="curve"/>
      <point x="530" y="582"/>
      <point x="541" y="618"/>
      <point x="543" y="655" type="curve"/>
      <point x="529" y="684"/>
      <point x="486" y="717"/>
      <point x="401" y="717" type="curve" smooth="yes"/>
      <point x="270" y="717"/>
      <point x="187" y="651"/>
      <point x="166" y="549" type="curve" smooth="yes"/>
      <point x="144" y="441"/>
      <point x="196" y="371"/>
      <point x="270" y="310" type="curve" smooth="yes"/>
      <point x="314" y="274"/>
      <point x="344" y="244"/>
      <point x="332" y="183" type="curve" smooth="yes"/>
      <point x="321" y="127"/>
      <point x="293" y="79"/>
      <point x="252" y="79" type="curve" smooth="yes"/>
      <point x="219" y="79"/>
      <point x="204" y="110"/>
      <point x="221" y="205" type="curve" smooth="yes"/>
      <point x="230" y="257"/>
      <point x="239" y="287"/>
      <point x="262" y="323" type="curve"/>
      <point x="205" y="383" type="line"/>
      <point x="111" y="338"/>
      <point x="41" y="287"/>
      <point x="23" y="193" type="curve" smooth="yes"/>
      <point x="-2" y="63"/>
      <point x="79" y="-8"/>
    </contour>
  </outline>
</glyph>
<glyph name="zeta" format="2">
  <advance width="446"/>
  <unicode hex="03B6"/>
  <anchor x="319" y="708" name="top"/>
  <outline>
    <contour>
      <point x="131" y="-249" type="curve"/>
      <point x="252" y="-208"/>
      <point x="388" y="-145"/>
      <point x="416" y="-2" type="curve" smooth="yes"/>
      <point x="432" y="79"/>
      <point x="406" y="128"/>
      <point x="336" y="153" type="curve" smooth="yes"/>
      <point x="294" y="168"/>
      <point x="239" y="173"/>
      <point x="253" y="249" type="curve" smooth="yes"/>
      <point x="270" y="342"/>
      <point x="377" y="464"/>
      <point x="524" y="569" type="curve"/>
      <point x="534" y="616"/>
      <point x="537" y="677"/>
      <point x="521" y="710" type="curve"/>
      <point x="494" y="709"/>
      <point x="400" y="708"/>
      <point x="324" y="708" type="curve" smooth="yes"/>
      <point x="246" y="708"/>
      <point x="172" y="709"/>
      <point x="141" y="710" type="curve"/>
      <point x="126" y="634"/>
      <point x="103" y="541"/>
      <point x="81" y="491" type="curve"/>
      <point x="113" y="474"/>
      <point x="138" y="474"/>
      <point x="180" y="474" type="curve"/>
      <point x="209" y="535"/>
      <point x="233" y="548"/>
      <point x="303" y="548" type="curve" smooth="yes"/>
      <point x="405" y="548" type="line"/>
      <point x="388" y="568" type="line"/>
      <point x="122" y="388"/>
      <point x="53" y="305"/>
      <point x="32" y="192" type="curve" smooth="yes"/>
      <point x="14" y="97"/>
      <point x="38" y="36"/>
      <point x="163" y="6" type="curve" smooth="yes"/>
      <point x="180" y="2"/>
      <point x="222" y="-11"/>
      <point x="213" y="-61" type="curve" smooth="yes"/>
      <point x="205" y="-103"/>
      <point x="164" y="-138"/>
      <point x="99" y="-175" type="curve"/>
      <point x="96" y="-207"/>
      <point x="109" y="-236"/>
    </contour>
  </outline>
</glyph>
<glyph name="iota" format="2">
  <advance width="360"/>
  <unicode hex="03B9"/>
  <anchor x="213" y="458" name="top"/>
  <anchor x="38" y="458" name="topleft"/>
  <outline>
    <contour>
      <point x="181" y="-9" type="curve" smooth="yes"/>
      <point x="234" y="-9"/>
      <point x="286" y="0"/>
      <point x="313" y="10" type="curve"/>
      <point x="318" y="42"/>
      <point x="314" y="67"/>
      <point x="304" y="87" type="curve"/>
      <point x="293" y="81"/>
      <point x="280" y="78"/>
      <point x="264" y="78" type="curve" smooth="yes"/>
      <point x="243" y="78"/>
      <point x="237" y="93"/>
      <point x="244" y="129" type="curve" smooth="yes"/>
      <point x="296" y="396" type="line" smooth="yes"/>
      <point x="303" y="431"/>
      <point x="292" y="454"/>
      <point x="270" y="467" type="curve"/>
      <point x="238" y="454"/>
      <point x="149" y="434"/>
      <point x="50" y="441" type="curve"/>
      <point x="38" y="420"/>
      <point x="32" y="391"/>
      <point x="30" y="368" type="curve"/>
      <point x="87" y="355"/>
      <point x="96" y="342"/>
      <point x="87" y="296" type="curve" smooth="yes"/>
      <point x="57" y="141" type="line" smooth="yes"/>
      <point x="37" y="37"/>
      <point x="83" y="-9"/>
    </contour>
  </outline>
</glyph>
<glyph name="kappa" format="2">
  <advance width="632"/>
  <unicode hex="03BA"/>
  <anchor x="348" y="458" name="top"/>
  <outline>
    <contour>
      <point x="383" y="-9" type="curve"/>
      <point x="428" y="-2"/>
      <point x="522" y="0"/>
      <point x="573" y="0" type="curve"/>
      <point x="588" y="22"/>
      <point x="597" y="51"/>
      <point x="602" y="75" type="curve"/>
      <point x="566" y="79"/>
      <point x="563" y="82"/>
      <point x="543" y="120" type="curve" smooth="yes"/>
      <point x="504" y="197"/>
      <point x="457" y="265"/>
      <point x="390" y="327" type="curve"/>
      <point x="396" y="264" type="line"/>
      <point x="471" y="323" type="line" smooth="yes"/>
      <point x="527" y="368"/>
      <point x="554" y="378"/>
      <point x="614" y="383" type="curve"/>
      <point x="628" y="408"/>
      <point x="635" y="430"/>
      <point x="641" y="460" type="curve"/>
      <point x="615" y="459"/>
      <point x="584" y="458"/>
      <point x="547" y="458" type="curve" smooth="yes"/>
      <point x="480" y="458"/>
      <point x="401" y="459"/>
      <point x="377" y="460" type="curve"/>
      <point x="372" y="434"/>
      <point x="370" y="410"/>
      <point x="375" y="383" type="curve"/>
      <point x="396" y="381"/>
      <point x="400" y="376"/>
      <point x="398" y="366" type="curve" smooth="yes"/>
      <point x="396" y="358"/>
      <point x="389" y="349"/>
      <point x="353" y="322" type="curve" smooth="yes"/>
      <point x="241" y="238" type="line"/>
      <point x="297" y="153"/>
      <point x="358" y="46"/>
    </contour>
    <contour>
      <point x="33" y="0" type="line"/>
      <point x="226" y="0" type="line"/>
      <point x="302" y="402" type="line"/>
      <point x="306" y="430"/>
      <point x="297" y="453"/>
      <point x="271" y="467" type="curve"/>
      <point x="205" y="441"/>
      <point x="125" y="428"/>
      <point x="43" y="426" type="curve"/>
      <point x="34" y="404"/>
      <point x="30" y="375"/>
      <point x="30" y="351" type="curve"/>
      <point x="94" y="351"/>
      <point x="95" y="334"/>
      <point x="82" y="262" type="curve" smooth="yes"/>
    </contour>
  </outline>
</glyph>
<glyph name="lambda" format="2">
  <advance width="588"/>
  <unicode hex="03BB"/>
  <anchor x="376" y="708" name="top"/>
  <outline>
    <contour>
      <point x="441" y="-9" type="curve" smooth="yes"/>
      <point x="492" y="-9"/>
      <point x="540" y="3"/>
      <point x="573" y="24" type="curve"/>
      <point x="577" y="53"/>
      <point x="571" y="71"/>
      <point x="565" y="88" type="curve"/>
      <point x="547" y="80"/>
      <point x="538" y="78"/>
      <point x="529" y="78" type="curve" smooth="yes"/>
      <point x="494" y="78"/>
      <point x="492" y="105"/>
      <point x="491" y="114" type="curve" smooth="yes"/>
      <point x="444" y="588" type="line" smooth="yes"/>
      <point x="439" y="638"/>
      <point x="430" y="717"/>
      <point x="307" y="717" type="curve" smooth="yes"/>
      <point x="253" y="717"/>
      <point x="189" y="702"/>
      <point x="149" y="678" type="curve"/>
      <point x="146" y="655"/>
      <point x="151" y="631"/>
      <point x="158" y="616" type="curve"/>
      <point x="177" y="625"/>
      <point x="199" y="629"/>
      <point x="212" y="629" type="curve" smooth="yes"/>
      <point x="253" y="629"/>
      <point x="256" y="591"/>
      <point x="258" y="573" type="curve" smooth="yes"/>
      <point x="306" y="92" type="line" smooth="yes"/>
      <point x="309" y="61"/>
      <point x="319" y="-9"/>
    </contour>
    <contour>
      <point x="-9" y="-5" type="curve"/>
      <point x="76" y="0"/>
      <point x="143" y="0"/>
      <point x="188" y="0" type="curve"/>
      <point x="228" y="164"/>
      <point x="261" y="270"/>
      <point x="316" y="420" type="curve"/>
      <point x="277" y="499" type="line"/>
      <point x="152" y="270"/>
      <point x="79" y="144"/>
      <point x="57" y="108" type="curve" smooth="yes"/>
      <point x="42" y="83"/>
      <point x="32" y="71"/>
      <point x="1" y="70" type="curve"/>
      <point x="-8" y="47"/>
      <point x="-13" y="22"/>
    </contour>
  </outline>
</glyph>
<glyph name="mu" format="2">
  <advance width="677"/>
  <unicode hex="03BC"/>
  <anchor x="380" y="458" name="top"/>
  <outline>
    <contour>
      <point x="16" y="-251" type="curve"/>
      <point x="71" y="-222"/>
      <point x="120" y="-202"/>
      <point x="179" y="-200" type="curve"/>
      <point x="170" y="-155"/>
      <point x="170" y="-104"/>
      <point x="181" y="-47" type="curve" smooth="yes"/>
      <point x="211" y="107" type="line"/>
      <point x="206" y="117" type="line"/>
      <point x="195" y="38"/>
      <point x="210" y="-9"/>
      <point x="264" y="-9" type="curve" smooth="yes"/>
      <point x="320" y="-9"/>
      <point x="380" y="41"/>
      <point x="416" y="156" type="curve"/>
      <point x="417" y="156" type="line"/>
      <point x="409" y="140"/>
      <point x="404" y="118"/>
      <point x="402" y="108" type="curve" smooth="yes"/>
      <point x="390" y="48"/>
      <point x="398" y="-9"/>
      <point x="497" y="-9" type="curve" smooth="yes"/>
      <point x="553" y="-9"/>
      <point x="614" y="9"/>
      <point x="658" y="52" type="curve"/>
      <point x="657" y="76"/>
      <point x="641" y="106"/>
      <point x="626" y="118" type="curve"/>
      <point x="610" y="106"/>
      <point x="602" y="104"/>
      <point x="596" y="104" type="curve" smooth="yes"/>
      <point x="580" y="104"/>
      <point x="579" y="119"/>
      <point x="594" y="205" type="curve" smooth="yes"/>
      <point x="638" y="458" type="line"/>
      <point x="445" y="458" type="line"/>
      <point x="436" y="408" type="line" smooth="yes"/>
      <point x="402" y="220"/>
      <point x="339" y="153"/>
      <point x="294" y="153" type="curve" smooth="yes"/>
      <point x="265" y="153"/>
      <point x="258" y="181"/>
      <point x="281" y="288" type="curve" smooth="yes"/>
      <point x="310" y="425"/>
      <point x="313" y="440"/>
      <point x="271" y="467" type="curve"/>
      <point x="205" y="441"/>
      <point x="125" y="428"/>
      <point x="43" y="426" type="curve"/>
      <point x="34" y="404"/>
      <point x="30" y="375"/>
      <point x="30" y="351" type="curve"/>
      <point x="100" y="347"/>
      <point x="103" y="342"/>
      <point x="71" y="201" type="curve"/>
      <point x="24" y="-46" type="line" smooth="yes"/>
      <point x="3" y="-158"/>
      <point x="-1" y="-169"/>
      <point x="-16" y="-190" type="curve"/>
      <point x="-13" y="-218"/>
      <point x="-6" y="-238"/>
    </contour>
  </outline>
</glyph>
<glyph name="xi" format="2">
  <advance width="434"/>
  <unicode hex="03BE"/>
  <anchor x="324" y="708" name="top"/>
  <outline>
    <contour>
      <point x="122" y="-249" type="curve"/>
      <point x="227" y="-216"/>
      <point x="373" y="-156"/>
      <point x="399" y="-26" type="curve" smooth="yes"/>
      <point x="413" y="42"/>
      <point x="388" y="72"/>
      <point x="321" y="95" type="curve" smooth="yes"/>
      <point x="254" y="118"/>
      <point x="220" y="130"/>
      <point x="227" y="173" type="curve" smooth="yes"/>
      <point x="235" y="219"/>
      <point x="279" y="237"/>
      <point x="376" y="236" type="curve"/>
      <point x="391" y="256"/>
      <point x="405" y="292"/>
      <point x="408" y="319" type="curve"/>
      <point x="305" y="320"/>
      <point x="285" y="349"/>
      <point x="294" y="397" type="curve" smooth="yes"/>
      <point x="303" y="447"/>
      <point x="317" y="487"/>
      <point x="512" y="569" type="curve"/>
      <point x="522" y="616"/>
      <point x="525" y="677"/>
      <point x="508" y="710" type="curve"/>
      <point x="484" y="709"/>
      <point x="392" y="708"/>
      <point x="320" y="708" type="curve" smooth="yes"/>
      <point x="243" y="708"/>
      <point x="171" y="709"/>
      <point x="141" y="710" type="curve"/>
      <point x="128" y="648"/>
      <point x="109" y="572"/>
      <point x="89" y="531" type="curve"/>
      <point x="120" y="514"/>
      <point x="145" y="514"/>
      <point x="188" y="514" type="curve"/>
      <point x="203" y="558"/>
      <point x="225" y="568"/>
      <point x="305" y="568" type="curve" smooth="yes"/>
      <point x="400" y="568" type="line"/>
      <point x="385" y="577" type="line"/>
      <point x="160" y="507"/>
      <point x="101" y="456"/>
      <point x="88" y="387" type="curve" smooth="yes"/>
      <point x="74" y="312"/>
      <point x="132" y="264"/>
      <point x="314" y="264" type="curve"/>
      <point x="315" y="271" type="line"/>
      <point x="149" y="271"/>
      <point x="31" y="227"/>
      <point x="11" y="121" type="curve" smooth="yes"/>
      <point x="-1" y="55"/>
      <point x="21" y="2"/>
      <point x="130" y="-20" type="curve" smooth="yes"/>
      <point x="163" y="-27"/>
      <point x="204" y="-38"/>
      <point x="196" y="-81" type="curve" smooth="yes"/>
      <point x="190" y="-113"/>
      <point x="157" y="-141"/>
      <point x="90" y="-175" type="curve"/>
      <point x="88" y="-207"/>
      <point x="100" y="-236"/>
    </contour>
  </outline>
</glyph>
<glyph name="pi" format="2">
  <advance width="548"/>
  <unicode hex="03C0"/>
  <anchor x="309" y="458" name="top"/>
  <outline>
    <contour>
      <point x="64" y="270" type="curve"/>
      <point x="86" y="290"/>
      <point x="109" y="301"/>
      <point x="139" y="301" type="curve" smooth="yes"/>
      <point x="237" y="301"/>
      <point x="364" y="298"/>
      <point x="479" y="298" type="curve" smooth="yes"/>
      <point x="530" y="298"/>
      <point x="545" y="312"/>
      <point x="559" y="338" type="curve"/>
      <point x="564" y="376"/>
      <point x="575" y="431"/>
      <point x="594" y="491" type="curve"/>
      <point x="578" y="501"/>
      <point x="540" y="509"/>
      <point x="513" y="511" type="curve"/>
      <point x="490" y="466"/>
      <point x="483" y="458"/>
      <point x="440" y="458" type="curve" smooth="yes"/>
      <point x="414" y="458"/>
      <point x="274" y="461"/>
      <point x="238" y="461" type="curve" smooth="yes"/>
      <point x="141" y="461"/>
      <point x="91" y="440"/>
      <point x="23" y="339" type="curve"/>
      <point x="22" y="311"/>
      <point x="38" y="284"/>
    </contour>
    <contour>
      <point x="8" y="-9" type="curve"/>
      <point x="39" y="-3"/>
      <point x="80" y="0"/>
      <point x="138" y="0" type="curve"/>
      <point x="175" y="24"/>
      <point x="200" y="118"/>
      <point x="241" y="325" type="curve"/>
      <point x="162" y="326" type="line"/>
      <point x="146" y="243"/>
      <point x="100" y="139"/>
      <point x="9" y="77" type="curve"/>
      <point x="0" y="48"/>
      <point x="-2" y="9"/>
    </contour>
    <contour>
      <point x="369" y="-9" type="curve" smooth="yes"/>
      <point x="418" y="-9"/>
      <point x="467" y="5"/>
      <point x="494" y="25" type="curve"/>
      <point x="500" y="52"/>
      <point x="498" y="76"/>
      <point x="492" y="89" type="curve"/>
      <point x="479" y="83"/>
      <point x="463" y="79"/>
      <point x="449" y="79" type="curve" smooth="yes"/>
      <point x="426" y="79"/>
      <point x="420" y="91"/>
      <point x="433" y="156" type="curve" smooth="yes"/>
      <point x="465" y="324" type="line"/>
      <point x="303" y="324" type="line"/>
      <point x="268" y="144" type="line" smooth="yes"/>
      <point x="247" y="32"/>
      <point x="284" y="-9"/>
    </contour>
  </outline>
</glyph>
